<svg width="666" height="286" viewBox="0 0 666 286" fill="none" xmlns="http://www.w3.org/2000/svg">
<g clip-path="url(#clip0_4768_5503)">
<path d="M442.713 0.141602H8.70276C6.56423 0.141703 4.51319 0.990596 3.00009 2.50183C1.48699 4.01307 0.635552 6.06307 0.632812 8.2016V213.072C0.635163 215.211 1.48616 217.262 2.99905 218.775C4.51195 220.288 6.56319 221.139 8.70276 221.142H442.713C444.851 221.137 446.9 220.285 448.411 218.772C449.922 217.26 450.771 215.21 450.773 213.072V8.2016C450.771 6.06462 449.921 4.0158 448.41 2.50473C446.899 0.993658 444.85 0.143775 442.713 0.141602Z" fill="#F3F3F3"/>
<path d="M328.072 98.8418C325.935 98.844 323.886 99.6939 322.375 101.205C320.864 102.716 320.014 104.765 320.012 106.902V164.772C320.014 166.91 320.863 168.96 322.374 170.473C323.885 171.985 325.934 172.837 328.072 172.842H450.772V98.8418H328.072Z" fill="black"/>
<path opacity="0.5" d="M657.088 172.837H328.078C325.939 172.834 323.889 171.984 322.377 170.472C320.865 168.959 320.014 166.909 320.012 164.771V106.903C320.014 104.764 320.865 102.714 322.377 101.202C323.889 99.6898 325.94 98.8393 328.078 98.8369H657.088C659.227 98.8393 661.277 99.6898 662.789 101.202C664.302 102.714 665.152 104.764 665.155 106.903V164.771C665.152 166.909 664.302 168.959 662.789 170.472C661.277 171.984 659.227 172.834 657.088 172.837Z" fill="black"/>
<path d="M372.57 152.626C379.799 152.626 385.659 146.766 385.659 139.537C385.659 132.308 379.799 126.447 372.57 126.447C365.341 126.447 359.48 132.308 359.48 139.537C359.48 146.766 365.341 152.626 372.57 152.626Z" fill="white"/>
<path d="M646.892 135.734H410.378C409.344 135.734 408.353 135.323 407.622 134.592C406.891 133.861 406.48 132.87 406.48 131.836C406.48 130.802 406.891 129.811 407.622 129.08C408.353 128.349 409.344 127.938 410.378 127.938H646.892C647.926 127.938 648.917 128.349 649.648 129.08C650.379 129.811 650.79 130.802 650.79 131.836C650.79 132.87 650.379 133.861 649.648 134.592C648.917 135.323 647.926 135.734 646.892 135.734Z" fill="white"/>
<path d="M557.062 151.136H410.378C409.345 151.136 408.353 150.725 407.622 149.994C406.891 149.263 406.48 148.272 406.48 147.238C406.48 146.204 406.891 145.213 407.622 144.482C408.353 143.751 409.345 143.34 410.378 143.34H557.062C558.096 143.34 559.087 143.751 559.818 144.482C560.549 145.213 560.96 146.204 560.96 147.238C560.96 148.272 560.549 149.263 559.818 149.994C559.087 150.725 558.096 151.136 557.062 151.136Z" fill="white"/>
<path d="M233.885 173.212H128.875C126.735 173.214 124.684 174.065 123.171 175.578C121.658 177.091 120.807 179.142 120.805 181.282V221.142H241.945V181.282C241.943 179.144 241.093 177.094 239.583 175.581C238.072 174.068 236.023 173.216 233.885 173.212Z" fill="black"/>
<path opacity="0.5" d="M233.881 285.212H128.871C126.732 285.209 124.682 284.359 123.17 282.847C121.658 281.334 120.807 279.284 120.805 277.146V181.278C120.807 179.139 121.658 177.089 123.17 175.577C124.682 174.065 126.732 173.214 128.871 173.212H233.881C236.02 173.214 238.07 174.065 239.582 175.577C241.094 177.089 241.945 179.139 241.948 181.278V277.146C241.945 279.284 241.094 281.334 239.582 282.847C238.07 284.359 236.02 285.209 233.881 285.212Z" fill="black"/>
<path d="M159.808 218.652C167.037 218.652 172.897 212.792 172.897 205.563C172.897 198.334 167.037 192.474 159.808 192.474C152.579 192.474 146.719 198.334 146.719 205.563C146.719 212.792 152.579 218.652 159.808 218.652Z" fill="white"/>
<path d="M212.131 238.547H150.617C149.583 238.547 148.591 238.137 147.86 237.406C147.129 236.675 146.719 235.683 146.719 234.65C146.719 233.616 147.129 232.625 147.86 231.894C148.591 231.163 149.583 230.752 150.617 230.752H212.131C213.164 230.752 214.156 231.163 214.887 231.894C215.618 232.625 216.028 233.616 216.028 234.65C216.028 235.683 215.618 236.675 214.887 237.406C214.156 238.137 213.164 238.547 212.131 238.547Z" fill="white"/>
<path d="M180.3 253.949H150.617C149.583 253.949 148.591 253.539 147.86 252.807C147.129 252.076 146.719 251.085 146.719 250.051C146.719 249.017 147.129 248.026 147.86 247.295C148.591 246.564 149.583 246.153 150.617 246.153H180.3C181.334 246.153 182.326 246.564 183.057 247.295C183.788 248.026 184.198 249.017 184.198 250.051C184.198 251.085 183.788 252.076 183.057 252.807C182.326 253.539 181.334 253.949 180.3 253.949Z" fill="white"/>
<path d="M113.885 112.267H8.87497C6.73639 112.264 4.68607 111.414 3.17386 109.901C1.66165 108.389 0.811031 106.339 0.808594 104.2V8.33264C0.811045 6.19409 1.66171 4.14384 3.17392 2.63168C4.68613 1.11953 6.73642 0.268973 8.87497 0.266602H113.885C116.024 0.268973 118.074 1.11953 119.586 2.63168C121.098 4.14384 121.949 6.19409 121.951 8.33264V104.2C121.949 106.339 121.098 108.389 119.586 109.901C118.074 111.414 116.024 112.264 113.885 112.267Z" fill="black"/>
<path d="M39.8159 53.7071C47.045 53.7071 52.9053 47.8468 52.9053 40.6177C52.9053 33.3886 47.045 27.5283 39.8159 27.5283C32.5869 27.5283 26.7266 33.3886 26.7266 40.6177C26.7266 47.8468 32.5869 53.7071 39.8159 53.7071Z" fill="black"/>
<path d="M92.1384 69.6021H30.6243C29.5906 69.6021 28.5992 69.1915 27.8682 68.4605C27.1372 67.7295 26.7266 66.7382 26.7266 65.7044C26.7266 64.6707 27.1372 63.6792 27.8682 62.9483C28.5992 62.2173 29.5906 61.8066 30.6243 61.8066H92.1384C93.1722 61.8066 94.1636 62.2173 94.8946 62.9483C95.6255 63.6792 96.0362 64.6707 96.0362 65.7044C96.0362 66.7382 95.6255 67.7295 94.8946 68.4605C94.1636 69.1915 93.1722 69.6021 92.1384 69.6021Z" fill="black"/>
<path d="M60.3082 85.0039H30.6245C29.5907 85.0039 28.5993 84.5932 27.8683 83.8622C27.1373 83.1312 26.7266 82.1398 26.7266 81.106C26.7266 80.0722 27.1373 79.0807 27.8683 78.3497C28.5993 77.6187 29.5907 77.208 30.6245 77.208H60.3082C61.342 77.208 62.3334 77.6187 63.0644 78.3497C63.7954 79.0807 64.2061 80.0722 64.2061 81.106C64.2061 82.1398 63.7954 83.1312 63.0644 83.8622C62.3334 84.5932 61.342 85.0039 60.3082 85.0039Z" fill="black"/>
<path opacity="0.5" d="M113.885 112.267H8.87497C6.73639 112.264 4.68607 111.414 3.17386 109.901C1.66165 108.389 0.811031 106.339 0.808594 104.2V8.33264C0.811045 6.19409 1.66171 4.14384 3.17392 2.63168C4.68613 1.11953 6.73642 0.268973 8.87497 0.266602H113.885C116.024 0.268973 118.074 1.11953 119.586 2.63168C121.098 4.14384 121.949 6.19409 121.951 8.33264V104.2C121.949 106.339 121.098 108.389 119.586 109.901C118.074 111.414 116.024 112.264 113.885 112.267Z" fill="black"/>
<path d="M39.8159 53.7071C47.045 53.7071 52.9053 47.8468 52.9053 40.6177C52.9053 33.3886 47.045 27.5283 39.8159 27.5283C32.5869 27.5283 26.7266 33.3886 26.7266 40.6177C26.7266 47.8468 32.5869 53.7071 39.8159 53.7071Z" fill="white"/>
<path d="M92.1384 69.6021H30.6243C29.5906 69.6021 28.5992 69.1915 27.8682 68.4605C27.1372 67.7295 26.7266 66.7382 26.7266 65.7044C26.7266 64.6707 27.1372 63.6792 27.8682 62.9483C28.5992 62.2173 29.5906 61.8066 30.6243 61.8066H92.1384C93.1722 61.8066 94.1636 62.2173 94.8946 62.9483C95.6255 63.6792 96.0362 64.6707 96.0362 65.7044C96.0362 66.7382 95.6255 67.7295 94.8946 68.4605C94.1636 69.1915 93.1722 69.6021 92.1384 69.6021Z" fill="white"/>
<path d="M60.3082 85.0039H30.6245C29.5907 85.0039 28.5993 84.5932 27.8683 83.8622C27.1373 83.1312 26.7266 82.1398 26.7266 81.106C26.7266 80.0722 27.1373 79.0807 27.8683 78.3497C28.5993 77.6187 29.5907 77.208 30.6245 77.208H60.3082C61.342 77.208 62.3334 77.6187 63.0644 78.3497C63.7954 79.0807 64.2061 80.0722 64.2061 81.106C64.2061 82.1398 63.7954 83.1312 63.0644 83.8622C62.3334 84.5932 61.342 85.0039 60.3082 85.0039Z" fill="white"/>
</g>
<defs>
<clipPath id="clip0_4768_5503">
<rect width="666" height="286" fill="white"/>
</clipPath>
</defs>
</svg>
