<svg width="489" height="397" viewBox="0 0 489 397" fill="none" xmlns="http://www.w3.org/2000/svg">
<g clip-path="url(#clip0_4768_5631)">
<path d="M44.0278 0C43.3048 0.000794072 42.6116 0.288351 42.1004 0.799591C41.5891 1.31083 41.3016 2.00399 41.3008 2.72699V95.739C41.3016 96.462 41.5891 97.1552 42.1004 97.6664C42.6116 98.1776 43.3048 98.4652 44.0278 98.466H361.184C361.907 98.4652 362.6 98.1776 363.111 97.6664C363.622 97.1552 363.91 96.462 363.911 95.739V2.72699C363.91 2.00399 363.622 1.31083 363.111 0.799591C362.6 0.288351 361.907 0.000794072 361.184 0H44.0278Z" fill="#F3F3F3"/>
<path d="M48.1328 91.633H357.075V6.83301H48.1328V91.633Z" fill="white"/>
<path d="M318.08 74.04C317.487 74.04 316.899 74.1569 316.351 74.3839C315.803 74.6109 315.305 74.9437 314.886 75.3632C314.466 75.7827 314.133 76.2807 313.906 76.8288C313.679 77.3769 313.562 77.9643 313.562 78.5575C313.562 79.1508 313.679 79.7382 313.906 80.2863C314.133 80.8344 314.466 81.3324 314.886 81.7519C315.305 82.1714 315.803 82.5041 316.351 82.7312C316.899 82.9582 317.487 83.075 318.08 83.075H336.149C336.742 83.075 337.33 82.9582 337.878 82.7312C338.426 82.5041 338.924 82.1714 339.343 81.7519C339.763 81.3324 340.096 80.8344 340.323 80.2863C340.55 79.7382 340.667 79.1508 340.667 78.5575C340.667 77.9643 340.55 77.3769 340.323 76.8288C340.096 76.2807 339.763 75.7827 339.343 75.3632C338.924 74.9437 338.426 74.6109 337.878 74.3839C337.33 74.1569 336.742 74.04 336.149 74.04H318.08Z" fill="#B9FF66"/>
<path d="M340.666 65.2783H132.078V66.4673H340.666V65.2783Z" fill="black"/>
<path d="M88.4751 75.5439C103.006 75.5439 114.786 63.764 114.786 49.2329C114.786 34.7017 103.006 22.9219 88.4751 22.9219C73.9439 22.9219 62.1641 34.7017 62.1641 49.2329C62.1641 63.764 73.9439 75.5439 88.4751 75.5439Z" fill="black"/>
<path d="M132.409 58.6407L131.75 57.6517L153.425 43.2017L168.288 50.3367L189.667 36.6777L189.956 36.8007L232.196 54.8197L266.063 38.1827L298.95 51.5157L340.273 59.9157L341.061 60.8057L299.186 52.8947L266.109 39.4837L232.229 56.1257L189.777 38.0167L168.369 51.6937L153.519 44.5657L132.409 58.6407Z" fill="black"/>
<path d="M135.941 74.6626C134.928 74.6789 133.961 75.093 133.25 75.8156C132.539 76.5382 132.141 77.5113 132.141 78.5251C132.141 79.5389 132.539 80.512 133.25 81.2346C133.961 81.9572 134.928 82.3713 135.941 82.3876H176.351C177.375 82.4027 178.363 82.0109 179.098 81.2983C179.833 80.5857 180.255 79.6105 180.271 78.587C180.287 77.5634 179.897 76.5752 179.185 75.8394C178.474 75.1036 177.499 74.6803 176.475 74.6626C176.434 74.6619 176.393 74.6619 176.351 74.6626H135.941Z" fill="black"/>
<path d="M99.0589 48.9067C98.763 48.6108 98.3617 48.4445 97.9432 48.4445C97.5247 48.4445 97.1233 48.6107 96.8274 48.9066L90.0535 55.6805V38.9769C90.05 38.5607 89.8822 38.1627 89.5867 37.8697C89.2911 37.5766 88.8918 37.4121 88.4755 37.4121C88.0593 37.4121 87.6599 37.5766 87.3644 37.8697C87.0688 38.1627 86.901 38.5607 86.8976 38.9769V55.6805L80.1237 48.9066C79.8283 48.6111 79.4277 48.4448 79.0099 48.4442C78.592 48.4436 78.191 48.6088 77.8947 48.9035C77.5985 49.1982 77.4313 49.5984 77.4297 50.0163C77.4281 50.4341 77.5924 50.8355 77.8864 51.1325L77.8921 51.1382L87.3597 60.6057C87.6557 60.9017 88.057 61.0679 88.4755 61.0679C88.894 61.0679 89.2954 60.9017 89.5913 60.6057L99.0589 51.1382C99.3548 50.8422 99.521 50.4409 99.521 50.0224C99.521 49.604 99.3548 49.2026 99.0589 48.9067Z" fill="white"/>
<path d="M168.801 148.963C168.078 148.964 167.385 149.251 166.874 149.763C166.363 150.274 166.075 150.967 166.074 151.69V244.702C166.075 245.425 166.363 246.118 166.874 246.629C167.385 247.141 168.078 247.428 168.801 247.429H485.958C486.681 247.428 487.374 247.141 487.886 246.629C488.397 246.118 488.684 245.425 488.685 244.702V151.69C488.684 150.967 488.397 150.274 487.886 149.763C487.374 149.251 486.681 148.964 485.958 148.963H168.801Z" fill="#F3F3F3"/>
<path d="M172.906 240.596H481.849V155.796H172.906V240.596Z" fill="white"/>
<path d="M442.853 223.005C441.655 223.005 440.506 223.481 439.659 224.328C438.812 225.175 438.336 226.324 438.336 227.522C438.336 228.72 438.812 229.87 439.659 230.717C440.506 231.564 441.655 232.04 442.853 232.04H460.92C462.119 232.04 463.268 231.564 464.115 230.717C464.962 229.87 465.438 228.72 465.438 227.522C465.438 226.324 464.962 225.175 464.115 224.328C463.268 223.481 462.119 223.005 460.92 223.005H442.853Z" fill="#B9FF66"/>
<path d="M465.44 214.242H256.852V215.431H465.44V214.242Z" fill="black"/>
<path d="M213.252 224.508C227.784 224.508 239.563 212.728 239.563 198.197C239.563 183.666 227.784 171.886 213.252 171.886C198.721 171.886 186.941 183.666 186.941 198.197C186.941 212.728 198.721 224.508 213.252 224.508Z" fill="#B9FF66"/>
<path d="M257.183 207.605L256.523 206.616L278.198 192.166L293.062 199.301L314.441 185.642L314.73 185.765L356.969 203.784L390.837 187.147L423.724 200.479L465.047 163.879L465.835 164.769L423.96 201.855L390.883 188.445L357.004 205.087L314.552 186.978L293.144 200.655L278.298 193.53L257.183 207.605Z" fill="black"/>
<path d="M260.715 223.626C259.691 223.609 258.702 224 257.965 224.712C257.229 225.425 256.806 226.401 256.79 227.425C256.773 228.45 257.164 229.439 257.876 230.175C258.589 230.911 259.565 231.334 260.589 231.35C260.631 231.351 260.673 231.351 260.715 231.35H301.125C302.139 231.334 303.105 230.92 303.816 230.198C304.527 229.475 304.926 228.502 304.926 227.488C304.926 226.474 304.527 225.501 303.816 224.778C303.105 224.056 302.139 223.642 301.125 223.626H260.715Z" fill="black"/>
<path d="M202.669 198.524C202.816 198.67 202.99 198.786 203.181 198.866C203.373 198.945 203.578 198.986 203.785 198.986C203.992 198.986 204.197 198.945 204.389 198.866C204.58 198.786 204.754 198.67 204.901 198.524L211.675 191.75V208.453C211.675 208.872 211.841 209.273 212.137 209.569C212.433 209.865 212.834 210.031 213.253 210.031C213.671 210.031 214.072 209.865 214.368 209.569C214.664 209.273 214.831 208.872 214.831 208.453V191.75L221.604 198.524C221.751 198.67 221.925 198.786 222.116 198.866C222.308 198.945 222.513 198.986 222.72 198.986C222.927 198.986 223.133 198.945 223.324 198.866C223.516 198.786 223.689 198.67 223.836 198.524C223.983 198.377 224.099 198.203 224.178 198.012C224.257 197.82 224.298 197.615 224.298 197.408C224.298 197.201 224.257 196.995 224.178 196.804C224.099 196.613 223.982 196.439 223.836 196.292L214.368 186.824C214.072 186.529 213.671 186.362 213.253 186.362C212.834 186.362 212.433 186.529 212.137 186.824L202.669 196.292C202.373 196.588 202.207 196.989 202.207 197.408C202.207 197.826 202.373 198.228 202.669 198.524Z" fill="white"/>
<path d="M2.72701 297.927C2.004 297.928 1.31085 298.215 0.799606 298.726C0.288367 299.238 0.000794072 299.931 0 300.654V393.666C0.000794072 394.389 0.288367 395.082 0.799606 395.593C1.31085 396.104 2.004 396.392 2.72701 396.393H319.883C320.606 396.392 321.299 396.104 321.81 395.593C322.322 395.082 322.609 394.389 322.61 393.666V300.654C322.609 299.931 322.322 299.238 321.81 298.726C321.299 298.215 320.606 297.928 319.883 297.927H2.72701Z" fill="#F3F3F3"/>
<path d="M6.83594 389.56H315.779V304.76H6.83594V389.56Z" fill="white"/>
<path d="M276.779 371.968C275.581 371.968 274.432 372.444 273.585 373.291C272.738 374.138 272.262 375.287 272.262 376.485C272.262 377.683 272.738 378.832 273.585 379.68C274.432 380.527 275.581 381.003 276.779 381.003H294.848C296.046 381.003 297.195 380.527 298.043 379.68C298.89 378.832 299.366 377.683 299.366 376.485C299.366 375.287 298.89 374.138 298.043 373.291C297.195 372.444 296.046 371.968 294.848 371.968H276.779Z" fill="#B9FF66"/>
<path d="M299.365 363.206H90.7773V364.395H299.365V363.206Z" fill="black"/>
<path d="M47.1782 373.471C61.7094 373.471 73.4892 361.691 73.4892 347.16C73.4892 332.628 61.7094 320.849 47.1782 320.849C32.647 320.849 20.8672 332.628 20.8672 347.16C20.8672 361.691 32.647 373.471 47.1782 373.471Z" fill="#B9FF66"/>
<path d="M91.1082 356.569L90.4492 355.58L112.124 341.129L126.987 348.264L148.367 334.601L190.895 352.742L224.762 336.105L257.645 349.442L298.968 332.842L299.756 333.732L257.886 350.821L224.809 337.411L190.93 354.053L148.478 335.944L127.071 349.622L112.221 342.494L91.1082 356.569Z" fill="black"/>
<path d="M94.6407 372.589C93.6271 372.606 92.6605 373.02 91.9494 373.742C91.2384 374.465 90.8398 375.438 90.8398 376.452C90.8398 377.466 91.2384 378.439 91.9494 379.161C92.6605 379.884 93.6271 380.298 94.6407 380.314H135.051C135.558 380.323 136.062 380.231 136.534 380.044C137.005 379.858 137.436 379.58 137.8 379.228C138.165 378.875 138.456 378.454 138.658 377.988C138.86 377.523 138.968 377.022 138.976 376.515C138.984 376.008 138.893 375.504 138.706 375.032C138.52 374.56 138.242 374.13 137.889 373.765C137.536 373.401 137.115 373.109 136.65 372.907C136.184 372.706 135.684 372.598 135.176 372.589C135.135 372.589 135.093 372.589 135.051 372.589H94.6407Z" fill="black"/>
<path d="M36.595 347.486C36.7415 347.633 36.9154 347.749 37.1069 347.829C37.2983 347.908 37.5035 347.949 37.7107 347.949C37.9179 347.949 38.1231 347.908 38.3145 347.829C38.506 347.749 38.68 347.633 38.8265 347.487L45.6004 340.713V357.416C45.6023 357.833 45.7687 358.231 46.0633 358.526C46.358 358.82 46.7569 358.986 47.1733 358.987C47.5897 358.988 47.9898 358.825 48.2863 358.533C48.5828 358.24 48.7518 357.843 48.7563 357.426V340.713L55.5302 347.486C55.8253 347.783 56.2262 347.95 56.6447 347.951C57.0632 347.953 57.465 347.787 57.7617 347.492C58.0584 347.197 58.2257 346.796 58.2267 346.378C58.2278 345.959 58.0626 345.557 57.7675 345.261L57.7617 345.255L48.2942 335.787C47.9982 335.491 47.5969 335.325 47.1784 335.325C46.7599 335.325 46.3585 335.491 46.0626 335.787L36.595 345.255C36.4485 345.401 36.3322 345.575 36.2529 345.767C36.1736 345.958 36.1328 346.163 36.1328 346.371C36.1328 346.578 36.1736 346.783 36.2529 346.975C36.3322 347.166 36.4485 347.34 36.595 347.486Z" fill="white"/>
</g>
<defs>
<clipPath id="clip0_4768_5631">
<rect width="489" height="397" fill="white"/>
</clipPath>
</defs>
</svg>
