<svg width="483" height="459" viewBox="0 0 483 459" fill="none" xmlns="http://www.w3.org/2000/svg">
<g clip-path="url(#clip0_4768_5596)">
<path d="M275.544 295.976H5.54297C4.21736 295.974 2.9465 295.447 2.00916 294.509C1.07181 293.572 0.544528 292.301 0.542969 290.976V168C0.544528 166.674 1.07181 165.404 2.00916 164.466C2.9465 163.529 4.21736 163.002 5.54297 163H275.544C276.869 163.002 278.14 163.529 279.077 164.466C280.015 165.404 280.542 166.674 280.544 168V290.976C280.542 292.301 280.015 293.572 279.077 294.509C278.14 295.447 276.869 295.974 275.544 295.976Z" fill="white"/>
<path d="M275.544 295.976H5.54297C4.21736 295.974 2.9465 295.447 2.00916 294.509C1.07181 293.572 0.544528 292.301 0.542969 290.976V168C0.544528 166.674 1.07181 165.404 2.00916 164.466C2.9465 163.529 4.21736 163.002 5.54297 163H275.544C276.869 163.002 278.14 163.529 279.077 164.466C280.015 165.404 280.542 166.674 280.544 168V290.976C280.542 292.301 280.015 293.572 279.077 294.509C278.14 295.447 276.869 295.974 275.544 295.976ZM5.54297 165C4.74759 165.001 3.98503 165.317 3.42261 165.88C2.86019 166.442 2.54384 167.205 2.54297 168V290.976C2.54384 291.771 2.86019 292.533 3.42261 293.096C3.98503 293.658 4.74759 293.975 5.54297 293.976H275.544C276.339 293.975 277.101 293.658 277.664 293.096C278.226 292.533 278.543 291.771 278.544 290.976V168C278.543 167.205 278.226 166.442 277.664 165.88C277.101 165.317 276.339 165.001 275.544 165H5.54297Z" fill="black"/>
<path d="M40.543 222.487C52.1409 222.487 61.543 213.085 61.543 201.487C61.543 189.889 52.1409 180.487 40.543 180.487C28.945 180.487 19.543 189.889 19.543 201.487C19.543 213.085 28.945 222.487 40.543 222.487Z" fill="black"/>
<path d="M89.043 187.487C88.1147 187.487 87.2245 187.856 86.5681 188.512C85.9117 189.169 85.543 190.059 85.543 190.987C85.543 191.916 85.9117 192.806 86.5681 193.462C87.2245 194.119 88.1147 194.487 89.043 194.487H254.043C254.971 194.487 255.861 194.119 256.518 193.462C257.174 192.806 257.543 191.916 257.543 190.987C257.543 190.059 257.174 189.169 256.518 188.512C255.861 187.856 254.971 187.487 254.043 187.487H89.043Z" fill="#F3F3F3"/>
<path d="M89.043 208.487C88.1147 208.487 87.2245 208.856 86.5681 209.512C85.9117 210.169 85.543 211.059 85.543 211.987C85.543 212.916 85.9117 213.806 86.5681 214.462C87.2245 215.119 88.1147 215.487 89.043 215.487H160.043C160.971 215.487 161.861 215.119 162.518 214.462C163.174 213.806 163.543 212.916 163.543 211.987C163.543 211.059 163.174 210.169 162.518 209.512C161.861 208.856 160.971 208.487 160.043 208.487H89.043Z" fill="#F3F3F3"/>
<path d="M24.4344 242.061C21.772 242.061 19.6055 243.631 19.6055 245.561C19.6055 247.49 21.772 249.061 24.4344 249.061H252.084C254.746 249.061 256.913 247.49 256.913 245.561C256.913 243.631 254.746 242.061 252.084 242.061H24.4344Z" fill="#F3F3F3"/>
<path d="M24.4344 263.061C21.772 263.061 19.6055 264.631 19.6055 266.561C19.6055 268.49 21.772 270.061 24.4344 270.061H252.084C254.746 270.061 256.913 268.49 256.913 266.561C256.913 264.631 254.746 263.061 252.084 263.061H24.4344Z" fill="#F3F3F3"/>
<path d="M477.544 132.976H207.543C206.217 132.974 204.947 132.447 204.009 131.509C203.072 130.572 202.545 129.301 202.543 127.976V5C202.545 3.6744 203.072 2.40353 204.009 1.46619C204.947 0.528842 206.217 0.00155617 207.543 0H477.544C478.869 0.00155881 480.14 0.528842 481.077 1.46619C482.015 2.40353 482.542 3.6744 482.544 5V127.976C482.542 129.301 482.015 130.572 481.077 131.509C480.14 132.447 478.869 132.974 477.544 132.976Z" fill="white"/>
<path d="M477.544 132.976H207.543C206.217 132.974 204.947 132.447 204.009 131.509C203.072 130.572 202.545 129.301 202.543 127.976V5C202.545 3.6744 203.072 2.40353 204.009 1.46619C204.947 0.528842 206.217 0.00155617 207.543 0H477.544C478.869 0.00155881 480.14 0.528842 481.077 1.46619C482.015 2.40353 482.542 3.6744 482.544 5V127.976C482.542 129.301 482.015 130.572 481.077 131.509C480.14 132.447 478.869 132.974 477.544 132.976ZM207.543 2C206.748 2.00087 205.985 2.31722 205.423 2.87964C204.86 3.44206 204.544 4.20462 204.543 5V127.976C204.544 128.771 204.86 129.534 205.423 130.096C205.985 130.658 206.748 130.975 207.543 130.976H477.544C478.339 130.975 479.101 130.658 479.664 130.096C480.226 129.534 480.543 128.771 480.544 127.976V5C480.543 4.20462 480.226 3.44206 479.664 2.87964C479.101 2.31722 478.339 2.00087 477.544 2H207.543Z" fill="black"/>
<path d="M242.543 59.4873C254.141 59.4873 263.543 50.0853 263.543 38.4873C263.543 26.8893 254.141 17.4873 242.543 17.4873C230.945 17.4873 221.543 26.8893 221.543 38.4873C221.543 50.0853 230.945 59.4873 242.543 59.4873Z" fill="black"/>
<path d="M291.043 24.4873C290.115 24.4873 289.224 24.8561 288.568 25.5124C287.912 26.1688 287.543 27.059 287.543 27.9873C287.543 28.9156 287.912 29.8058 288.568 30.4622C289.224 31.1186 290.115 31.4873 291.043 31.4873H456.043C456.971 31.4873 457.861 31.1186 458.518 30.4622C459.174 29.8058 459.543 28.9156 459.543 27.9873C459.543 27.059 459.174 26.1688 458.518 25.5124C457.861 24.8561 456.971 24.4873 456.043 24.4873H291.043Z" fill="#F3F3F3"/>
<path d="M291.043 45.4873C290.115 45.4873 289.224 45.8561 288.568 46.5124C287.912 47.1688 287.543 48.059 287.543 48.9873C287.543 49.9156 287.912 50.8058 288.568 51.4622C289.224 52.1186 290.115 52.4873 291.043 52.4873H362.043C362.971 52.4873 363.861 52.1186 364.518 51.4622C365.174 50.8058 365.543 49.9156 365.543 48.9873C365.543 48.059 365.174 47.1688 364.518 46.5124C363.861 45.8561 362.971 45.4873 362.043 45.4873H291.043Z" fill="#F3F3F3"/>
<path d="M226.434 79.0605C223.772 79.0605 221.605 80.6309 221.605 82.5605C221.605 84.4902 223.772 86.0605 226.434 86.0605H454.084C456.746 86.0605 458.913 84.4902 458.913 82.5605C458.913 80.6309 456.746 79.0605 454.084 79.0605H226.434Z" fill="#F3F3F3"/>
<path d="M226.434 100.061C223.772 100.061 221.605 101.631 221.605 103.561C221.605 105.49 223.772 107.061 226.434 107.061H454.084C456.746 107.061 458.913 105.49 458.913 103.561C458.913 101.631 456.746 100.061 454.084 100.061H226.434Z" fill="#F3F3F3"/>
<path d="M477.544 458.976H207.543C206.217 458.974 204.946 458.447 204.009 457.509C203.072 456.572 202.545 455.301 202.543 453.976V331C202.545 329.674 203.072 328.404 204.009 327.466C204.946 326.529 206.217 326.002 207.543 326H477.544C478.869 326.002 480.14 326.529 481.077 327.466C482.015 328.404 482.542 329.674 482.544 331V453.976C482.542 455.301 482.015 456.572 481.077 457.509C480.14 458.447 478.869 458.974 477.544 458.976Z" fill="white"/>
<path d="M477.544 458.976H207.543C206.217 458.974 204.946 458.447 204.009 457.509C203.072 456.572 202.545 455.301 202.543 453.976V331C202.545 329.674 203.072 328.404 204.009 327.466C204.946 326.529 206.217 326.002 207.543 326H477.544C478.869 326.002 480.14 326.529 481.077 327.466C482.015 328.404 482.542 329.674 482.544 331V453.976C482.542 455.301 482.015 456.572 481.077 457.509C480.14 458.447 478.869 458.974 477.544 458.976ZM207.543 328C206.748 328.001 205.985 328.317 205.423 328.88C204.86 329.442 204.544 330.205 204.543 331V453.976C204.544 454.771 204.86 455.534 205.423 456.096C205.985 456.658 206.748 456.975 207.543 456.976H477.544C478.339 456.975 479.101 456.658 479.664 456.096C480.226 455.534 480.543 454.771 480.544 453.976V331C480.543 330.205 480.226 329.442 479.664 328.88C479.101 328.317 478.339 328.001 477.544 328H207.543Z" fill="black"/>
<path d="M242.543 385.487C254.141 385.487 263.543 376.085 263.543 364.487C263.543 352.889 254.141 343.487 242.543 343.487C230.945 343.487 221.543 352.889 221.543 364.487C221.543 376.085 230.945 385.487 242.543 385.487Z" fill="black"/>
<path d="M291.043 350.487C290.115 350.487 289.224 350.856 288.568 351.512C287.912 352.169 287.543 353.059 287.543 353.987C287.543 354.916 287.912 355.806 288.568 356.462C289.224 357.119 290.115 357.487 291.043 357.487H456.043C456.971 357.487 457.861 357.119 458.518 356.462C459.174 355.806 459.543 354.916 459.543 353.987C459.543 353.059 459.174 352.169 458.518 351.512C457.861 350.856 456.971 350.487 456.043 350.487H291.043Z" fill="#F3F3F3"/>
<path d="M291.043 371.487C290.115 371.487 289.224 371.856 288.568 372.512C287.912 373.169 287.543 374.059 287.543 374.987C287.543 375.916 287.912 376.806 288.568 377.462C289.224 378.119 290.115 378.487 291.043 378.487H362.043C362.971 378.487 363.861 378.119 364.518 377.462C365.174 376.806 365.543 375.916 365.543 374.987C365.543 374.059 365.174 373.169 364.518 372.512C363.861 371.856 362.971 371.487 362.043 371.487H291.043Z" fill="#F3F3F3"/>
<path d="M226.434 405.061C223.772 405.061 221.605 406.631 221.605 408.561C221.605 410.49 223.772 412.061 226.434 412.061H454.084C456.746 412.061 458.913 410.49 458.913 408.561C458.913 406.631 456.746 405.061 454.084 405.061H226.434Z" fill="#F3F3F3"/>
<path d="M226.434 426.061C223.772 426.061 221.605 427.631 221.605 429.561C221.605 431.49 223.772 433.061 226.434 433.061H454.084C456.746 433.061 458.913 431.49 458.913 429.561C458.913 427.631 456.746 426.061 454.084 426.061H226.434Z" fill="#F3F3F3"/>
</g>
<defs>
<clipPath id="clip0_4768_5596">
<rect width="483" height="459" fill="white"/>
</clipPath>
</defs>
</svg>
