<svg width="561" height="493" viewBox="0 0 561 493" fill="none" xmlns="http://www.w3.org/2000/svg">
<g clip-path="url(#clip0_4768_5585)">
<path d="M556.531 485.95C555.55 487.32 554.561 488.68 553.581 490.03C550.763 491.97 547.421 493.006 544 493H17.0005C13.7321 493.002 10.533 492.058 7.79053 490.28C6.88037 489.08 5.98047 487.87 5.07031 486.66L5.98047 486.16L272.771 338.28C275.138 336.97 277.798 336.282 280.503 336.278C283.208 336.275 285.87 336.956 288.241 338.26L555.63 485.45L556.531 485.95Z" fill="#B9FF66"/>
<path d="M544 175L312.782 41.4699C303.057 35.8536 292.025 32.8942 280.795 32.8887C269.565 32.8831 258.531 35.8317 248.8 41.4384L17 175C12.4933 175.007 8.17297 176.8 4.98624 179.987C1.7995 183.173 0.00637539 187.494 0 192V476C0.00525083 480.507 1.798 484.828 4.98499 488.015C8.17197 491.202 12.4929 492.995 17 493H544C548.506 492.993 552.826 491.199 556.012 488.013C559.199 484.826 560.992 480.507 561 476V192C560.994 187.494 559.201 183.173 556.014 179.986C552.827 176.8 548.507 175.007 544 175ZM559 476C558.99 479.976 557.407 483.785 554.596 486.596C551.785 489.407 547.975 490.991 544 491H17C13.0239 490.993 9.2128 489.41 6.40131 486.599C3.58981 483.787 2.00715 479.976 2 476V192C2.00484 188.024 3.58675 184.211 6.39874 181.399C9.21074 178.587 13.0232 177.005 17 177L248.8 43.4384C258.531 37.8317 269.565 34.8831 280.795 34.8887C292.025 34.8942 303.057 37.8536 312.782 43.4699L544 177C547.977 177.005 551.789 178.587 554.601 181.399C557.413 184.211 558.995 188.024 559 192V476Z" fill="black"/>
<path d="M280.8 335.68C279.058 335.686 277.328 335.396 275.684 334.822L275.381 334.715L275.32 334.042C275.132 334.135 274.941 334.224 274.751 334.308L274.55 334.396L274.348 334.308C273.927 334.123 273.508 333.913 273.105 333.686L89 230.232V19C89.0055 14.0952 90.9564 9.39284 94.4246 5.92461C97.8928 2.45638 102.595 0.505505 107.5 0.5H453.5C458.405 0.505505 463.107 2.45638 466.575 5.92461C470.044 9.39284 471.994 14.0952 472 19V230.502L471.745 230.646L288.495 333.686C286.143 334.997 283.493 335.684 280.8 335.68Z" fill="black"/>
<path d="M280.8 336.18C279.002 336.186 277.215 335.886 275.518 335.293L274.912 335.08L274.886 334.794L274.55 334.942L274.147 334.766C273.711 334.574 273.278 334.357 272.859 334.121L88.5 230.525V19C88.5057 13.9626 90.5093 9.13323 94.0713 5.57127C97.6332 2.00932 102.463 0.00570109 107.5 0H453.5C458.537 0.00572222 463.367 2.00934 466.929 5.57129C470.491 9.13324 472.494 13.9626 472.5 19V230.795L288.74 334.122C286.313 335.475 283.579 336.184 280.8 336.18ZM276.786 333.604C280.463 334.659 284.408 334.219 287.761 332.378L470.5 229.625V19C470.495 14.4929 468.702 10.1718 465.515 6.98479C462.328 3.79777 458.007 2.00507 453.5 2H107.5C102.993 2.00505 98.6718 3.79775 95.4848 6.98477C92.2977 10.1718 90.5051 14.4929 90.5 19V229.354L102.49 236.088L273.84 332.378C274.073 332.51 274.31 332.633 274.55 332.749C274.79 332.633 275.027 332.51 275.259 332.379L276.606 331.62L276.786 333.604Z" fill="black"/>
<path d="M556.568 182.38L483.998 223.18L471.498 230.21L288.248 333.25C285.971 334.52 283.406 335.184 280.798 335.18C279.113 335.185 277.44 334.904 275.849 334.35C275.406 334.208 274.972 334.042 274.548 333.85C274.139 333.67 273.739 333.47 273.349 333.25L101.998 236.96L89.4984 229.94L4.57848 182.22C4.34758 182.088 4.1782 181.869 4.10708 181.613C4.03596 181.356 4.06884 181.082 4.1986 180.85C4.32872 180.619 4.545 180.45 4.79995 180.379C5.0549 180.307 5.32769 180.34 5.55846 180.47L89.4984 227.64L101.998 234.66L274.328 331.5C274.9 331.821 275.495 332.098 276.108 332.33C276.369 332.43 276.639 332.52 276.909 332.6C278.62 333.125 280.421 333.299 282.201 333.11C283.981 332.921 285.705 332.373 287.268 331.5L471.498 227.92L483.998 220.89L555.588 180.64C555.703 180.576 555.828 180.534 555.958 180.519C556.089 180.503 556.221 180.513 556.347 180.548C556.473 180.584 556.591 180.643 556.695 180.724C556.798 180.805 556.884 180.906 556.948 181.02C557.013 181.134 557.054 181.26 557.07 181.39C557.085 181.52 557.075 181.652 557.04 181.779C557.005 181.905 556.945 182.023 556.864 182.126C556.783 182.229 556.682 182.316 556.568 182.38Z" fill="black"/>
<path d="M164.074 66H136.074C133.952 66 131.918 65.1572 130.417 63.6569C128.917 62.1566 128.074 60.1217 128.074 58C128.074 55.8783 128.917 53.8434 130.417 52.3431C131.918 50.8428 133.952 50 136.074 50H164.074C166.196 50 168.231 50.8428 169.731 52.3431C171.231 53.8434 172.074 55.8783 172.074 58C172.074 60.1217 171.231 62.1566 169.731 63.6569C168.231 65.1572 166.196 66 164.074 66Z" fill="#B9FF66"/>
<path d="M197.074 93H136.074C133.952 93 131.918 92.1572 130.417 90.6569C128.917 89.1566 128.074 87.1217 128.074 85C128.074 82.8783 128.917 80.8434 130.417 79.3431C131.918 77.8428 133.952 77 136.074 77H197.074C199.196 77 201.231 77.8428 202.731 79.3431C204.231 80.8434 205.074 82.8783 205.074 85C205.074 87.1217 204.231 89.1566 202.731 90.6569C201.231 92.1572 199.196 93 197.074 93Z" fill="white"/>
<path d="M367.5 165H194.5C192.378 165 190.343 164.157 188.843 162.657C187.343 161.157 186.5 159.122 186.5 157C186.5 154.878 187.343 152.843 188.843 151.343C190.343 149.843 192.378 149 194.5 149H367.5C369.622 149 371.657 149.843 373.157 151.343C374.657 152.843 375.5 154.878 375.5 157C375.5 159.122 374.657 161.157 373.157 162.657C371.657 164.157 369.622 165 367.5 165Z" fill="#B9FF66"/>
<path d="M383.5 196H177.5C175.378 196 173.343 195.157 171.843 193.657C170.343 192.157 169.5 190.122 169.5 188C169.5 185.878 170.343 183.843 171.843 182.343C173.343 180.843 175.378 180 177.5 180H383.5C385.622 180 387.657 180.843 389.157 182.343C390.657 183.843 391.5 185.878 391.5 188C391.5 190.122 390.657 192.157 389.157 193.657C387.657 195.157 385.622 196 383.5 196Z" fill="white"/>
<path d="M383.5 226H177.5C175.378 226 173.343 225.157 171.843 223.657C170.343 222.157 169.5 220.122 169.5 218C169.5 215.878 170.343 213.843 171.843 212.343C173.343 210.843 175.378 210 177.5 210H383.5C385.622 210 387.657 210.843 389.157 212.343C390.657 213.843 391.5 215.878 391.5 218C391.5 220.122 390.657 222.157 389.157 223.657C387.657 225.157 385.622 226 383.5 226Z" fill="white"/>
</g>
<defs>
<clipPath id="clip0_4768_5585">
<rect width="561" height="493" fill="white"/>
</clipPath>
</defs>
</svg>
