<svg width="24" height="24" viewBox="0 0 24 24" fill="none" xmlns="http://www.w3.org/2000/svg">
<path fill-rule="evenodd" clip-rule="evenodd" d="M11.6231 4.86472C7.27269 4.86472 3.74601 8.39141 3.74601 12.7418C3.74601 17.0922 7.27269 20.6189 11.6231 20.6189C15.9735 20.6189 19.5002 17.0922 19.5002 12.7418C19.5002 12.1247 19.4294 11.5253 19.2959 10.9508C19.1864 10.4799 19.4794 10.0095 19.9502 9.90013C20.4211 9.7907 20.8915 10.0837 21.0009 10.5545C21.1644 11.258 21.2506 11.9904 21.2506 12.7418C21.2506 18.0589 16.9402 22.3693 11.6231 22.3693C6.30594 22.3693 1.99554 18.0589 1.99554 12.7418C1.99554 7.42465 6.30594 3.11426 11.6231 3.11426C12.0013 3.11426 12.3747 3.1361 12.7421 3.17867C13.2223 3.23431 13.5664 3.66866 13.5108 4.14882C13.4551 4.62899 13.0208 4.97314 12.5406 4.9175C12.2399 4.88267 11.9338 4.86472 11.6231 4.86472Z" fill="#2937B1"/>
<path fill-rule="evenodd" clip-rule="evenodd" d="M22.0816 2.35676C22.4396 2.80826 22.7624 4.51291 21.5286 5.43034C15.815 9.67902 13.4893 14.019 12.5102 16.7308C12.3365 17.2119 11.9996 17.8391 11.4836 17.9052C10.8385 17.9878 10.3951 17.4224 10.1013 17.0012L6.87573 12.4813C6.44463 11.8633 6.11725 10.4022 7.06003 9.76941C7.6901 9.34654 8.37992 9.96494 8.81102 10.583L10.9176 13.4617C12.487 10.2613 13.603 7.32752 19.409 2.80826C20.5703 1.90437 21.6129 1.76563 22.0816 2.35676Z" fill="#2937B1"/>
</svg>
