<svg width="30" height="30" viewBox="0 0 30 30" fill="none" xmlns="http://www.w3.org/2000/svg">
<path fill-rule="evenodd" clip-rule="evenodd" d="M13.9999 6.10039C8.53228 6.10039 4.0999 10.5328 4.0999 16.0004C4.0999 21.468 8.53228 25.9004 13.9999 25.9004C19.4675 25.9004 23.8999 21.468 23.8999 16.0004C23.8999 15.2249 23.8109 14.4715 23.6431 13.7494C23.5056 13.1577 23.8738 12.5665 24.4656 12.4289C25.0573 12.2914 25.6485 12.6596 25.786 13.2514C25.9915 14.1356 26.0999 15.056 26.0999 16.0004C26.0999 22.683 20.6825 28.1004 13.9999 28.1004C7.31726 28.1004 1.8999 22.683 1.8999 16.0004C1.8999 9.31775 7.31726 3.90039 13.9999 3.90039C14.4752 3.90039 14.9445 3.92785 15.4063 3.98135C16.0098 4.05127 16.4423 4.59717 16.3724 5.20064C16.3024 5.80412 15.7565 6.23665 15.1531 6.16673C14.7752 6.12294 14.3904 6.10039 13.9999 6.10039Z" fill="#A4A4A4"/>
<path fill-rule="evenodd" clip-rule="evenodd" d="M23.4066 5.91293C24.0098 6.63392 24.3116 8.5237 22.8119 9.77835C19.5245 12.5286 18.1755 13.3186 16.0155 15.7677C16.7181 16.345 17.2992 16.8403 18.2522 17.5392C18.8343 17.966 19.6571 18.3221 20.4119 18.8898C21.3047 19.5612 20.9769 20.8146 20.4119 21.5659C19.8469 22.3172 18.3597 22.3008 17.6084 21.7358C15.8031 20.3781 14.9644 19.3895 13.6975 18.3525C12.8645 19.4897 12.4311 20.1565 11.7465 21.3962C11.2921 22.2191 10.2756 22.3553 9.45272 21.9008C8.62984 21.4464 8.48856 20.1799 8.94299 19.3571C9.77464 17.8511 10.2643 17.2265 11.2793 15.8739C10.2417 14.7221 9.61107 14.2568 8.26334 12.2633C7.73685 11.4845 7.86685 10.0399 8.6456 9.51344C9.42434 8.98695 10.2855 9.23323 10.812 10.012C11.9434 11.6855 12.555 12.1955 13.3607 13.1341C15.666 10.5397 17.4858 8.44402 20.773 5.69394C21.494 5.09076 22.4258 4.7406 23.4066 5.91293Z" fill="#A4A4A4"/>
</svg>
