<svg width="160" height="30" viewBox="0 0 160 30" fill="none" xmlns="http://www.w3.org/2000/svg">
<path d="M15 0L19.2497 9.15081L29.2658 10.3647L21.8761 17.2342L23.8168 27.1353L15 22.23L6.18322 27.1353L8.12386 17.2342L0.734152 10.3647L10.7503 9.15081L15 0Z" fill="#FFC703"/>
<path d="M47.5 0L51.7497 9.15081L61.7658 10.3647L54.3761 17.2342L56.3168 27.1353L47.5 22.23L38.6832 27.1353L40.6239 17.2342L33.2342 10.3647L43.2503 9.15081L47.5 0Z" fill="#FFC703"/>
<path d="M80 0L84.2497 9.15081L94.2658 10.3647L86.8761 17.2342L88.8168 27.1353L80 22.23L71.1832 27.1353L73.1239 17.2342L65.7342 10.3647L75.7503 9.15081L80 0Z" fill="#FFC703"/>
<path d="M112.5 0L116.75 9.15081L126.766 10.3647L119.376 17.2342L121.317 27.1353L112.5 22.23L103.683 27.1353L105.624 17.2342L98.2342 10.3647L108.25 9.15081L112.5 0Z" fill="#FFC703"/>
<path d="M145 0L149.25 9.15081L159.266 10.3647L151.876 17.2342L153.817 27.1353L145 22.23L136.183 27.1353L138.124 17.2342L130.734 10.3647L140.75 9.15081L145 0Z" fill="#FFC703"/>
</svg>
