<svg width="90" height="90" viewBox="0 0 90 90" fill="none" xmlns="http://www.w3.org/2000/svg">
<rect width="90" height="90" rx="16" fill="#FAE084"/>
<path d="M32.0766 36.5427C31.5395 36.7185 31.0707 37.0017 30.4652 37.5095C29.85 38.0271 29.4984 38.5349 29.2152 39.3063C29.0297 39.8142 29.0004 40.0583 29.0395 40.7712C29.0883 41.8063 29.352 42.4021 30.0453 43.0368C30.9828 43.906 32.0863 44.1892 33.6586 43.9743C35.3383 43.7399 36.4418 43.0075 37.0375 41.7478C37.9164 39.863 37.1156 37.7243 35.1723 36.7673C34.6059 36.4841 34.4496 36.4548 33.5121 36.4353C32.8481 36.4157 32.3402 36.4548 32.0766 36.5427ZM34.6449 37.7731C36.725 38.7888 36.7836 41.5134 34.7328 42.5095C33.6098 43.0661 32.35 42.9001 31.4516 42.0896C30.8461 41.5524 30.5727 41.0349 30.5141 40.2927C30.4652 39.7946 30.4945 39.6481 30.7777 39.0817C31.1195 38.3688 31.5981 37.9587 32.4184 37.6462C33.0336 37.4118 34.0102 37.4704 34.6449 37.7731Z" fill="#141414"/>
<path d="M59.4203 39.043C58.3266 39.4824 57.4086 40.7227 57.2817 41.9238C57.1547 43.125 57.6723 44.0625 58.7465 44.6094C59.4008 44.9414 59.4594 44.9512 60.5043 44.9512C61.4711 44.9512 61.6469 44.9219 62.1352 44.6973C62.8188 44.375 63.3754 43.8281 63.6879 43.1934C64.0199 42.5 64.0199 41.3477 63.6879 40.6543C63.3852 40.0293 62.7992 39.4434 62.1742 39.1504C61.4809 38.8086 60.143 38.7598 59.4203 39.043ZM61.3344 40.166C61.9496 40.4688 62.5551 41.1621 62.7113 41.7383C62.8285 42.1289 62.8188 42.2363 62.6528 42.6367C62.4184 43.1934 61.8324 43.6621 61.1586 43.8281C60.7485 43.9258 60.5824 43.916 60.1332 43.7891C58.5317 43.3203 58.0531 41.5723 59.2543 40.5273C59.9477 39.9023 60.602 39.7949 61.3344 40.166Z" fill="#141414"/>
<path d="M46.3246 41.143C45.9828 41.2211 45.2406 41.5043 44.6644 41.7875C43.3558 42.4223 42.6137 43.1254 42.0766 44.2191C40.7387 46.9437 41.598 49.7758 44.1566 51.0453C45.0258 51.4848 45.5726 51.5922 46.7933 51.5824C47.8773 51.5726 47.9652 51.5629 49.0883 51.143C50.8363 50.4887 51.6078 49.9223 52.3109 48.7601C53.2289 47.2367 53.2875 45.4789 52.4965 43.848C52.1547 43.1449 51.1098 42.1 50.3383 41.6996C49.1176 41.0551 47.6527 40.8598 46.3246 41.143ZM49.4496 42.5297C51.1293 43.3109 52.1742 45.1078 51.8812 46.6996C51.5687 48.3695 50.4066 49.5805 48.6976 50.0297C46.3148 50.6449 43.8441 49.1117 43.3656 46.7289C43.0726 45.2738 43.8832 43.6137 45.2894 42.7934C46.1781 42.2758 46.6371 42.1586 47.7699 42.1976C48.6781 42.2269 48.8734 42.266 49.4496 42.5297Z" fill="#141414"/>
<path d="M32.0961 44.5703C31.0609 44.7363 29.0395 45.5567 28.0043 46.25C27.1547 46.8067 25.8461 48.0469 25.2016 48.9063C24.5766 49.7363 23.932 50.9961 23.6098 52.002C23.3461 52.8418 23.3559 53.0664 23.6293 53.125C23.7172 53.1348 27.477 53.1348 31.9789 53.1055L40.1723 53.0567L40.3578 52.8125C40.4555 52.6758 40.6313 52.4805 40.7387 52.3731C40.8461 52.2559 40.934 52.0606 40.934 51.9238C40.934 51.5625 39.9379 49.0918 39.4594 48.291C38.4438 46.5625 36.6664 45.2344 34.7523 44.7656C34.0688 44.5899 32.6332 44.4922 32.0961 44.5703ZM34.4106 45.8692C36.7543 46.4746 38.307 48.0078 39.3324 50.7227L39.557 51.3281L38.4633 51.3867C37.8578 51.416 34.7914 51.4551 31.6371 51.4746C26.7934 51.5137 25.8949 51.4942 25.8949 51.377C25.8949 51.084 26.5199 49.8926 27.0277 49.2285C28.2582 47.627 30.1234 46.2403 31.6176 45.8301C32.3305 45.6348 33.5609 45.6543 34.4106 45.8692Z" fill="#141414"/>
<path d="M59.0492 45.918C58.2875 46.1328 58.0727 46.2305 57.1156 46.7969C55.1137 47.9785 53.7367 49.5898 53.0824 51.5039C52.936 51.9336 52.8383 52.3633 52.8774 52.4512C52.936 52.6074 53.3949 52.6172 59.1762 52.6172C62.6137 52.6172 65.5434 52.5879 65.6996 52.5586C65.8559 52.5293 66.1391 52.3828 66.3246 52.2266C66.5883 52.0117 66.6567 51.8945 66.6469 51.6309C66.6274 51.2305 65.8852 49.4141 65.4262 48.6426C64.7426 47.5 63.4535 46.4844 62.1254 46.0645C61.3051 45.8008 59.7328 45.7227 59.0492 45.918ZM61.1977 47.002C62.9848 47.3828 64.2055 48.457 65.016 50.3711L65.3285 51.123L60.143 51.1719C57.2817 51.2012 54.9379 51.2207 54.9184 51.2012C54.9086 51.1914 55.0453 50.8789 55.2406 50.5078C56.0219 48.9258 58.0824 47.2559 59.5961 46.9629C60.2211 46.8359 60.436 46.8457 61.1977 47.002Z" fill="#141414"/>
<path d="M46.0609 52.5781C44.8891 52.7441 44.3813 52.8516 43.5316 53.1152C41.1098 53.8574 39.2152 55.0781 37.2523 57.1484C35.5531 58.9453 34.4106 60.9375 33.6977 63.3496C33.5316 63.9355 33.5219 64.0039 33.6684 64.2188L33.8246 64.4629L45.3676 64.4141C54.3617 64.375 56.9594 64.3359 57.1645 64.2383C57.477 64.0918 58.0238 63.0957 58.0238 62.6758C58.0238 62.334 57.184 60.0977 56.559 58.7988C55.016 55.5566 52.4379 53.4668 49.0981 52.7539C48.3949 52.6074 46.5981 52.5 46.0609 52.5781ZM49.4594 54.0234C51.9398 54.7656 53.8051 56.2402 55.1332 58.5254C55.5922 59.3262 56.725 62.0508 56.6273 62.1484C56.559 62.2266 36.8324 62.4121 36.7641 62.3438C36.5883 62.168 37.4086 60.2734 38.102 59.2578C39.3129 57.4707 41.9496 55.2148 43.8051 54.375C44.977 53.8379 45.7973 53.6914 47.2816 53.7305C48.3461 53.7598 48.766 53.8184 49.4594 54.0234Z" fill="#141414"/>
<path d="M46.7795 27.3296C46.6905 27.3932 46.2838 28.1495 45.7181 29.319L44.7965 31.2003L43.2075 31.1749C42.3368 31.1686 41.5486 31.1749 41.4596 31.194C41.1482 31.2766 40.9575 31.8105 41.1228 32.141C41.1609 32.2173 41.7584 32.8529 42.4512 33.552L43.7096 34.8232L43.1376 36.7109C42.7435 38.0075 42.5783 38.6558 42.6037 38.7639C42.6927 39.1071 43.0804 39.3168 43.3982 39.1961C43.4935 39.1643 44.2944 38.605 45.1842 37.963C46.074 37.3147 46.9003 36.7236 47.0147 36.641L47.2244 36.4948L49.0486 37.7024C50.9236 38.9482 51.0952 39.0499 51.413 39.0499C51.8134 39.0499 51.7498 38.5986 51.0253 36.4058C50.752 35.5668 50.5232 34.8359 50.5232 34.7787C50.5232 34.7279 51.0952 34.1495 51.788 33.4821C52.4871 32.8211 53.0909 32.2173 53.1227 32.1347C53.2371 31.8868 53.2053 31.677 53.0147 31.4927C52.824 31.2957 52.8431 31.302 50.5867 31.194L49.7287 31.1559L49.2965 30.3487C49.0613 29.9101 48.6291 29.0902 48.3304 28.5309C48.0316 27.9715 47.7202 27.4504 47.6312 27.3677C47.4342 27.1961 47.002 27.1771 46.7795 27.3296ZM47.9299 30.6283C48.2287 31.1495 48.5528 31.7342 48.6545 31.9186C48.9151 32.408 48.9977 32.4397 50.2117 32.4397H51.235L50.3388 33.3931C49.8431 33.9143 49.4363 34.391 49.4363 34.4546C49.4172 34.6897 49.4617 34.8041 50.0401 36.2596C50.3706 37.0795 50.6312 37.7596 50.6185 37.7723C50.6058 37.7851 49.913 37.2702 49.0804 36.6283C48.2477 35.9927 47.4914 35.427 47.4024 35.3825C47.1672 35.2618 47.091 35.2999 45.6863 36.2215C45.0189 36.6601 44.4596 37.0096 44.4469 36.9969C44.4342 36.9906 44.5995 36.444 44.8092 35.7829C45.1461 34.7406 45.1842 34.569 45.127 34.391C45.0825 34.2702 44.7901 33.9207 44.4151 33.552C44.0656 33.2025 43.7223 32.8465 43.6588 32.7575L43.5444 32.5986H44.5423C45.3431 32.5986 45.5719 32.5796 45.6609 32.5033C45.7244 32.4525 46.1058 31.7406 46.5062 30.9207C47.1418 29.605 47.2372 29.4525 47.3071 29.5542C47.3516 29.6241 47.6312 30.1008 47.9299 30.6283Z" fill="#141414"/>
<path d="M34.8139 25.7065C34.7396 25.7803 34.431 26.3304 34.1338 26.926L33.5852 28.0093H33.2538C33.0766 28.015 32.568 28.0377 32.1279 28.0604C31.3622 28.1114 31.3279 28.1171 31.2021 28.2646C31.1107 28.3667 31.0707 28.4858 31.0707 28.6446C31.0707 28.8715 31.0936 28.9055 31.9336 29.7052L32.8023 30.5333L32.3565 31.7244C31.8822 32.9949 31.7451 33.6189 31.9051 33.7947C32.0479 33.9422 32.4651 33.7663 33.8481 32.9666C34.5796 32.5525 35.1911 32.2065 35.2082 32.2065C35.2254 32.2065 35.8769 32.6036 36.6541 33.0857C37.8485 33.8287 38.0942 33.9648 38.2828 33.9648C38.5685 33.9648 38.8428 33.721 38.8428 33.4657C38.8428 33.3409 38.2999 31.8209 37.8428 30.6638C37.8142 30.59 37.9971 30.3688 38.5743 29.7846C38.9971 29.3536 39.3686 28.9452 39.4086 28.8771C39.5629 28.5822 39.4086 28.1625 39.1 28.032C38.9571 27.9753 38.6371 27.9526 37.877 27.9526H36.8484L36.294 26.8693C35.9854 26.2794 35.6768 25.7406 35.5968 25.6782C35.3911 25.5193 34.9911 25.5307 34.8139 25.7065ZM36.0426 29.0586C36.1455 29.1551 36.2655 29.1777 36.7627 29.1891L37.3513 29.2118L36.9284 29.6882C36.4083 30.2667 36.3912 30.3688 36.7055 31.1175C36.8198 31.3898 36.957 31.7301 37.0141 31.8719L37.1227 32.1385L36.2655 31.662C35.6768 31.3387 35.3454 31.1856 35.2197 31.1856C35.0768 31.1856 34.8825 31.2934 34.4367 31.5997C32.968 32.6149 32.7109 32.7908 32.7394 32.7397C32.7566 32.7113 33.0023 32.1895 33.2938 31.577C33.7681 30.5674 33.8138 30.4539 33.7567 30.3008C33.7224 30.2157 33.4881 29.9151 33.2366 29.6428L32.7737 29.1437H33.3966C34.3281 29.1437 34.311 29.1551 34.9854 27.9299L35.2025 27.5329L35.5568 28.2419C35.7569 28.6276 35.974 28.9962 36.0426 29.0586Z" fill="#141414"/>
<path d="M58.1579 25.6325C58.0436 25.6896 57.9294 25.8152 57.8608 25.9637C57.798 26.0894 57.5523 26.6091 57.3181 27.1116L56.8896 28.0254L55.7126 28.0825C54.5757 28.1396 54.5243 28.1453 54.4214 28.2767C54.3529 28.3566 54.3129 28.4994 54.3129 28.6422C54.3129 28.8649 54.3472 28.9106 55.1642 29.733L56.0097 30.5954L55.5641 31.9374C55.107 33.2967 55.0328 33.685 55.1984 33.8221C55.267 33.8792 55.3927 33.8392 55.8955 33.5822C56.2383 33.4109 56.9296 33.0225 57.438 32.7198C57.9465 32.4172 58.3921 32.1659 58.4207 32.1659C58.455 32.1659 59.1063 32.5714 59.8719 33.0625C61.1059 33.862 61.283 33.9591 61.5001 33.9648C61.8201 33.9648 62.0257 33.7535 62.0257 33.4337C62.0257 33.3081 61.8201 32.6799 61.523 31.8975L61.0202 30.5782L61.8658 29.7273C62.6828 28.9049 62.7113 28.8649 62.7113 28.6365C62.7113 28.5108 62.6828 28.3338 62.6428 28.2538C62.5171 27.974 62.3571 27.9397 61.1459 27.9397H60.0318L59.4834 26.8546C59.1691 26.2379 58.872 25.7296 58.8035 25.6839C58.5978 25.5468 58.3579 25.5297 58.1579 25.6325ZM59.3005 29.0819C59.4491 29.1733 59.5862 29.1962 60.0547 29.1962H60.6203L60.2147 29.6073C59.7747 30.0585 59.6833 30.2013 59.6833 30.4126C59.6833 30.4926 59.8262 30.898 59.9976 31.3149C60.169 31.7318 60.3118 32.0802 60.3118 32.0859C60.3118 32.0973 59.9347 31.886 59.4719 31.6176C58.8435 31.2635 58.575 31.1379 58.4264 31.1379C58.2607 31.1436 58.0379 31.275 57.1981 31.8803C56.6325 32.2801 56.164 32.6056 56.1526 32.5942C56.1411 32.5885 56.3297 32.1259 56.5639 31.5776C56.8039 31.0294 56.9981 30.4983 56.9981 30.4012C56.9981 30.2584 56.9296 30.1385 56.701 29.8929C56.5353 29.7159 56.324 29.4817 56.2268 29.3789L56.0554 29.1904L56.7467 29.2076C57.3295 29.219 57.4552 29.2076 57.5866 29.1219C57.6894 29.0591 57.8665 28.7735 58.0893 28.3224L58.4378 27.6256L58.7749 28.2995C59.032 28.8078 59.1577 28.9963 59.3005 29.0819Z" fill="#141414"/>
</svg>
