<svg width="120" height="120" viewBox="0 0 120 120" fill="none" xmlns="http://www.w3.org/2000/svg">
<path opacity="0.2" d="M96.5 56.0001C102.344 80.7491 107.117 75.2986 94.5 86.0001C72.8223 104.388 20.5963 89.2435 18.5 63.5002C16.2878 36.334 58.6668 13.73 80 17.0001C94.8541 19.2771 90.9224 32.3788 96.5 56.0001Z" fill="#7380F7"/>
<path d="M20.5535 9.72846C20.2901 9.82426 19.9548 10.0638 19.859 10.2314C19.7392 10.3991 19.5955 11.9319 19.4997 13.6563C19.3081 17.2249 19.4997 17.8477 20.7212 17.8477C21.9187 17.8477 22.0863 17.4644 22.254 13.9198C22.4456 10.5667 22.3258 9.87217 21.4876 9.65661C21.2481 9.58476 20.8409 9.60871 20.5535 9.72846Z" fill="#2937B1"/>
<path d="M11.1889 12.3872C10.4704 13.3213 10.6141 13.6805 13.057 17.345C15.5718 21.0812 16.0748 21.5363 17.1046 20.9854C18.2303 20.3627 18.0387 19.6921 15.8113 16.339C14.6617 14.5907 13.4881 12.9381 13.2247 12.6267C12.6978 12.0519 11.5721 11.9082 11.1889 12.3872Z" fill="#2937B1"/>
<path d="M30.7084 14.5904C27.8823 15.5963 26.1339 18.0632 25.631 21.7037L25.4873 22.8054L23.4754 22.9491C20.2182 23.1886 18.2063 24.3622 17.0328 26.7093C15.8113 29.1283 12.8414 47.2827 10.1829 68.5507C9.53627 73.8198 8.98541 78.2985 8.98541 78.4662C8.98541 79.3284 17.1286 87.3278 19.0446 88.3816C19.7631 88.7648 25.9184 89.3396 33.2951 89.6989C36.0733 89.8426 40.6479 90.1061 43.474 90.2977C56.8863 91.2317 66.0353 91.6149 74.6335 91.6149H79.8308L79.9984 93.4591C80.4295 98.0336 81.9863 101.267 85.6747 105.315C87.7104 107.518 90.1055 108.979 93.0993 109.817C95.4943 110.488 99.3983 110.488 101.985 109.841C108.523 108.165 113.505 102.584 114.727 95.5667C115.158 93.0759 115.182 91.9263 114.822 89.627C113.816 83.1365 109.05 77.2207 103.47 75.4963L101.721 74.9694L101.578 72.5743C101.506 71.2571 101.338 62.4194 101.195 52.935C100.835 28.8648 100.739 27.9308 98.7755 24.937C97.9133 23.6436 97.0751 22.997 95.2309 22.2545C94.1052 21.7755 93.4585 21.6797 91.1114 21.6797H88.3332L88.0218 20.578C87.6146 19.1649 86.1058 16.8896 85.028 16.0753C83.567 14.9496 82.2737 14.4946 80.5253 14.4946C78.5374 14.4946 77.4597 14.9257 76.0945 16.243C74.8491 17.4405 74.4419 18.159 73.7713 20.3624L73.2444 22.039H68.8854H64.5025L64.0953 20.7217C63.5205 18.9015 62.9936 17.9674 61.844 16.722C60.3112 15.0694 59.0657 14.4467 56.9821 14.303C54.7786 14.1593 53.4853 14.6143 52.0962 15.9556C50.8987 17.1291 49.773 19.3805 49.5814 21.0809L49.4137 22.3264L47.9767 22.494C47.1624 22.5659 45.1985 22.6377 43.5938 22.6377H40.6718L40.5042 21.6318C40.0491 18.7578 37.3906 15.4765 34.8519 14.6622C33.3669 14.1832 31.9539 14.1593 30.7084 14.5904ZM58.7304 17.6321C59.7603 18.2787 60.6465 19.4284 61.1973 20.9133L61.6524 22.1108L60.7662 22.2545C60.2872 22.3264 58.1796 22.3982 56.1198 22.3982H52.3357V21.6797C52.3357 20.1229 53.653 17.9674 55.0181 17.2728C56.0001 16.7699 57.5808 16.9136 58.7304 17.6321ZM34.8998 17.8237C36.0494 18.5422 36.9595 19.8355 37.5822 21.5839L37.9175 22.5659L35.3788 22.7335C33.9897 22.8054 31.8581 22.8772 30.6126 22.8772H28.3853V22.1827C28.3853 21.2965 28.9601 19.6679 29.6067 18.7578C30.8761 16.9854 32.9837 16.6262 34.8998 17.8237ZM81.9863 17.5123C82.4653 17.7039 83.1838 18.159 83.5431 18.5183C84.2137 19.141 85.3873 21.1768 85.3873 21.6797C85.3873 21.8234 83.8065 21.9192 80.8367 21.9192C78.3458 21.9192 76.2861 21.8234 76.2861 21.7037C76.2861 21.5839 76.4538 21.0331 76.6454 20.4582C77.6273 17.7039 79.711 16.5543 81.9863 17.5123ZM94.3447 24.9849C94.7279 25.2244 95.2548 25.7034 95.5422 26.0626C96.0212 26.6853 96.0691 27.1883 96.2607 33.1999C96.3805 36.7445 96.4284 39.6904 96.3805 39.7623C96.3087 39.8102 84.2616 39.9778 69.58 40.1215C54.8984 40.2652 37.6062 40.4808 31.1635 40.6005C24.7208 40.7442 19.4038 40.7921 19.3559 40.7442C19.1883 40.5766 18.9727 29.8708 19.1404 29.0325C19.332 27.9547 20.5295 26.5177 21.6073 26.0866C22.1581 25.8471 24.5292 25.7034 30.2773 25.6076L38.2049 25.4399L38.0612 26.2542C37.7978 27.835 36.9356 29.9905 36.1452 31.0683C35.4506 32.0502 35.259 32.17 34.4447 32.17C33.7262 32.17 33.4148 32.3376 32.864 32.9364C32.2413 33.6549 32.1694 33.8465 32.2652 35.0201C32.4089 36.7445 33.2951 37.7265 34.7082 37.7265C36.1931 37.7025 36.9356 36.9122 37.0553 35.3075C37.0793 34.7806 37.3906 34.1339 37.9175 33.5352C39.4264 31.7389 40.8395 28.0984 40.8395 25.9908V25.2723H45.2224C47.6414 25.2723 52.4075 25.2004 55.8085 25.1046L61.9877 24.9609L61.844 26.1345C61.6524 27.7631 60.8381 29.8708 59.904 31.0922C59.2573 31.9305 58.9939 32.0981 58.2514 32.1221C57.0539 32.17 56.2396 32.7688 55.9043 33.8944C55.3295 35.8105 56.5031 37.7265 58.2514 37.7265C58.7065 37.7265 59.2813 37.6067 59.5687 37.463C60.0956 37.1756 60.7183 35.8823 60.7183 35.068C60.7183 34.7806 61.1015 34.11 61.5805 33.607C62.802 32.2418 64.0474 29.4636 64.5025 27.0925L64.8857 25.0567L66.5622 24.937C67.4963 24.8651 72.2385 24.7454 77.1004 24.6735L85.9381 24.5298L85.8184 26.1824C85.6986 27.9068 84.9082 29.9905 83.8544 31.3796C83.3515 32.0023 83.1599 32.1221 82.4414 32.0263C81.7947 31.9544 81.4594 32.0742 80.8606 32.6251C78.9685 34.3016 80.1421 37.7265 82.609 37.7265C83.5431 37.7265 84.6687 36.5769 84.8364 35.4512C84.9322 34.8764 85.2915 34.1339 85.7465 33.607C87.3991 31.667 88.7403 28.0505 88.7403 25.6076V24.5777L90.4887 24.4819C92.6442 24.3861 93.4585 24.4819 94.3447 24.9849ZM96.644 44.3608C96.644 45.8696 97.123 62.8744 97.4104 72.6222L97.4822 74.5622L95.8057 74.8257C89.842 75.7119 84.5729 79.3523 81.9863 84.334L81.2199 85.8189L79.3039 85.9626C64.6222 87.1123 56.8144 87.3997 44.3123 87.232C35.3069 87.1123 28.0739 86.7769 22.0384 86.1542L20.3619 85.9866L19.835 64.9102C19.5475 53.3182 19.3559 43.8099 19.3799 43.762C19.5475 43.6183 41.4143 43.2351 63.5924 42.9956C76.9567 42.8519 88.7643 42.7082 89.8181 42.6842C90.8719 42.6363 92.8358 42.5884 94.201 42.5645L96.644 42.5166V44.3608ZM17.0088 61.4135C17.2004 69.365 17.3202 75.9274 17.2483 75.9993C17.0807 76.1909 12.2906 76.5741 12.1469 76.4064C11.9313 76.1909 14.8533 53.8212 16.4579 43.4267C16.5298 42.9477 16.6256 45.7978 17.0088 61.4135ZM101.338 78.8015C105.027 79.9511 108.116 82.6814 109.817 86.2261C110.894 88.4774 111.254 90.0342 111.254 92.4053C111.254 97.0038 108.667 101.698 104.715 104.309C101.171 106.632 96.5242 107.207 92.5724 105.841C90.0097 104.955 88.1655 103.734 86.4411 101.842C84.1179 99.2551 82.7527 95.7584 82.7527 92.3334C82.7527 86.4895 86.6087 80.957 92.0455 78.9931C95.2548 77.8195 98.1049 77.7716 101.338 78.8015ZM17.4878 81.1007C17.5597 82.2982 17.6076 83.3041 17.5597 83.352C17.5118 83.3999 16.4579 82.5138 15.2125 81.3642L12.9612 79.2805L14.1587 79.1368C14.8054 79.0649 15.7873 78.9691 16.3142 78.9691L17.2962 78.9212L17.4878 81.1007Z" fill="#2937B1"/>
<path d="M76.3341 52.3363C74.2504 52.6477 74.2983 52.5759 74.4899 57.1264C74.6575 61.2459 74.8971 62.7548 75.4 62.9224C75.5437 62.9943 78.0346 62.9703 80.9086 62.8985C85.7226 62.7548 86.1777 62.7069 86.4891 62.2997C86.7525 61.9405 86.8244 60.8627 86.8244 57.5096C86.8244 55.1146 86.7286 53.0309 86.6088 52.8393C86.4891 52.6717 85.9382 52.4322 85.3634 52.3124C84.0701 52.0729 78.0825 52.0968 76.3341 52.3363ZM83.8066 54.9948C83.8785 55.0667 83.9743 56.2403 83.9982 57.6294L84.0701 60.1202L80.8128 60.1921L77.5555 60.2639L77.3879 59.4975C77.316 59.0904 77.2442 57.8928 77.2442 56.863V54.9948L78.1543 54.899C79.3279 54.7553 83.6629 54.8272 83.8066 54.9948Z" fill="#2937B1"/>
<path d="M53.5332 52.935C53.3416 52.9829 52.7668 53.0787 52.2639 53.1745C50.755 53.414 50.6831 53.7253 50.9945 58.731C51.1861 61.5811 51.3777 63.2097 51.5693 63.4013C51.8088 63.6408 53.0782 63.6887 56.8145 63.6168C61.6285 63.545 62.7781 63.4013 63.1613 62.8025C63.2571 62.6349 63.3529 60.5751 63.3529 58.1801C63.3529 52.5518 63.7601 52.9829 58.1317 52.911C55.8085 52.8631 53.7249 52.8871 53.5332 52.935Z" fill="#2937B1"/>
<path d="M31.9778 53.7968C29.1996 54.18 29.2475 54.0363 29.5588 59.2575C29.7025 61.6526 29.942 63.8321 30.0857 64.1195C30.3492 64.5985 30.4689 64.5985 35.5464 64.5027C38.3965 64.4308 40.9113 64.2871 41.1269 64.1913C41.8693 63.88 42.0609 62.419 41.8693 58.2756L41.6777 54.3716L41.0071 54.0603C40.1689 53.6531 34.3729 53.4855 31.9778 53.7968ZM39.1629 59.042V61.6765H35.8338H32.5287L32.385 60.0479C32.1455 57.6529 32.1934 56.6948 32.5287 56.5751C32.6724 56.5032 34.2531 56.4314 36.0015 56.4314L39.1629 56.4074V59.042Z" fill="#2937B1"/>
<path d="M65.1492 69.8203C63.7361 70.0838 63.0416 70.7783 63.2092 71.7124C63.2811 72.0477 63.3769 73.7961 63.4727 75.5684C63.6403 79.4244 63.7361 80.0711 64.263 80.3106C64.4786 80.4303 66.9455 80.4543 69.7237 80.3824C74.2504 80.2627 74.8491 80.1908 75.3042 79.7837C75.7832 79.3526 75.8071 79.0891 75.8071 74.9696C75.8071 69.3173 76.2143 69.7245 70.5859 69.6526C68.2388 69.6287 65.8198 69.7005 65.1492 69.8203ZM72.1427 72.359L72.8612 72.5027L73.0049 74.9217C73.1247 76.6941 73.0768 77.3886 72.8612 77.5323C72.6936 77.6281 71.1368 77.7239 69.4124 77.7239H66.227V75.8319C66.227 74.802 66.1551 73.6284 66.0833 73.2213C65.9396 72.5027 65.9635 72.4788 66.8497 72.383C68.4544 72.2393 71.4003 72.2153 72.1427 72.359Z" fill="#2937B1"/>
<path d="M42.061 70.5143C40.5042 70.7777 40.3126 71.1849 40.4803 73.8913C40.8156 79.5436 40.9114 80.3579 41.1988 80.7411C41.4622 81.1243 41.9412 81.1722 45.8931 81.1243C50.9945 81.0525 52.192 80.9327 52.6231 80.4058C52.8626 80.1424 52.9345 78.873 52.9345 75.7115C52.9345 72.0471 52.8626 71.3286 52.5273 70.9214C52.1681 70.4424 51.8567 70.4185 47.6175 70.3706C45.1506 70.3466 42.6358 70.4185 42.061 70.5143ZM49.797 73.077C50.1083 73.1967 50.1802 73.6518 50.1802 75.6876V78.1545L46.899 78.2503C45.0788 78.3221 43.5699 78.3461 43.5699 78.3461C43.5459 78.3221 43.4501 77.1725 43.3543 75.7594L43.1867 73.2207L43.8812 73.1009C44.983 72.9333 49.3898 72.9093 49.797 73.077Z" fill="#2937B1"/>
<path d="M102.703 88.8846C99.1828 91.5431 96.3566 93.8662 95.3507 94.944C94.9435 95.3512 94.5603 95.6865 94.4645 95.6865C94.3927 95.6865 93.4107 94.489 92.309 93.0519C91.0157 91.3275 90.1056 90.3455 89.7223 90.2497C88.7164 90.0102 87.8303 90.8724 88.0937 91.8784C88.1895 92.1897 89.411 93.962 90.8241 95.8062C92.9078 98.4887 93.5544 99.1832 94.0813 99.2311C94.6082 99.303 95.1591 98.9198 97.0751 97.1954C99.8534 94.6806 102.153 92.7885 105.338 90.4413C107.35 88.9564 107.661 88.6211 107.661 88.0223C107.661 87.1841 107.11 86.5853 106.32 86.5853C105.961 86.5853 104.596 87.4475 102.703 88.8846Z" fill="#2937B1"/>
<path d="M5.24919 19.6434C4.57858 20.6733 4.96179 21.3439 6.80597 22.278C7.71608 22.733 9.34471 23.6911 10.4225 24.4335C12.4822 25.8226 13.2247 26.0142 13.8474 25.3197C14.3983 24.697 14.3504 23.9545 13.7276 23.3557C12.2188 21.9187 7.11732 19.0447 6.13536 19.0447C5.8719 19.0447 5.46474 19.3081 5.24919 19.6434Z" fill="#2937B1"/>
</svg>
