<svg width="120" height="120" viewBox="0 0 120 120" fill="none" xmlns="http://www.w3.org/2000/svg">
<path opacity="0.2" d="M107.5 31.1266C106.739 5.70846 86 6.62655 70 12.6266C40.7324 23.6019 8.36206 34.0915 13 59.5002C17.8943 86.3133 55.2401 83.6803 75 75.0002C88.7587 68.9563 108.226 55.3866 107.5 31.1266Z" fill="#7380F7"/>
<path fill-rule="evenodd" clip-rule="evenodd" d="M88.0271 70.7589C88.96 74.4203 88.3734 78.1242 88.129 80.4361C87.6605 84.978 86.6072 88.4508 85.263 89.5351C85.0554 89.6997 84.7073 89.982 84.3191 90.2967C83.9835 90.5689 83.6179 90.8653 83.2873 91.131C80.8839 93.0746 78.4194 96.7163 77.4418 99.8261L77.0956 100.89L78.0121 101.79C79.0712 102.854 79.4989 104.245 79.2749 105.8C78.949 108.051 77.727 109.626 75.405 110.772C74.2034 111.365 73.7553 111.467 72.1462 111.529C70.8427 111.59 69.9465 111.529 69.2133 111.304C68.2356 111.017 68.0116 111.017 66.2803 111.406C63.5918 111.979 57.5019 112.143 55.1596 111.692C51.799 111.058 49.7215 109.626 49.1104 107.519C48.5198 105.514 49.1104 103.611 50.8213 101.995L51.7379 101.115L51.3916 99.642C51.0454 98.2508 50.9639 98.1075 49.8233 97.146C45.485 93.5247 41.941 87.2642 40.7597 81.1878C39.6975 75.9091 40.3091 70.9127 42.2873 66.0275C42.6743 65.1682 43.3464 63.8997 43.7945 63.2041C44.7314 61.7515 47.7458 58.5803 48.1735 58.5803C48.4179 58.5803 48.4587 58.3348 48.3365 57.1891C47.8477 51.972 47.7662 50.0488 47.868 45.1795C47.9902 39.4714 48.5605 33.6201 49.1308 31.881C50.2307 28.628 51.8804 27.0731 54.2227 27.0731C55.6688 27.0731 56.8501 27.6255 58.1537 28.9145C59.7627 30.5512 60.4959 32.2493 61.7384 37.2004C63.0623 42.4585 63.5918 47.4914 63.4492 53.5883L63.3474 57.9461L63.9788 57.6187C64.3251 57.4346 65.3027 57.2505 66.1378 57.1891C68.1542 57.0868 69.6614 57.6188 71.0464 58.9691C72.0036 59.9102 72.0444 59.9102 72.5943 59.6238C72.9609 59.4396 73.7349 59.3169 74.6922 59.3169C76.566 59.2964 77.7473 59.7874 79.0305 61.0968C79.6822 61.772 80.11 62.0379 80.7414 62.1402C82.0653 62.3857 83.8983 63.3473 84.9371 64.3908C85.4666 64.9227 85.8944 65.4342 85.8944 65.5365C85.8944 65.5529 85.9017 65.5661 85.9153 65.5763C86.2538 66.2236 87.4874 68.6403 88.0271 70.7589ZM58.3981 37.446C57.5223 33.0472 56.8094 31.2673 55.6688 30.5717C53.0618 28.9349 51.9008 31.7992 51.4527 41.0877C51.1879 46.7958 51.2898 49.6192 52.0841 56.248C52.7359 61.6697 52.797 62.8972 52.5118 63.4496C52.3896 63.6747 52.4711 64.3294 52.7359 65.3319C52.9396 66.1707 53.184 67.9302 53.2451 69.2396L53.3673 71.6333L52.8173 71.9811C52.3896 72.2676 52.1249 72.3085 51.7175 72.1653C50.9843 71.8993 50.5565 70.4467 49.9251 66.0684C49.6604 64.1657 49.3141 62.1402 49.1715 61.5674L48.8864 60.524L47.3747 61.5674C45.3176 64.7386 43.5143 69.035 42.9237 72.1653C42.5163 74.2521 42.875 78.4515 43.2416 80.4361C44.1174 85.0189 46.8089 88.3485 51.1879 92.9314C53.8357 95.7343 54.1209 96.123 54.1209 96.9414C54.1209 97.2892 54.2635 97.7802 54.4468 98.0462C54.6504 98.3121 54.956 99.0487 55.1393 99.6829C55.4855 100.788 55.5262 100.849 56.5243 101.176C58.6221 101.893 60.944 102.056 65.486 101.79C67.8079 101.647 70.4353 101.545 71.3519 101.545H73.0017L73.2461 100.174C74.0404 95.7957 77.0752 91.2742 80.8432 88.7781L82.3504 87.7961L83.3077 83.8679C84.4686 79.1418 84.6927 77.1164 84.4483 73.7202C84.1835 69.6692 83.2873 67.0505 81.5968 65.3728L80.721 64.4726L80.4969 65.1273C80.2525 65.8434 79.336 66.764 78.8675 66.764C78.2565 66.764 77.3807 65.7411 77.1363 64.759C76.6678 62.7745 75.6291 61.8538 73.8978 61.8538H73.0628V62.9791C73.0628 65.025 72.0036 66.2935 70.7409 65.7206C70.2928 65.516 70.1095 65.1477 69.6614 63.7361C68.643 60.4217 67.0136 59.5215 64.264 60.7695C63.1437 61.2605 63.0012 61.4037 62.5531 62.4471C61.6365 64.534 60.72 65.025 59.6812 63.9816C59.172 63.4701 59.172 63.4087 59.2739 61.3832C59.335 60.2375 59.4979 58.6008 59.6201 57.762C59.7627 56.9231 59.8645 54.1611 59.8849 51.6242C59.9053 46.3457 59.5998 43.4814 58.3981 37.446ZM67.5635 104.9C61.0662 105.268 58.9684 105.186 56.6261 104.429C55.9743 104.225 55.3022 104 55.1189 103.918C54.9559 103.836 54.7523 103.836 54.6708 103.918C54.5893 104 54.182 104.123 53.7746 104.184C53.2043 104.286 52.8988 104.491 52.5526 105.002C51.4324 106.68 52.3896 107.826 55.404 108.399C58.2148 108.93 59.9868 108.951 65.4249 108.521C71.1889 108.051 73.1239 107.723 74.2237 107.048C75.0181 106.537 75.7106 105.555 75.7106 104.88C75.7106 103.754 75.1199 103.488 74.1219 104.184C73.6534 104.511 72.7776 104.614 67.5635 104.9Z" fill="#2937B1"/>
<path d="M110.216 11.8531C109.632 12.5179 109.194 13.4087 109.246 13.8126C109.278 14.0292 109.382 14.1578 109.604 14.2817C109.869 14.4217 110.002 14.4224 110.379 14.2609C110.721 14.1027 110.96 13.8734 111.472 13.1817C112.247 12.1469 112.295 12.0341 112.154 11.5069C112.057 11.1681 111.999 11.0892 111.737 11.0402C111.28 10.9593 110.747 11.2339 110.216 11.8531Z" fill="#2937B1"/>
<path d="M112.037 14.8303C111.369 15.3282 111.153 15.6934 111.302 16.043C111.441 16.367 111.919 16.5057 112.155 16.2934C112.23 16.231 112.661 15.9454 113.109 15.6729C113.727 15.297 113.943 15.114 114.018 14.9203C114.141 14.5749 114.017 14.3655 113.635 14.2367C113.262 14.1039 112.764 14.2868 112.037 14.8303Z" fill="#2937B1"/>
<path d="M112.343 18.2C112.259 18.623 112.569 18.8889 113.125 18.8718C113.775 18.8589 114.983 18.563 115.196 18.3612C115.433 18.1376 115.472 17.7448 115.288 17.5028C115.052 17.1943 113.827 17.2876 112.913 17.679C112.476 17.8664 112.395 17.9454 112.343 18.2Z" fill="#2937B1"/>
<path fill-rule="evenodd" clip-rule="evenodd" d="M68.5712 40.0982C68.3634 40.1154 68.1155 40.1294 67.8335 40.1406C67.9903 40.1554 68.1894 40.1357 68.4505 40.11C68.4893 40.1062 68.5295 40.1022 68.5712 40.0982Z" fill="#2937B1"/>
<path fill-rule="evenodd" clip-rule="evenodd" d="M38.0398 8.62159C38.7884 7.35797 39.6661 6.61011 40.9309 6.14592C41.4472 5.9654 46.61 5.86224 56.0062 5.86224C70.023 5.83645 70.3586 5.83645 71.4428 6.37801C72.7593 7.02271 73.9209 8.33792 74.3339 9.67891C74.7211 10.9941 74.7469 37.7624 74.3339 39.1807C73.766 41.2438 71.5719 42.8684 69.1195 43.0232C66.5929 43.2173 64.0274 43.1874 61.4634 43.1177L60.7316 40.1509L60.9616 40.153C63.5978 40.178 66.2514 40.2032 67.8335 40.1406C67.9903 40.1554 68.1894 40.1357 68.4505 40.11C68.4893 40.1062 68.5295 40.1022 68.5712 40.0982C68.6279 40.0935 68.6817 40.0885 68.7323 40.0833C69.8165 39.9802 70.2037 39.7996 70.7974 39.1291L71.5202 38.3297V24.4298C71.5202 10.8394 71.5202 10.5299 71.004 9.88522C70.6942 9.4984 70.023 9.08578 69.5068 8.93105C68.2935 8.5958 43.3316 8.62159 42.1442 8.95683C41.6279 9.11156 41.1116 9.52418 40.8019 10.0399C40.3114 10.8394 40.2856 11.4067 40.2856 24.3524C40.2856 36.7277 40.2676 38.6127 41.1818 39.3653C41.3611 39.5129 41.5762 39.617 41.8344 39.7481C42.454 40.0575 43.7705 40.1349 49.0106 40.1349L48.6492 42.9716C42.8412 42.9716 41.3956 42.8942 40.5954 42.5848C39.3821 42.069 38.5819 41.2954 37.8849 40.0059C37.317 38.9744 37.317 38.8197 37.317 24.404V9.83364L38.0398 8.62159Z" fill="#2937B1"/>
<path d="M65.0189 15.6227C64.7269 15.7775 62.2578 18.0733 59.5231 20.7044L54.5583 25.5024L51.7972 22.8712C48.8767 20.1111 48.1599 19.75 47.2837 20.7044C46.3279 21.7104 46.6731 22.2779 50.3369 25.8377C52.9919 28.4173 54.0273 29.2686 54.5318 29.2686C55.0628 29.2686 56.5496 27.953 61.2489 23.3872C67.6739 17.1446 68.019 16.6545 66.6916 15.7517C66.0013 15.2615 65.7358 15.2615 65.0189 15.6227Z" fill="#2937B1"/>
<path d="M85.4711 16.6704C84.9505 16.9568 84.2737 17.6596 83.9613 18.1803C83.4406 19.1435 83.4146 19.4558 83.4146 29.6343V40.1252L84.0654 41.2185C85.2108 43.1969 85.0807 43.1709 97.1334 43.1709C107.26 43.1709 107.78 43.1448 108.613 42.6502C109.082 42.3639 109.681 41.7652 109.967 41.2966C110.462 40.4636 110.488 39.9429 110.488 29.6343V18.8311L109.863 17.8939C108.64 16.0977 108.64 16.0977 96.8991 16.0977C86.6946 16.0977 86.3822 16.1238 85.4711 16.6704ZM107.104 19.4819C107.598 19.9765 107.624 20.3409 107.624 29.6343C107.624 38.9277 107.598 39.2921 107.104 39.7867C106.609 40.2813 106.245 40.3074 97.0033 40.3074C89.1416 40.3074 87.3194 40.2293 86.9029 39.9429C86.4343 39.5785 86.4083 39.1359 86.3302 30.3632C86.2781 25.313 86.3302 20.7835 86.4083 20.3149C86.5124 19.7682 86.7727 19.3777 87.1372 19.2215C87.4496 19.0914 91.9531 18.9873 97.1595 18.9873C106.245 18.9612 106.609 18.9873 107.104 19.4819Z" fill="#2937B1"/>
<path d="M94.3384 25.1832C92.7504 25.9132 91.4143 27.9774 91.4648 29.664C91.5404 33.2135 95.1451 35.4035 98.4221 33.9183C101.573 32.4834 101.876 27.5747 98.9514 25.6363C97.7415 24.856 95.5232 24.6294 94.3384 25.1832ZM97.4894 28.355C97.7667 28.6319 97.9936 29.1857 97.9936 29.6137C97.9936 30.0416 97.7667 30.5954 97.4894 30.8724C96.4307 31.9296 94.4645 31.1744 94.4645 29.6892C94.4645 28.1536 96.4307 27.2978 97.4894 28.355Z" fill="#2937B1"/>
<path d="M6.24924 30.2666C5.88654 30.4216 5.31658 30.7832 5.00569 31.0932C3.65851 32.3329 3.65851 32.3071 3.65851 43.4134C3.65851 55.1138 3.65851 55.0363 5.54974 56.2761L6.61195 56.9735L16.5086 57.051C26.8456 57.1284 27.856 57.051 29.1513 56.0436C30.7317 54.8039 30.7317 54.8813 30.7317 43.4134C30.7317 33.082 30.7317 32.9528 30.1617 32.0488C29.8508 31.5322 29.1254 30.8607 28.5814 30.5508C27.571 29.9825 27.4155 29.9825 17.234 30.0083C11.0162 30.0083 6.63785 30.1117 6.24924 30.2666ZM27.4933 33.5727C27.6487 33.9085 27.7523 37.5245 27.7523 43.5684C27.7523 52.0402 27.7005 53.0992 27.3119 53.5383C26.9233 53.9773 26.2756 54.0032 17.2599 54.0032C9.35812 54.0032 7.54461 53.9257 7.13009 53.6416C6.66376 53.28 6.63785 52.8667 6.63785 43.5942C6.63785 35.794 6.71557 33.8568 7.00056 33.521C7.31144 33.1336 8.34774 33.082 17.2858 33.082C26.8456 33.082 27.2342 33.1078 27.4933 33.5727Z" fill="#2937B1"/>
<path d="M15.262 39.2181C10.622 41.3045 12.0342 48.293 17.0776 48.293C19.2463 48.293 20.7845 47.3126 21.5663 45.4523C23.2306 41.4302 19.1959 37.4332 15.262 39.2181ZM18.4141 42.2598C19.8515 43.6927 18.1872 46.0808 16.422 45.1507C15.2368 44.5474 15.035 43.2905 15.9428 42.3352C16.6237 41.6062 17.7333 41.5811 18.4141 42.2598Z" fill="#2937B1"/>
</svg>
