<svg width="71" height="70" viewBox="0 0 71 70" fill="none" xmlns="http://www.w3.org/2000/svg">
<rect x="0.333313" width="70" height="70" rx="8" fill="white" fill-opacity="0.2"/>
<path d="M32.3633 12.3344C31.6113 12.5786 31.2402 12.7836 30.7422 13.2426C30.332 13.6235 30.3027 13.6332 30.0781 13.4868C29.2871 12.9594 27.7734 12.7836 26.5723 13.0766C26.2402 13.1547 25.7129 13.2621 25.4101 13.3207C24.1015 13.5746 22.8711 14.5317 22.2949 15.7328C22.0117 16.309 21.9629 16.5239 21.9336 17.3246C21.914 17.8422 21.9336 18.4184 21.9922 18.6235L22.0898 18.9848H21.3965C19.3848 18.9946 17.5 20.0297 16.6601 21.602C15.5371 23.7114 16.0156 25.8891 17.9004 27.2075L18.125 27.3735L17.4805 27.9789C16.0449 29.3168 15.5176 31.3578 16.1523 33.184C16.8457 35.2055 18.4765 36.3969 20.5762 36.4067L21.4355 36.4164L21.3672 36.6606C20.9277 38.3696 21.3183 40.0395 22.4023 41.1235C23.1543 41.8754 24.5312 42.52 25.4004 42.52C25.6836 42.52 25.7226 42.5493 25.6836 42.7348C25.6543 42.8618 25.6152 43.4379 25.5762 44.0336C25.4004 47.3051 24.5312 51.9633 23.4668 55.352C23.2226 56.1332 23.0957 56.6996 23.1348 56.8461C23.2422 57.2856 23.5742 57.2953 24.7265 56.9243C26.6699 56.2993 28.291 55.3422 29.7363 53.975C30.2051 53.5258 30.6055 53.1645 30.625 53.1645C30.6543 53.1645 31.1035 54.141 31.6308 55.3325C32.1582 56.5336 32.6562 57.5883 32.7344 57.6762C33.0176 58.0082 33.3496 57.8813 34.082 57.1879L34.7656 56.5336L34.9414 55.2055C35.039 54.4731 35.1465 53.8285 35.1855 53.77C35.2148 53.7114 35.4199 54.0532 35.625 54.5121C36.1328 55.6254 37.0312 57.3344 37.2168 57.5102C37.4707 57.7641 37.7441 57.6664 38.3398 57.1196C38.6523 56.8266 38.9746 56.5825 39.043 56.5825C39.2773 56.5825 39.6875 54.4243 39.6875 53.2328C39.6875 52.8618 39.7265 52.5785 39.7851 52.5785C39.8437 52.5785 41.1328 52.9496 42.6562 53.4086C44.1797 53.8676 45.498 54.2387 45.5762 54.2387C45.7617 54.2387 46.0351 53.9164 46.0351 53.6918C46.0351 53.5942 46.1719 53.1743 46.3379 52.7739L46.6308 52.0414L45.957 50.8696C43.8379 47.1684 42.2754 43.9555 40.9863 40.6157C40.7031 39.8637 40.4199 39.1606 40.3711 39.0532C40.3223 38.9457 40.2344 38.7407 40.1758 38.5844L40.0781 38.3207H40.791C41.6211 38.311 42.2558 38.0864 43.164 37.4614C44.9902 36.2114 45.6738 34.3168 45.0195 32.2856C44.9707 32.1293 44.9902 32.0707 45.0879 32.0707C45.332 32.0707 46.2012 31.3578 46.5039 30.8989C46.9726 30.2055 47.1484 29.4536 47.0801 28.4086C47.0117 27.3344 46.8359 26.7289 46.3574 25.9379C45.7031 24.8735 45.2246 24.395 44.3945 23.9946C44.375 23.9946 44.4726 23.7602 44.6191 23.477C45.4785 21.7778 44.9707 19.3657 43.4082 17.8227C42.2656 16.6899 40.9473 16.1723 39.4238 16.2895L38.623 16.3481L38.5156 15.811C38.3398 14.9711 37.8906 14.1801 37.2558 13.5942C36.6601 13.0473 35.5078 12.4223 34.7949 12.2563C34.1308 12.1 32.9687 12.1391 32.3633 12.3344ZM34.9121 13.5746C36.0156 13.8969 37.0312 14.7953 37.2949 15.6938C37.4512 16.2114 37.4805 16.9828 37.3828 17.5004L37.3242 17.8032L36.9238 17.5493C35.8984 16.9047 34.0723 16.3188 32.5195 16.143C31.5234 16.0356 31.4844 16.0161 31.4844 15.7914C31.4844 15.0297 32.4707 13.8969 33.4277 13.5551C33.9062 13.3793 34.2773 13.3891 34.9121 13.5746ZM27.5293 14.4438C28.3008 14.6489 28.9648 15.0297 29.5703 15.6059L30.0683 16.0844L29.7754 16.1625C29.6191 16.2016 29.1113 16.3286 28.6621 16.436C26.8066 16.9047 25.7129 17.4907 23.8086 19.0336L23.5058 19.2778L23.2812 18.77C23.1152 18.3891 23.0566 18.0668 23.0566 17.5493C23.0469 15.3813 25.2539 13.8578 27.5293 14.4438ZM33.0566 17.3735C36.914 18.0473 40.0195 20.8793 41.0449 24.6586C41.6992 27.0414 41.4258 29.5317 40.2734 31.768C38.9062 34.4243 36.4551 36.3188 33.4863 37.0121C32.373 37.2758 30.166 37.2563 29.1211 36.9731C27.2461 36.4653 25.8887 35.7231 24.5898 34.4926C23.1738 33.1352 22.3242 31.7582 21.748 29.8735C21.5039 29.0629 21.4844 28.8578 21.4844 27.2856C21.4746 25.7914 21.5039 25.4692 21.6992 24.7465C23.0762 19.6977 28.0176 16.4848 33.0566 17.3735ZM41.8164 18.4965C42.3535 18.7407 43.164 19.5707 43.5449 20.2641C43.8086 20.7328 43.8379 20.8793 43.8379 21.6215C43.8379 22.3246 43.7988 22.5297 43.584 22.9399C43.3301 23.4379 42.7832 23.8969 42.3242 24.0043C42.0996 24.0532 42.0605 24.0043 41.8945 23.4965C41.4453 22.1196 40.4101 20.4692 39.2871 19.3461C38.8183 18.8774 38.6621 18.6625 38.7598 18.6332C39.7168 18.2621 41.1621 18.2036 41.8164 18.4965ZM22.3535 20.2543L22.6172 20.352L22.2754 20.8207C21.2207 22.2856 20.5664 24.0727 20.293 26.2016L20.2344 26.7289L19.6973 26.6703C19.0625 26.602 18.4863 26.2797 17.9394 25.7035C17.3926 25.0981 17.1973 24.5414 17.2363 23.6528C17.3437 21.6703 19.0918 20.1762 21.3476 20.1664C21.7578 20.1567 22.2168 20.2055 22.3535 20.2543ZM43.5742 25.5864C44.3652 25.977 45.2637 26.8657 45.6055 27.5981C45.8301 28.1059 45.8887 28.35 45.8887 28.9555C45.8887 29.6098 45.8594 29.7465 45.5957 30.1664C44.9902 31.143 43.5449 31.5629 42.4414 31.0942C42.0508 30.9282 41.9336 30.8305 41.9824 30.7133C42.3926 29.6586 42.6562 26.8559 42.4414 25.7328L42.3437 25.2153L42.6953 25.2739C42.8808 25.3032 43.2812 25.4399 43.5742 25.5864ZM20.293 28.0864C20.3223 28.2133 20.3515 28.4379 20.3515 28.6039C20.3515 28.7602 20.459 29.3461 20.5957 29.893C20.9473 31.3578 21.6015 32.7446 22.5 33.936L22.9004 34.4633L22.6074 34.727C21.914 35.352 20.2441 35.4692 19.1601 34.9809C18.4277 34.6391 17.7734 33.975 17.3926 33.1645C17.1094 32.5688 17.0801 32.4223 17.0801 31.5825C17.0801 30.7719 17.1094 30.5864 17.3437 30.1176C17.8223 29.1508 18.6719 28.3403 19.5508 28.018C20.0683 27.8227 20.2246 27.8422 20.293 28.0864ZM42.1191 32.3637C43.3398 33.3305 43.6621 34.4047 43.1055 35.6352C42.7148 36.5239 41.6894 37.1879 40.7129 37.1879C40.0683 37.1977 39.1308 36.8266 38.5449 36.3285L38.2324 36.0649L39.0234 35.3129C39.9023 34.4828 40.7519 33.3891 41.2012 32.5395C41.3672 32.227 41.5234 31.9731 41.5625 31.9731C41.5918 31.9731 41.8457 32.1489 42.1191 32.3637ZM25.3808 36.6118C26.4551 37.2953 27.998 37.9399 28.9551 38.0864L29.3164 38.145L29.1699 38.6528C28.7793 40.0004 27.5781 41.1137 26.25 41.3578C25.0586 41.5727 23.5937 40.9575 22.8906 39.9321C21.9824 38.6137 22.207 36.5727 23.3594 35.7133L23.7793 35.4008L24.3164 35.8305C24.6094 36.0649 25.0879 36.4164 25.3808 36.6118ZM37.4902 37.1586C37.6465 37.4321 37.6855 37.6664 37.6855 38.4184C37.6855 40.02 37.1387 41.0258 35.9375 41.641C35.293 41.9633 35.2148 41.9828 34.2773 41.9828C33.1445 41.9828 32.7051 41.8168 31.9238 41.1332C31.4258 40.6938 30.7422 39.4243 30.6445 38.7309L30.5762 38.3207H31.6504C32.2363 38.3207 32.9785 38.2719 33.3008 38.2231C34.2187 38.0571 35.6738 37.559 36.416 37.1586C36.7969 36.9535 37.1387 36.7973 37.1973 36.8071C37.2461 36.8168 37.3828 36.9731 37.4902 37.1586ZM40.2734 42.5688C41.4258 45.9672 42.2363 48.0668 43.3203 50.4789C43.7988 51.5532 44.2187 52.4907 44.248 52.5688C44.2871 52.6664 44.2676 52.6957 44.1699 52.6567C44.0918 52.6274 42.9687 52.2856 41.6601 51.895C39.4824 51.2504 39.2773 51.2016 39.0723 51.3383C38.916 51.4457 38.6914 51.9828 38.1836 53.4965C37.8125 54.6 37.4805 55.5082 37.4414 55.5082C37.2558 55.5082 35.6836 51.8266 34.7656 49.2485C34.1699 47.559 32.7441 43.0864 32.7832 43.0473C32.8027 43.0278 33.0957 43.1352 33.4375 43.2817C34.2773 43.6332 35.625 43.6528 36.4648 43.3207C37.5976 42.8715 38.789 41.5922 39.1601 40.4203C39.2578 40.1274 39.3457 39.9028 39.3555 39.9125C39.375 39.9321 39.7851 41.1235 40.2734 42.5688ZM30.0879 40.5961C30.2051 40.8305 30.5176 41.2895 30.791 41.6215C31.25 42.1684 31.3379 42.3539 31.7383 43.6625C32.2851 45.4496 33.6914 49.727 33.9355 50.352C34.1113 50.811 34.1113 50.8403 33.9258 51.9535C33.7402 53.0473 33.1836 55.4008 33.0957 55.4985C33.0176 55.5766 32.9785 55.4985 32.0996 53.4965L31.2402 51.5532L30.8887 51.5239C30.5664 51.4946 30.4785 51.5727 29.3848 52.6567C28.0762 53.9653 27.0117 54.7075 25.5371 55.3715C25.0293 55.6059 24.5996 55.7817 24.5801 55.7719C24.5703 55.7524 24.6484 55.4594 24.7558 55.1176C25.2832 53.4184 25.9668 50.2934 26.3086 47.9887C26.5234 46.5239 26.7969 43.7211 26.7969 42.9496V42.4516L27.2656 42.2758C27.5195 42.1782 27.9297 41.9731 28.1836 41.8168C28.6426 41.5239 29.7265 40.4399 29.7265 40.2641C29.7265 40.0493 29.9023 40.2055 30.0879 40.5961Z" fill="white"/>
<path d="M30.8757 20.7828C30.6259 20.8879 30.5856 20.9607 29.9087 22.6269C29.5622 23.4842 29.2398 24.2203 29.1915 24.2607C29.127 24.3173 28.4742 24.3092 27.346 24.2526C25.7504 24.1717 25.5651 24.1717 25.3072 24.2931C24.7753 24.5519 24.5739 25.3769 24.9123 25.8622C25.009 25.9997 27.1123 27.6982 27.5475 27.9975C27.5878 28.0218 27.3783 28.7254 27.0882 29.5666C26.5402 31.16 26.4676 31.6049 26.6852 32.0255C26.9834 32.6159 27.7087 32.8909 28.297 32.6483C28.4662 32.5755 29.1592 32.1144 29.8362 31.6291L31.0691 30.7313L32.3746 31.6696C33.0838 32.1872 33.7607 32.6483 33.8735 32.6887C34.3812 32.8828 35.1388 32.624 35.4208 32.171C35.7512 31.6291 35.727 31.4431 35.1468 29.7365C34.8486 28.8629 34.623 28.1188 34.6391 28.0784C34.6472 28.046 35.2355 27.5607 35.9366 27.0188C36.6377 26.4688 37.2662 25.9188 37.3307 25.7975C37.4919 25.482 37.4758 24.924 37.2904 24.6247C37.2098 24.4872 37.0084 24.3173 36.8472 24.2364C36.5732 24.107 36.404 24.0989 34.8084 24.1798C33.8494 24.2284 33.0354 24.2445 33.0032 24.2122C32.971 24.1717 32.6809 23.4762 32.3585 22.6592C32.0362 21.8423 31.6977 21.0901 31.6091 20.985C31.4157 20.7666 31.1094 20.6857 30.8757 20.7828ZM31.319 21.0658C31.3673 21.1306 31.601 21.9313 31.8428 22.8372C32.0765 23.7431 32.3102 24.56 32.3585 24.657C32.5358 24.9967 32.8259 25.0615 34.349 25.1262C35.1388 25.1585 35.8721 25.207 35.9688 25.2313C36.1219 25.2717 35.9366 25.4254 34.8406 26.1776C34.0831 26.6953 33.4626 27.1806 33.3578 27.3423C33.0838 27.7387 33.1241 28.1916 33.5351 29.5666C33.7285 30.2299 33.8816 30.7799 33.8735 30.788C33.8655 30.8041 33.527 30.5615 33.1322 30.2622C31.7058 29.1865 31.5929 29.1218 31.1014 29.1218C30.5695 29.1218 30.5776 29.1137 29.264 30.0924L28.2003 30.8769L28.5951 29.5828C29.2237 27.4879 29.2398 27.5365 27.2574 26.1938L25.7988 25.199L26.524 25.1423C26.927 25.11 27.7167 25.0615 28.2889 25.0291C29.7475 24.9563 29.6911 25.0291 30.1988 22.8938C30.4164 21.9879 30.6581 21.1791 30.7307 21.0982C30.8838 20.9203 31.182 20.9122 31.319 21.0658Z" fill="white"/>
<path d="M49.5312 19.4434C49.2969 19.6387 48.7012 20.1953 48.2129 20.6836C47.5098 21.3672 47.3047 21.6309 47.3047 21.8359C47.3047 22.1191 47.6074 22.4023 47.9102 22.4023C48.0078 22.4023 48.6621 21.8652 49.3555 21.2012C50.459 20.166 50.625 19.9707 50.625 19.6973C50.625 19.4824 50.5566 19.3359 50.4102 19.2383C50.0977 19.0137 49.9902 19.043 49.5312 19.4434Z" fill="white"/>
<path d="M51.5039 23.4962C50.6836 23.5939 49.1113 24.0919 48.8476 24.3263C48.584 24.5607 48.623 25.0001 48.916 25.1954C49.1406 25.3419 49.1992 25.3321 50.039 25.0392C50.5273 24.8732 51.3086 24.6876 51.7773 24.629C52.2461 24.5704 52.6855 24.4728 52.7539 24.4239C52.8125 24.3751 52.8711 24.1896 52.8711 24.0138C52.8711 23.4767 52.5879 23.3595 51.5039 23.4962Z" fill="white"/>
<path d="M50.0488 27.764C49.8047 28.0081 49.7851 28.2425 49.9902 28.5257C50.1172 28.7015 50.2637 28.7308 51.3769 28.7894C52.0605 28.8284 52.8711 28.8773 53.1836 28.9066C53.6523 28.9554 53.7598 28.9359 53.9355 28.7601C54.1894 28.5062 54.1992 28.223 53.9551 27.9788C53.8086 27.8324 53.5644 27.7835 52.5684 27.7347C51.9043 27.6956 51.1133 27.6468 50.8008 27.6175C50.332 27.5687 50.2246 27.5882 50.0488 27.764Z" fill="white"/>
</svg>
