<svg width="90" height="90" viewBox="0 0 90 90" fill="none" xmlns="http://www.w3.org/2000/svg">
<rect width="90" height="90" rx="16" fill="#FAE084"/>
<g clip-path="url(#clip0_1_1225)">
<path fill-rule="evenodd" clip-rule="evenodd" d="M53.5 22.0005C53.998 20.9946 53.9551 20.4399 55.0586 20.0883C55.1954 20.0493 55.5372 20.0102 55.8301 20.0102C56.7774 19.9907 57.3536 20.645 57.2657 21.6215C57.2364 21.8657 57.2071 22.9106 57.1973 23.9457L57.2265 25.8989C58.8378 26.2407 60.4394 27.1685 62.3339 28.8384C65.7519 31.8462 66.2011 32.188 67.6757 32.8813C68.7988 33.4185 68.9062 33.5063 69.1894 34.2095C69.9218 36.0063 69.6777 37.4419 68.4277 38.5942C67.6562 39.3071 67.0019 39.6782 64.6972 40.7134C62.0214 41.9145 61.4355 42.3247 60.8886 43.438C60.6933 43.8481 60.6738 44.0142 60.6738 45.7329C60.664 48.0864 60.5371 48.6626 59.0136 53.3013C57.7246 57.2075 57.3925 58.3501 57.1191 59.7173C56.582 62.354 56.8164 64.0923 57.8808 65.2349C58.4081 65.8208 59.0722 66.1528 60.1953 66.436C60.7128 66.563 61.2206 66.7388 61.3183 66.8364C61.748 67.227 61.7285 68.0962 61.289 68.5063C60.9179 68.8384 60.5566 68.8579 59.5996 68.5845C57.7148 68.0376 56.3281 67.0122 55.6152 65.645C55.1074 64.6587 54.9316 63.8384 54.9316 62.3833C54.9316 60.2544 55.3417 58.4575 56.9042 53.6431C58.4863 48.7602 57.9296 47.3345 57.8417 45.3325C57.7441 43.2231 56.9238 41.5552 57.8808 40.5005C58.6914 39.5923 60.6445 39.2017 63.3007 38.02C65.7128 36.9458 67.6074 36.6313 67.2753 35.5181C67.207 35.313 67.0996 35.1372 67.0312 35.1372C66.7578 35.1372 65.1171 34.2485 64.3847 33.7017C63.955 33.3794 62.8808 32.4614 61.9921 31.6704C59.5214 29.4731 58.3203 28.7602 56.5722 28.4477C55.5566 28.272 55.2343 28.2622 54.7167 28.4087C53.916 28.6333 53.3496 30.7427 51.9824 33.8091C50.791 36.4653 50.3027 37.354 49.3457 38.5942C48.2812 39.9614 46.4648 40.2934 45.2246 40.938C44.873 41.1138 44.1406 41.1431 43.8085 40.9868C43.6132 40.8989 43.3496 40.9868 42.1191 41.5337C38.33 43.2036 35.7031 44.9028 33.623 46.9927C31.6406 48.9849 30.4492 51.1431 29.8535 53.8384C29.5898 54.9809 29.4921 57.9106 29.6679 59.3657C29.8828 61.2602 30.498 63.936 30.8984 64.727C31.3378 65.6255 32.373 66.3384 33.7499 66.6899C35.332 67.0903 37.1191 66.1099 42.1289 65.7681L43.8867 65.6411L44.1992 65.0845C44.6582 64.2544 45.166 63.9263 45.4589 62.8227C45.791 61.5239 46.2207 58.9165 45.9863 57.979C45.4296 55.7817 43.9648 54.6782 40.8789 53.7895C39.6484 53.4282 39 53.2134 39 52.6177C39 51.9438 39.3359 52.1196 40.8789 51.9145C42.8417 51.6509 45.039 52.4126 46.3281 53.7993C46.7285 54.2192 47.246 55.0591 47.5195 55.7134C48.5644 58.1841 48.1445 62.0513 46.4648 65.5767L45.9863 66.5825H46.7578C48.291 66.5825 50.0781 66.9731 50.4687 67.3833C50.7421 67.686 50.7324 68.2524 50.4296 68.604C50.1953 68.8774 50.1855 68.8774 49.1601 68.8481C47.9003 68.8091 46.6992 68.9165 42.9492 69.4145C38.6328 69.9809 37.9882 70.0298 35.791 69.9712C33.2324 69.9028 32.0312 69.6196 30.6445 68.7798C30.1171 68.4575 28.789 67.1684 28.789 66.9829C28.789 66.9341 28.2812 66.9145 27.6464 66.9438C26.8066 66.9829 26.2988 66.9536 25.7812 66.8364C22.9003 66.2212 21.1328 63.8774 20.5664 59.8931C20.4199 58.8872 20.4003 55.1567 20.5175 53.8579C20.6152 52.8618 20.7714 52.6177 21.3085 52.6177C21.8261 52.6177 22.0507 52.9692 22.0507 53.7895C22.0507 54.6977 22.2265 56.7681 22.4023 57.979C22.7636 60.4692 23.4863 62.2661 24.4921 63.1938C24.8828 63.5552 25.205 63.7602 25.5273 63.8579C26.0253 63.9946 27.4999 64.0142 27.6269 63.8774C27.666 63.8286 27.666 63.5942 27.6171 63.3403C27.2363 61.3286 27.08 57.5591 27.3144 55.7134C28.2519 48.5063 32.3535 44.0923 41.8652 40.0786C42.7832 39.6977 42.9101 39.2485 43.1347 38.8774C43.3398 38.5356 43.5546 38.3696 44.2675 37.9985C44.9414 37.6372 45.3515 37.3345 46.0351 36.6509C47.1777 35.5278 47.705 34.6977 49.2285 31.6704C50.6738 28.8091 51.2011 27.9595 52.08 27.1489C52.4233 26.825 52.3926 26.8461 52.3926 26.8461L53.1875 25.8677C52.7578 24.5298 52.8555 23.3188 53.5 22.0005Z" fill="#141414"/>
</g>
<defs>
<clipPath id="clip0_1_1225">
<rect width="50" height="50" fill="white" transform="translate(20 20)"/>
</clipPath>
</defs>
</svg>
