<svg width="70" height="70" viewBox="0 0 70 70" fill="none" xmlns="http://www.w3.org/2000/svg">
<rect width="70" height="70" rx="8" fill="white" fill-opacity="0.2"/>
<path d="M22.0765 26.5427C21.5394 26.7185 21.0707 27.0017 20.4652 27.5095C19.8499 28.0271 19.4984 28.5349 19.2152 29.3063C19.0296 29.8142 19.0003 30.0583 19.0394 30.7712C19.0882 31.8063 19.3519 32.4021 20.0453 33.0368C20.9828 33.906 22.0863 34.1892 23.6585 33.9743C25.3382 33.7399 26.4417 33.0075 27.0374 31.7478C27.9164 29.863 27.1156 27.7243 25.1722 26.7673C24.6058 26.4841 24.4496 26.4548 23.5121 26.4353C22.848 26.4157 22.3402 26.4548 22.0765 26.5427ZM24.6449 27.7731C26.7249 28.7888 26.7835 31.5134 24.7328 32.5095C23.6097 33.0661 22.3499 32.9001 21.4515 32.0896C20.846 31.5524 20.5726 31.0349 20.514 30.2927C20.4652 29.7946 20.4945 29.6481 20.7777 29.0817C21.1195 28.3688 21.598 27.9587 22.4183 27.6462C23.0335 27.4118 24.0101 27.4704 24.6449 27.7731Z" fill="white"/>
<path d="M49.4203 29.043C48.3266 29.4824 47.4086 30.7227 47.2817 31.9238C47.1547 33.125 47.6723 34.0625 48.7465 34.6094C49.4008 34.9414 49.4594 34.9512 50.5043 34.9512C51.4711 34.9512 51.6469 34.9219 52.1352 34.6973C52.8188 34.375 53.3754 33.8281 53.6879 33.1934C54.0199 32.5 54.0199 31.3477 53.6879 30.6543C53.3852 30.0293 52.7992 29.4434 52.1742 29.1504C51.4809 28.8086 50.143 28.7598 49.4203 29.043ZM51.3344 30.166C51.9496 30.4688 52.5551 31.1621 52.7113 31.7383C52.8285 32.1289 52.8188 32.2363 52.6528 32.6367C52.4184 33.1934 51.8324 33.6621 51.1586 33.8281C50.7485 33.9258 50.5824 33.916 50.1332 33.7891C48.5317 33.3203 48.0531 31.5723 49.2543 30.5273C49.9477 29.9023 50.602 29.7949 51.3344 30.166Z" fill="white"/>
<path d="M36.3247 31.143C35.9829 31.2211 35.2407 31.5043 34.6645 31.7875C33.3559 32.4223 32.6137 33.1254 32.0766 34.2191C30.7387 36.9437 31.5981 39.7758 34.1567 41.0453C35.0258 41.4848 35.5727 41.5922 36.7934 41.5824C37.8774 41.5726 37.9653 41.5629 39.0883 41.143C40.8364 40.4887 41.6079 39.9223 42.311 38.7601C43.229 37.2367 43.2875 35.4789 42.4965 33.848C42.1547 33.1449 41.1098 32.1 40.3383 31.6996C39.1176 31.0551 37.6528 30.8598 36.3247 31.143ZM39.4497 32.5297C41.1293 33.3109 42.1743 35.1078 41.8813 36.6996C41.5688 38.3695 40.4067 39.5805 38.6977 40.0297C36.3149 40.6449 33.8442 39.1117 33.3657 36.7289C33.0727 35.2738 33.8833 33.6137 35.2895 32.7934C36.1782 32.2758 36.6372 32.1586 37.77 32.1976C38.6782 32.2269 38.8735 32.266 39.4497 32.5297Z" fill="white"/>
<path d="M22.0961 34.5703C21.0609 34.7363 19.0395 35.5567 18.0043 36.25C17.1547 36.8067 15.8461 38.0469 15.2016 38.9063C14.5766 39.7363 13.932 40.9961 13.6098 42.002C13.3461 42.8418 13.3559 43.0664 13.6293 43.125C13.7172 43.1348 17.477 43.1348 21.9789 43.1055L30.1723 43.0567L30.3578 42.8125C30.4555 42.6758 30.6313 42.4805 30.7387 42.3731C30.8461 42.2559 30.934 42.0606 30.934 41.9238C30.934 41.5625 29.9379 39.0918 29.4594 38.291C28.4438 36.5625 26.6664 35.2344 24.7523 34.7656C24.0688 34.5899 22.6332 34.4922 22.0961 34.5703ZM24.4106 35.8692C26.7543 36.4746 28.307 38.0078 29.3324 40.7227L29.557 41.3281L28.4633 41.3867C27.8578 41.416 24.7914 41.4551 21.6371 41.4746C16.7934 41.5137 15.8949 41.4942 15.8949 41.377C15.8949 41.084 16.5199 39.8926 17.0277 39.2285C18.2582 37.627 20.1234 36.2403 21.6176 35.8301C22.3305 35.6348 23.5609 35.6543 24.4106 35.8692Z" fill="white"/>
<path d="M49.0492 35.918C48.2875 36.1328 48.0726 36.2305 47.1156 36.7969C45.1136 37.9785 43.7367 39.5898 43.0824 41.5039C42.9359 41.9336 42.8382 42.3633 42.8773 42.4512C42.9359 42.6074 43.3949 42.6172 49.1761 42.6172C52.6136 42.6172 55.5433 42.5879 55.6996 42.5586C55.8558 42.5293 56.139 42.3828 56.3246 42.2266C56.5882 42.0117 56.6566 41.8945 56.6468 41.6309C56.6273 41.2305 55.8851 39.4141 55.4261 38.6426C54.7425 37.5 53.4535 36.4844 52.1253 36.0645C51.305 35.8008 49.7328 35.7227 49.0492 35.918ZM51.1976 37.002C52.9847 37.3828 54.2054 38.457 55.016 40.3711L55.3285 41.123L50.1429 41.1719C47.2816 41.2012 44.9378 41.2207 44.9183 41.2012C44.9085 41.1914 45.0453 40.8789 45.2406 40.5078C46.0218 38.9258 48.0824 37.2559 49.596 36.9629C50.221 36.8359 50.4359 36.8457 51.1976 37.002Z" fill="white"/>
<path d="M36.0609 42.5781C34.889 42.7441 34.3812 42.8516 33.5316 43.1152C31.1097 43.8574 29.2152 45.0781 27.2523 47.1484C25.5531 48.9453 24.4105 50.9375 23.6976 53.3496C23.5316 53.9355 23.5218 54.0039 23.6683 54.2188L23.8246 54.4629L35.3675 54.4141C44.3617 54.375 46.9593 54.3359 47.1644 54.2383C47.4769 54.0918 48.0238 53.0957 48.0238 52.6758C48.0238 52.334 47.1839 50.0977 46.5589 48.7988C45.016 45.5566 42.4378 43.4668 39.098 42.7539C38.3949 42.6074 36.598 42.5 36.0609 42.5781ZM39.4593 44.0234C41.9398 44.7656 43.805 46.2402 45.1331 48.5254C45.5921 49.3262 46.7249 52.0508 46.6273 52.1484C46.5589 52.2266 26.8324 52.4121 26.764 52.3438C26.5882 52.168 27.4085 50.2734 28.1019 49.2578C29.3128 47.4707 31.9496 45.2148 33.805 44.375C34.9769 43.8379 35.7972 43.6914 37.2816 43.7305C38.346 43.7598 38.766 43.8184 39.4593 44.0234Z" fill="white"/>
<path d="M36.7795 17.3296C36.6905 17.3932 36.2838 18.1495 35.7181 19.319L34.7965 21.2003L33.2075 21.1749C32.3368 21.1686 31.5486 21.1749 31.4596 21.194C31.1482 21.2766 30.9575 21.8105 31.1228 22.141C31.1609 22.2173 31.7584 22.8529 32.4512 23.552L33.7096 24.8232L33.1376 26.7109C32.7435 28.0075 32.5783 28.6558 32.6037 28.7639C32.6927 29.1071 33.0804 29.3168 33.3982 29.1961C33.4935 29.1643 34.2944 28.605 35.1842 27.963C36.074 27.3147 36.9003 26.7236 37.0147 26.641L37.2244 26.4948L39.0486 27.7024C40.9236 28.9482 41.0952 29.0499 41.413 29.0499C41.8134 29.0499 41.7498 28.5986 41.0253 26.4058C40.752 25.5668 40.5232 24.8359 40.5232 24.7787C40.5232 24.7279 41.0952 24.1495 41.788 23.4821C42.4871 22.8211 43.0909 22.2173 43.1227 22.1347C43.2371 21.8868 43.2053 21.677 43.0147 21.4927C42.824 21.2957 42.8431 21.302 40.5867 21.194L39.7287 21.1559L39.2965 20.3487C39.0613 19.9101 38.6291 19.0902 38.3304 18.5309C38.0316 17.9715 37.7202 17.4504 37.6312 17.3677C37.4342 17.1961 37.002 17.1771 36.7795 17.3296ZM37.9299 20.6283C38.2287 21.1495 38.5528 21.7342 38.6545 21.9186C38.9151 22.408 38.9977 22.4397 40.2117 22.4397H41.235L40.3388 23.3931C39.8431 23.9143 39.4363 24.391 39.4363 24.4546C39.4172 24.6897 39.4617 24.8041 40.0401 26.2596C40.3706 27.0795 40.6312 27.7596 40.6185 27.7723C40.6058 27.7851 39.913 27.2702 39.0804 26.6283C38.2477 25.9927 37.4914 25.427 37.4024 25.3825C37.1672 25.2618 37.091 25.2999 35.6863 26.2215C35.0189 26.6601 34.4596 27.0096 34.4469 26.9969C34.4342 26.9906 34.5995 26.444 34.8092 25.7829C35.1461 24.7406 35.1842 24.569 35.127 24.391C35.0825 24.2702 34.7901 23.9207 34.4151 23.552C34.0656 23.2025 33.7223 22.8465 33.6588 22.7575L33.5444 22.5986H34.5423C35.3431 22.5986 35.5719 22.5796 35.6609 22.5033C35.7244 22.4525 36.1058 21.7406 36.5062 20.9207C37.1418 19.605 37.2372 19.4525 37.3071 19.5542C37.3516 19.6241 37.6312 20.1008 37.9299 20.6283Z" fill="white"/>
<path d="M24.8139 15.7065C24.7396 15.7803 24.431 16.3304 24.1338 16.926L23.5852 18.0093H23.2537C23.0766 18.015 22.568 18.0377 22.1279 18.0604C21.3621 18.1114 21.3278 18.1171 21.2021 18.2646C21.1107 18.3667 21.0707 18.4858 21.0707 18.6446C21.0707 18.8715 21.0935 18.9055 21.9336 19.7052L22.8023 20.5333L22.3565 21.7244C21.8822 22.9949 21.745 23.6189 21.905 23.7947C22.0479 23.9422 22.4651 23.7663 23.8481 22.9666C24.5796 22.5525 25.1911 22.2065 25.2082 22.2065C25.2253 22.2065 25.8768 22.6036 26.654 23.0857C27.8484 23.8287 28.0942 23.9648 28.2828 23.9648C28.5685 23.9648 28.8428 23.721 28.8428 23.4657C28.8428 23.3409 28.2999 21.8209 27.8427 20.6638C27.8142 20.59 27.997 20.3688 28.5742 19.7846C28.9971 19.3536 29.3686 18.9452 29.4086 18.8771C29.5629 18.5822 29.4086 18.1625 29.1 18.032C28.9571 17.9753 28.6371 17.9526 27.877 17.9526H26.8483L26.294 16.8693C25.9854 16.2794 25.6768 15.7406 25.5968 15.6782C25.3911 15.5193 24.991 15.5307 24.8139 15.7065ZM26.0426 19.0586C26.1454 19.1551 26.2654 19.1777 26.7626 19.1891L27.3513 19.2118L26.9284 19.6882C26.4083 20.2667 26.3912 20.3688 26.7055 21.1175C26.8198 21.3898 26.9569 21.7301 27.0141 21.8719L27.1227 22.1385L26.2654 21.662C25.6768 21.3387 25.3454 21.1856 25.2196 21.1856C25.0768 21.1856 24.8825 21.2934 24.4367 21.5997C22.968 22.6149 22.7108 22.7908 22.7394 22.7397C22.7565 22.7113 23.0023 22.1895 23.2937 21.577C23.7681 20.5674 23.8138 20.4539 23.7566 20.3008C23.7223 20.2157 23.488 19.9151 23.2366 19.6428L22.7737 19.1437H23.3966C24.3281 19.1437 24.311 19.1551 24.9853 17.9299L25.2025 17.5329L25.5568 18.2419C25.7568 18.6276 25.974 18.9962 26.0426 19.0586Z" fill="white"/>
<path d="M48.1579 15.6325C48.0436 15.6896 47.9293 15.8152 47.8608 15.9637C47.7979 16.0894 47.5523 16.6091 47.318 17.1116L46.8895 18.0254L45.7126 18.0825C44.5757 18.1396 44.5243 18.1453 44.4214 18.2767C44.3529 18.3566 44.3129 18.4994 44.3129 18.6422C44.3129 18.8649 44.3471 18.9106 45.1641 19.733L46.0097 20.5954L45.5641 21.9374C45.107 23.2967 45.0327 23.685 45.1984 23.8221C45.267 23.8792 45.3927 23.8392 45.8954 23.5822C46.2382 23.4109 46.9295 23.0225 47.438 22.7198C47.9465 22.4172 48.3921 22.1659 48.4207 22.1659C48.455 22.1659 49.1063 22.5714 49.8718 23.0625C51.1059 23.862 51.283 23.9591 51.5001 23.9648C51.82 23.9648 52.0257 23.7535 52.0257 23.4337C52.0257 23.3081 51.82 22.6799 51.523 21.8975L51.0202 20.5782L51.8657 19.7273C52.6827 18.9049 52.7113 18.8649 52.7113 18.6365C52.7113 18.5108 52.6827 18.3338 52.6427 18.2538C52.5171 17.974 52.3571 17.9397 51.1459 17.9397H50.0318L49.4833 16.8546C49.1691 16.2379 48.872 15.7296 48.8035 15.6839C48.5978 15.5468 48.3578 15.5297 48.1579 15.6325ZM49.3005 19.0819C49.4491 19.1733 49.5862 19.1962 50.0547 19.1962H50.6203L50.2146 19.6073C49.7747 20.0585 49.6833 20.2013 49.6833 20.4126C49.6833 20.4926 49.8261 20.898 49.9975 21.3149C50.1689 21.7318 50.3118 22.0802 50.3118 22.0859C50.3118 22.0973 49.9347 21.886 49.4719 21.6176C48.8435 21.2635 48.5749 21.1379 48.4264 21.1379C48.2607 21.1436 48.0379 21.275 47.198 21.8803C46.6324 22.2801 46.164 22.6056 46.1525 22.5942C46.1411 22.5885 46.3296 22.1259 46.5639 21.5776C46.8038 21.0294 46.9981 20.4983 46.9981 20.4012C46.9981 20.2584 46.9295 20.1385 46.701 19.8929C46.5353 19.7159 46.3239 19.4817 46.2268 19.3789L46.0554 19.1904L46.7467 19.2076C47.3294 19.219 47.4551 19.2076 47.5865 19.1219C47.6894 19.0591 47.8665 18.7735 48.0893 18.3224L48.4378 17.6256L48.7749 18.2995C49.032 18.8078 49.1577 18.9963 49.3005 19.0819Z" fill="white"/>
</svg>
