<svg width="90" height="90" viewBox="0 0 90 90" fill="none" xmlns="http://www.w3.org/2000/svg">
<rect width="90" height="90" rx="16" fill="#FAE084"/>
<path d="M42.3633 22.3344C41.6113 22.5786 41.2402 22.7836 40.7422 23.2426C40.332 23.6235 40.3027 23.6332 40.0781 23.4868C39.2871 22.9594 37.7734 22.7836 36.5723 23.0766C36.2402 23.1547 35.7129 23.2621 35.4101 23.3207C34.1015 23.5746 32.8711 24.5317 32.2949 25.7328C32.0117 26.309 31.9629 26.5239 31.9336 27.3246C31.914 27.8422 31.9336 28.4184 31.9922 28.6235L32.0898 28.9848H31.3965C29.3848 28.9946 27.5 30.0297 26.6601 31.602C25.5371 33.7114 26.0156 35.8891 27.9004 37.2075L28.125 37.3735L27.4805 37.9789C26.0449 39.3168 25.5176 41.3578 26.1523 43.184C26.8457 45.2055 28.4765 46.3969 30.5762 46.4067L31.4355 46.4164L31.3672 46.6606C30.9277 48.3696 31.3183 50.0395 32.4023 51.1235C33.1543 51.8754 34.5312 52.52 35.4004 52.52C35.6836 52.52 35.7226 52.5493 35.6836 52.7348C35.6543 52.8618 35.6152 53.4379 35.5762 54.0336C35.4004 57.3051 34.5312 61.9633 33.4668 65.352C33.2226 66.1332 33.0957 66.6996 33.1348 66.8461C33.2422 67.2856 33.5742 67.2953 34.7265 66.9243C36.6699 66.2993 38.291 65.3422 39.7363 63.975C40.2051 63.5258 40.6055 63.1645 40.625 63.1645C40.6543 63.1645 41.1035 64.141 41.6308 65.3325C42.1582 66.5336 42.6562 67.5883 42.7344 67.6762C43.0176 68.0082 43.3496 67.8813 44.082 67.1879L44.7656 66.5336L44.9414 65.2055C45.039 64.4731 45.1465 63.8285 45.1855 63.77C45.2148 63.7114 45.4199 64.0532 45.625 64.5121C46.1328 65.6254 47.0312 67.3344 47.2168 67.5102C47.4707 67.7641 47.7441 67.6664 48.3398 67.1196C48.6523 66.8266 48.9746 66.5825 49.043 66.5825C49.2773 66.5825 49.6875 64.4243 49.6875 63.2328C49.6875 62.8618 49.7265 62.5785 49.7851 62.5785C49.8437 62.5785 51.1328 62.9496 52.6562 63.4086C54.1797 63.8676 55.498 64.2387 55.5762 64.2387C55.7617 64.2387 56.0351 63.9164 56.0351 63.6918C56.0351 63.5942 56.1719 63.1743 56.3379 62.7739L56.6308 62.0414L55.957 60.8696C53.8379 57.1684 52.2754 53.9555 50.9863 50.6157C50.7031 49.8637 50.4199 49.1606 50.3711 49.0532C50.3223 48.9457 50.2344 48.7407 50.1758 48.5844L50.0781 48.3207H50.791C51.6211 48.311 52.2558 48.0864 53.164 47.4614C54.9902 46.2114 55.6738 44.3168 55.0195 42.2856C54.9707 42.1293 54.9902 42.0707 55.0879 42.0707C55.332 42.0707 56.2012 41.3578 56.5039 40.8989C56.9726 40.2055 57.1484 39.4536 57.0801 38.4086C57.0117 37.3344 56.8359 36.7289 56.3574 35.9379C55.7031 34.8735 55.2246 34.395 54.3945 33.9946C54.375 33.9946 54.4726 33.7602 54.6191 33.477C55.4785 31.7778 54.9707 29.3657 53.4082 27.8227C52.2656 26.6899 50.9473 26.1723 49.4238 26.2895L48.623 26.3481L48.5156 25.811C48.3398 24.9711 47.8906 24.1801 47.2558 23.5942C46.6601 23.0473 45.5078 22.4223 44.7949 22.2563C44.1308 22.1 42.9687 22.1391 42.3633 22.3344ZM44.9121 23.5746C46.0156 23.8969 47.0312 24.7953 47.2949 25.6938C47.4512 26.2114 47.4805 26.9828 47.3828 27.5004L47.3242 27.8032L46.9238 27.5493C45.8984 26.9047 44.0723 26.3188 42.5195 26.143C41.5234 26.0356 41.4844 26.0161 41.4844 25.7914C41.4844 25.0297 42.4707 23.8969 43.4277 23.5551C43.9062 23.3793 44.2773 23.3891 44.9121 23.5746ZM37.5293 24.4438C38.3008 24.6489 38.9648 25.0297 39.5703 25.6059L40.0683 26.0844L39.7754 26.1625C39.6191 26.2016 39.1113 26.3286 38.6621 26.436C36.8066 26.9047 35.7129 27.4907 33.8086 29.0336L33.5058 29.2778L33.2812 28.77C33.1152 28.3891 33.0566 28.0668 33.0566 27.5493C33.0469 25.3813 35.2539 23.8578 37.5293 24.4438ZM43.0566 27.3735C46.914 28.0473 50.0195 30.8793 51.0449 34.6586C51.6992 37.0414 51.4258 39.5317 50.2734 41.768C48.9062 44.4243 46.4551 46.3188 43.4863 47.0121C42.373 47.2758 40.166 47.2563 39.1211 46.9731C37.2461 46.4653 35.8887 45.7231 34.5898 44.4926C33.1738 43.1352 32.3242 41.7582 31.748 39.8735C31.5039 39.0629 31.4844 38.8578 31.4844 37.2856C31.4746 35.7914 31.5039 35.4692 31.6992 34.7465C33.0762 29.6977 38.0176 26.4848 43.0566 27.3735ZM51.8164 28.4965C52.3535 28.7407 53.164 29.5707 53.5449 30.2641C53.8086 30.7328 53.8379 30.8793 53.8379 31.6215C53.8379 32.3246 53.7988 32.5297 53.584 32.9399C53.3301 33.4379 52.7832 33.8969 52.3242 34.0043C52.0996 34.0532 52.0605 34.0043 51.8945 33.4965C51.4453 32.1196 50.4101 30.4692 49.2871 29.3461C48.8183 28.8774 48.6621 28.6625 48.7598 28.6332C49.7168 28.2621 51.1621 28.2036 51.8164 28.4965ZM32.3535 30.2543L32.6172 30.352L32.2754 30.8207C31.2207 32.2856 30.5664 34.0727 30.293 36.2016L30.2344 36.7289L29.6973 36.6703C29.0625 36.602 28.4863 36.2797 27.9394 35.7035C27.3926 35.0981 27.1973 34.5414 27.2363 33.6528C27.3437 31.6703 29.0918 30.1762 31.3476 30.1664C31.7578 30.1567 32.2168 30.2055 32.3535 30.2543ZM53.5742 35.5864C54.3652 35.977 55.2637 36.8657 55.6055 37.5981C55.8301 38.1059 55.8887 38.35 55.8887 38.9555C55.8887 39.6098 55.8594 39.7465 55.5957 40.1664C54.9902 41.143 53.5449 41.5629 52.4414 41.0942C52.0508 40.9282 51.9336 40.8305 51.9824 40.7133C52.3926 39.6586 52.6562 36.8559 52.4414 35.7328L52.3437 35.2153L52.6953 35.2739C52.8808 35.3032 53.2812 35.4399 53.5742 35.5864ZM30.293 38.0864C30.3223 38.2133 30.3515 38.4379 30.3515 38.6039C30.3515 38.7602 30.459 39.3461 30.5957 39.893C30.9473 41.3578 31.6015 42.7446 32.5 43.936L32.9004 44.4633L32.6074 44.727C31.914 45.352 30.2441 45.4692 29.1601 44.9809C28.4277 44.6391 27.7734 43.975 27.3926 43.1645C27.1094 42.5688 27.0801 42.4223 27.0801 41.5825C27.0801 40.7719 27.1094 40.5864 27.3437 40.1176C27.8223 39.1508 28.6719 38.3403 29.5508 38.018C30.0683 37.8227 30.2246 37.8422 30.293 38.0864ZM52.1191 42.3637C53.3398 43.3305 53.6621 44.4047 53.1055 45.6352C52.7148 46.5239 51.6894 47.1879 50.7129 47.1879C50.0683 47.1977 49.1308 46.8266 48.5449 46.3285L48.2324 46.0649L49.0234 45.3129C49.9023 44.4828 50.7519 43.3891 51.2012 42.5395C51.3672 42.227 51.5234 41.9731 51.5625 41.9731C51.5918 41.9731 51.8457 42.1489 52.1191 42.3637ZM35.3808 46.6118C36.4551 47.2953 37.998 47.9399 38.9551 48.0864L39.3164 48.145L39.1699 48.6528C38.7793 50.0004 37.5781 51.1137 36.25 51.3578C35.0586 51.5727 33.5937 50.9575 32.8906 49.9321C31.9824 48.6137 32.207 46.5727 33.3594 45.7133L33.7793 45.4008L34.3164 45.8305C34.6094 46.0649 35.0879 46.4164 35.3808 46.6118ZM47.4902 47.1586C47.6465 47.4321 47.6855 47.6664 47.6855 48.4184C47.6855 50.02 47.1387 51.0258 45.9375 51.641C45.293 51.9633 45.2148 51.9828 44.2773 51.9828C43.1445 51.9828 42.7051 51.8168 41.9238 51.1332C41.4258 50.6938 40.7422 49.4243 40.6445 48.7309L40.5762 48.3207H41.6504C42.2363 48.3207 42.9785 48.2719 43.3008 48.2231C44.2187 48.0571 45.6738 47.559 46.416 47.1586C46.7969 46.9535 47.1387 46.7973 47.1973 46.8071C47.2461 46.8168 47.3828 46.9731 47.4902 47.1586ZM50.2734 52.5688C51.4258 55.9672 52.2363 58.0668 53.3203 60.4789C53.7988 61.5532 54.2187 62.4907 54.248 62.5688C54.2871 62.6664 54.2676 62.6957 54.1699 62.6567C54.0918 62.6274 52.9687 62.2856 51.6601 61.895C49.4824 61.2504 49.2773 61.2016 49.0723 61.3383C48.916 61.4457 48.6914 61.9828 48.1836 63.4965C47.8125 64.6 47.4805 65.5082 47.4414 65.5082C47.2558 65.5082 45.6836 61.8266 44.7656 59.2485C44.1699 57.559 42.7441 53.0864 42.7832 53.0473C42.8027 53.0278 43.0957 53.1352 43.4375 53.2817C44.2773 53.6332 45.625 53.6528 46.4648 53.3207C47.5976 52.8715 48.789 51.5922 49.1601 50.4203C49.2578 50.1274 49.3457 49.9028 49.3555 49.9125C49.375 49.9321 49.7851 51.1235 50.2734 52.5688ZM40.0879 50.5961C40.2051 50.8305 40.5176 51.2895 40.791 51.6215C41.25 52.1684 41.3379 52.3539 41.7383 53.6625C42.2851 55.4496 43.6914 59.727 43.9355 60.352C44.1113 60.811 44.1113 60.8403 43.9258 61.9535C43.7402 63.0473 43.1836 65.4008 43.0957 65.4985C43.0176 65.5766 42.9785 65.4985 42.0996 63.4965L41.2402 61.5532L40.8887 61.5239C40.5664 61.4946 40.4785 61.5727 39.3848 62.6567C38.0762 63.9653 37.0117 64.7075 35.5371 65.3715C35.0293 65.6059 34.5996 65.7817 34.5801 65.7719C34.5703 65.7524 34.6484 65.4594 34.7558 65.1176C35.2832 63.4184 35.9668 60.2934 36.3086 57.9887C36.5234 56.5239 36.7969 53.7211 36.7969 52.9496V52.4516L37.2656 52.2758C37.5195 52.1782 37.9297 51.9731 38.1836 51.8168C38.6426 51.5239 39.7265 50.4399 39.7265 50.2641C39.7265 50.0493 39.9023 50.2055 40.0879 50.5961Z" fill="#141414"/>
<path d="M40.8757 30.7828C40.6259 30.8879 40.5856 30.9607 39.9087 32.6269C39.5622 33.4842 39.2398 34.2203 39.1915 34.2607C39.127 34.3173 38.4742 34.3092 37.346 34.2526C35.7504 34.1717 35.5651 34.1717 35.3072 34.2931C34.7753 34.5519 34.5739 35.3769 34.9123 35.8622C35.009 35.9997 37.1123 37.6982 37.5475 37.9975C37.5878 38.0218 37.3783 38.7254 37.0882 39.5666C36.5402 41.16 36.4676 41.6049 36.6852 42.0255C36.9834 42.6159 37.7087 42.8909 38.297 42.6483C38.4662 42.5755 39.1592 42.1144 39.8362 41.6291L41.0691 40.7313L42.3746 41.6696C43.0838 42.1872 43.7607 42.6483 43.8735 42.6887C44.3812 42.8828 45.1388 42.624 45.4208 42.171C45.7512 41.6291 45.727 41.4431 45.1468 39.7365C44.8486 38.8629 44.623 38.1188 44.6391 38.0784C44.6472 38.046 45.2355 37.5607 45.9366 37.0188C46.6377 36.4688 47.2662 35.9188 47.3307 35.7975C47.4919 35.482 47.4758 34.924 47.2904 34.6247C47.2098 34.4872 47.0084 34.3173 46.8472 34.2364C46.5732 34.107 46.404 34.0989 44.8084 34.1798C43.8494 34.2284 43.0354 34.2445 43.0032 34.2122C42.971 34.1717 42.6809 33.4762 42.3585 32.6592C42.0362 31.8423 41.6977 31.0901 41.6091 30.985C41.4157 30.7666 41.1094 30.6857 40.8757 30.7828ZM41.319 31.0658C41.3673 31.1306 41.601 31.9313 41.8428 32.8372C42.0765 33.7431 42.3102 34.56 42.3585 34.657C42.5358 34.9967 42.8259 35.0615 44.349 35.1262C45.1388 35.1585 45.8721 35.207 45.9688 35.2313C46.1219 35.2717 45.9366 35.4254 44.8406 36.1776C44.0831 36.6953 43.4626 37.1806 43.3578 37.3423C43.0838 37.7387 43.1241 38.1916 43.5351 39.5666C43.7285 40.2299 43.8816 40.7799 43.8735 40.788C43.8655 40.8041 43.527 40.5615 43.1322 40.2622C41.7058 39.1865 41.5929 39.1218 41.1014 39.1218C40.5695 39.1218 40.5776 39.1137 39.264 40.0924L38.2003 40.8769L38.5951 39.5828C39.2237 37.4879 39.2398 37.5365 37.2574 36.1938L35.7988 35.199L36.524 35.1423C36.927 35.11 37.7167 35.0615 38.2889 35.0291C39.7475 34.9563 39.6911 35.0291 40.1988 32.8938C40.4164 31.9879 40.6581 31.1791 40.7307 31.0982C40.8838 30.9203 41.182 30.9122 41.319 31.0658Z" fill="#141414"/>
<path d="M59.5312 29.4434C59.2969 29.6387 58.7012 30.1953 58.2129 30.6836C57.5098 31.3672 57.3047 31.6309 57.3047 31.8359C57.3047 32.1191 57.6074 32.4023 57.9102 32.4023C58.0078 32.4023 58.6621 31.8652 59.3555 31.2012C60.459 30.166 60.625 29.9707 60.625 29.6973C60.625 29.4824 60.5566 29.3359 60.4102 29.2383C60.0977 29.0137 59.9902 29.043 59.5312 29.4434Z" fill="#141414"/>
<path d="M61.5039 33.4962C60.6836 33.5939 59.1113 34.0919 58.8476 34.3263C58.584 34.5607 58.623 35.0001 58.916 35.1954C59.1406 35.3419 59.1992 35.3321 60.039 35.0392C60.5273 34.8732 61.3086 34.6876 61.7773 34.629C62.2461 34.5704 62.6855 34.4728 62.7539 34.4239C62.8125 34.3751 62.8711 34.1896 62.8711 34.0138C62.8711 33.4767 62.5879 33.3595 61.5039 33.4962Z" fill="#141414"/>
<path d="M60.0488 37.764C59.8047 38.0081 59.7851 38.2425 59.9902 38.5257C60.1172 38.7015 60.2637 38.7308 61.3769 38.7894C62.0605 38.8284 62.8711 38.8773 63.1836 38.9066C63.6523 38.9554 63.7598 38.9359 63.9355 38.7601C64.1894 38.5062 64.1992 38.223 63.9551 37.9788C63.8086 37.8324 63.5644 37.7835 62.5684 37.7347C61.9043 37.6956 61.1133 37.6468 60.8008 37.6175C60.332 37.5687 60.2246 37.5882 60.0488 37.764Z" fill="#141414"/>
</svg>
