<svg width="120" height="120" viewBox="0 0 120 120" fill="none" xmlns="http://www.w3.org/2000/svg">
<g clip-path="url(#clip0_1_1151)">
<path d="M23.2616 7.02028C22.2924 8.08414 22.316 15.9803 23.2853 16.6659C23.829 17.0914 24.6565 17.0442 25.0347 16.595C25.4839 16.0512 25.5076 7.35126 25.0584 6.90208C24.6092 6.42925 23.7345 6.50018 23.2616 7.02028Z" fill="#2937B1"/>
<path d="M55.9811 6.97274C46.8792 7.89475 38.0611 11.3464 30.6141 16.9021C27.7535 19.0534 23.0962 23.6871 21.1103 26.3586L19.6918 28.2499L18.1551 28.3917C12.8359 28.8645 8.01306 32.8835 6.68915 37.8955C6.50002 38.6756 6.33453 40.2832 6.33453 41.5599C6.33453 45.0115 7.20926 47.8957 9.21876 50.9454L10.4245 52.7894L10.4717 57.9905C10.5427 66.8087 12.103 73.8538 15.6728 81.3953C20.1647 90.9464 26.8551 98.2515 36.2407 103.854C36.5007 104.02 35.5787 103.996 33.7347 103.784C31.7252 103.547 27.5407 103.429 20.472 103.405C10.3299 103.382 10.1408 103.382 9.47882 103.878C7.80029 105.131 8.4386 107.472 10.8027 108.677C12.434 109.528 23.9 111.822 30.2595 112.602C39.5977 113.713 51.9621 113.618 62.4825 112.342C71.868 111.207 81.5136 108.157 86.7147 104.706C92.9796 100.521 95.1783 98.7953 98.3462 95.651C106.597 87.4002 112.058 76.2652 113.453 64.8938C113.618 63.3807 113.689 60.8275 113.595 57.6832C113.453 52.0093 112.933 49.0069 111.183 43.8058L110.143 40.6851L110.734 38.8175C111.491 36.4534 111.585 33.4273 110.947 31.205C109.647 26.6659 105.462 23.5925 100.545 23.5925H99.1027L97.3533 21.7958C89.4098 13.7578 79.0313 8.62763 67.7308 7.16187C65.2012 6.83089 58.3689 6.73633 55.9811 6.97274ZM68.3218 9.97518C78.062 11.4882 87.353 16.0746 94.1853 22.7178L95.6511 24.1126L94.0671 24.9164C92.1049 25.8857 89.6226 27.9425 87.8968 29.9993L86.6201 31.5596L85.7691 30.5194C84.7525 29.2664 82.8612 27.848 81.2063 27.0678C77.4946 25.342 73.2392 25.4602 69.362 27.4224C66.5015 28.8645 63.4281 32.6471 62.9316 35.3422C62.8607 35.7678 62.7661 36.1224 62.7425 36.1224C62.7189 36.1224 62.0569 35.9096 61.3004 35.6259C60.142 35.224 59.5273 35.1531 57.9906 35.2477C56.9504 35.3186 55.8866 35.4368 55.6029 35.5313C55.1537 35.6732 55.0827 35.5786 54.9645 34.5857C54.87 33.971 54.4681 32.789 54.0898 31.9615C51.2765 26.0985 43.0021 24.2308 36.7135 28.0371C35.3896 28.8409 32.0089 31.9615 30.9923 33.3327L30.5195 33.9474L28.7701 32.2689C27.1625 30.7322 25.7913 29.8575 23.3799 28.8882C22.8361 28.6518 22.8361 28.6281 24.2546 26.9023C26.075 24.6327 29.8339 20.992 32.1035 19.2898C39.3613 13.8523 47.6358 10.5662 56.5012 9.6442C59.149 9.3605 65.5085 9.54964 68.3218 9.97518ZM103.642 26.9496C105.746 27.7534 107.566 29.6447 108.205 31.7251C109.316 35.3422 108.394 38.9357 105.297 43.0965C103.287 45.768 101.751 47.3283 97.4715 51.0164C92.8141 55.0354 90.5682 56.8085 88.606 57.9905L87.2112 58.8416L84.3033 57.7305C77.8729 55.2954 72.8373 52.5058 70.2131 49.8816C63.7827 43.4512 63.5463 34.5857 69.693 30.4958C73.0264 28.2735 76.6908 27.9662 80.0715 29.6447C82.0574 30.6376 84.0196 32.3871 84.7998 33.9474C85.4144 35.1294 86.2182 35.7441 86.8802 35.4841C87.1403 35.3659 88.015 34.4202 88.8188 33.3564C91.6084 29.6447 94.6582 27.2806 97.6606 26.524C99.2918 26.0985 101.892 26.2876 103.642 26.9496ZM47.5412 29.4792C49.1961 30.1175 50.9219 31.7488 51.7021 33.4036C52.3876 34.8458 52.6241 37.6354 52.1985 39.4794C51.5129 42.4819 49.2906 45.9099 45.6972 49.4797C41.9382 53.1913 34.1839 59.5745 31.938 60.7565L30.9687 61.2766L27.919 60.1419C17.3986 56.1701 12.3867 52.293 9.928 46.2408C9.07692 44.1368 8.76958 41.7017 9.10056 39.7631C10.0462 34.302 15.4364 30.3539 20.803 31.1814C23.9709 31.6542 27.3752 34.0183 28.6755 36.5952C29.6921 38.6283 30.7559 38.4865 32.4581 36.0987C34.8931 32.6944 38.6285 29.692 41.229 29.0537C42.742 28.6754 46.0045 28.8882 47.5412 29.4792ZM61.1822 38.6047L62.2933 39.1721L62.5534 41.0634C63.5936 48.3685 69.0074 54.2079 78.6767 58.4161C82.2938 59.9764 86.7856 61.6549 87.4003 61.6549C89.6699 61.6549 104.02 49.7634 107.117 45.3425C107.33 45.0351 107.566 44.8224 107.614 44.8933C107.921 45.2006 108.961 51.2764 109.198 54.137C110.569 71.0168 101.987 88.3695 87.5422 97.8969C81.5609 101.845 73.6884 104.587 66.0286 105.415C62.8844 105.746 56.7849 105.557 53.617 105.037C37.7301 102.389 24.5146 92.4121 17.6587 77.8491C14.8927 71.9625 13.4742 66.0285 13.2614 59.3381L13.1196 55.4845L14.9872 56.8321C17.3041 58.487 22.8125 61.1821 27.4462 62.9315C29.3847 63.6644 31.0633 64.2554 31.2287 64.2554C31.6779 64.2554 34.7276 62.3641 36.9499 60.6856C39.8814 58.5106 46.0518 53.1677 48.0377 51.1582C51.5838 47.4702 54.208 43.2857 54.8227 40.2123C55.1064 38.8648 55.201 38.7229 55.9575 38.3919C56.4303 38.2028 57.0213 37.99 57.2814 37.9191C58.1797 37.7063 60.071 38.0373 61.1822 38.6047Z" fill="#2937B1"/>
<path d="M80.4971 41.04C78.393 43.1441 77.9675 43.6878 77.9675 44.3025C77.9675 45.2008 78.3457 45.5791 79.2677 45.5791C79.8824 45.5791 80.4025 45.1772 82.5302 43.0022C83.9723 41.5365 85.0598 40.2598 85.0598 39.9998C85.0598 39.2196 84.3742 38.4867 83.6886 38.4867C83.1922 38.4867 82.4829 39.0541 80.4971 41.04Z" fill="#2937B1"/>
<path d="M88.7951 42.553C86.6674 44.799 86.0291 45.6028 86.0055 46.0992C86.0055 46.9503 86.9748 47.6359 87.7549 47.3286C88.606 46.9976 93.5707 41.6547 93.5707 41.1109C93.5707 40.449 92.7669 39.6688 92.1049 39.6688C91.7267 39.6688 90.7337 40.5435 88.7951 42.553Z" fill="#2937B1"/>
<path d="M21.725 45.13C19.2663 48.1797 19.1481 48.4398 19.6445 49.2199C20.2356 50.0947 21.1812 50.0474 22.1032 49.0545C23.9945 47.0213 25.4839 44.9172 25.4839 44.2316C25.4839 43.3569 25.1057 42.9787 24.1837 42.9787C23.5453 42.9787 23.238 43.2387 21.725 45.13Z" fill="#2937B1"/>
<path d="M30.4959 46.4538C27.7535 49.3853 27.2098 50.591 28.2736 51.4185C29.0774 52.0568 29.6684 51.7731 31.1106 50C31.8907 49.078 32.86 47.9905 33.2619 47.6122C34.4676 46.4538 34.0894 44.8699 32.6236 44.8699C32.1508 44.8699 31.607 45.2718 30.4959 46.4538Z" fill="#2937B1"/>
<path d="M69.9058 60.7091C69.6694 60.8509 69.0074 61.9384 68.4164 63.1677C67.1398 65.7919 65.2248 67.8723 63.1208 68.9126C61.9623 69.4799 61.4895 69.5745 59.7637 69.5745C58.0852 69.5745 57.5651 69.4799 56.5958 68.9835C55.0355 68.2033 53.4515 66.5721 52.4349 64.7044C51.7257 63.4042 51.4893 63.1914 50.8746 63.1205C50.0472 63.0495 49.3616 63.5696 49.3616 64.2789C49.3616 65.1063 50.8037 67.6123 52.0094 68.8889C53.286 70.2601 54.8936 71.3476 56.2412 71.8204C57.0923 72.1278 57.1159 72.1514 57.2577 73.6881C57.8488 80.1894 61.5368 84.965 66.5487 85.7688C69.1966 86.1943 71.4425 85.4378 73.2156 83.5228C74.4686 82.1753 75.0359 80.9223 75.3906 78.7473C75.9343 75.4139 74.6577 71.8677 71.608 68.3452L69.9294 66.4066L70.8751 64.468C71.9626 62.2221 72.0572 61.371 71.3006 60.8509C70.686 60.4254 70.4495 60.4017 69.9058 60.7091ZM69.2911 69.9291C71.8444 72.7661 72.861 75.0593 72.7191 77.6362C72.5063 80.7805 70.7569 82.9082 68.18 83.1209C65.7686 83.3101 62.7898 81.3715 61.4422 78.7237C60.9458 77.7307 60.142 74.9411 59.9292 73.4517L59.811 72.6006L60.8985 72.4587C61.5132 72.3642 62.2224 72.246 62.4825 72.175C62.8607 72.0805 63.1444 72.3169 63.7591 73.2625C64.7757 74.7519 65.8631 75.603 66.7615 75.603C68.4873 75.603 68.4873 74.3028 66.7379 72.4351C66.0286 71.6786 65.4376 70.993 65.4612 70.8984C65.4849 70.7329 67.849 68.7944 68.0854 68.7707C68.1563 68.7471 68.7001 69.2908 69.2911 69.9291Z" fill="#2937B1"/>
<path d="M12.4103 12.4334C11.7247 13.1663 11.9612 13.8046 13.4269 15.4595C14.1834 16.3342 15.2237 17.8473 15.6965 18.8165C16.6894 20.826 17.3277 21.2752 18.2734 20.6606C18.6753 20.4005 18.8644 20.0695 18.8644 19.6203C18.8644 18.2255 16.5003 14.3011 14.7272 12.7644C13.7815 11.9133 12.9777 11.7951 12.4103 12.4334Z" fill="#2937B1"/>
<path d="M7.75301 19.7391C7.2329 19.9283 6.80736 20.5429 6.80736 21.134C6.80736 21.5359 7.42203 22.1742 9.1242 23.569C11.4174 25.413 11.7011 25.5785 12.5285 25.5076C13.0959 25.484 13.687 24.5147 13.5215 23.9C13.356 23.2853 8.76958 19.55 8.22583 19.5973C8.15491 19.5973 7.94214 19.6682 7.75301 19.7391Z" fill="#2937B1"/>
<path opacity="0.2" d="M112.085 57.8629C111.026 32.5249 95.1299 50.2327 80 55.9996C52.3239 66.5485 10.7548 60.6196 15.5 85.9996C20.5074 112.782 63.1037 109.538 81.7723 101.151C94.771 95.3103 113.097 82.0465 112.085 57.8629Z" fill="#7380F7"/>
</g>
<defs>
<clipPath id="clip0_1_1151">
<rect width="120" height="120" fill="white"/>
</clipPath>
</defs>
</svg>
