<svg width="90" height="90" viewBox="0 0 90 90" fill="none" xmlns="http://www.w3.org/2000/svg">
<rect width="90" height="90" rx="16" fill="#FAE084"/>
<g clip-path="url(#clip0_1_1199)">
<path d="M36.3477 20.2345C33.5059 21.1622 31.6895 24.6193 32.1094 28.3009C32.2461 29.5607 32.4414 30.2345 32.959 31.299C34.3359 34.1505 37.3438 35.3322 39.834 34.004C40.5957 33.6037 41.6699 32.4904 42.1484 31.6212C42.9688 30.1466 43.4375 27.9787 43.291 26.3576C43.0566 23.8087 41.543 21.4552 39.5312 20.4982C38.8574 20.1759 38.7207 20.1466 37.7734 20.1271C37.1191 20.1076 36.6016 20.1466 36.3477 20.2345ZM38.0176 21.7091C39.4629 22.09 40.293 23.4767 40.9375 25.4201C41.5282 27.1922 41.3327 29.4555 40.5176 31.1134C40.1367 31.9044 39.707 32.8712 39.1016 33.2326C38.457 33.6037 37.6758 33.7794 37.0312 33.672C35.6445 33.4474 34.4141 32.4904 33.75 31.1232C33.252 30.1173 33.0859 29.4044 33.0176 28.0958C32.9297 26.2794 33.3105 24.8244 34.1992 23.5744C34.9121 22.5783 35.7129 21.9533 36.6016 21.7189C37.2949 21.5333 37.334 21.5333 38.0176 21.7091Z" fill="#141414"/>
<path d="M50.9082 20.3031C49.4531 20.8109 48.0273 22.2563 47.3145 23.9652C46.8359 25.0981 46.7188 25.7231 46.7285 27.1293C46.7383 28.8188 46.9629 29.8246 47.6563 31.2309C48.3301 32.5883 49.2773 33.5844 50.4004 34.1215C51.8066 34.7856 53.3789 34.6781 54.8145 33.8188C56.543 32.7836 57.6074 30.8598 57.8906 28.2914C58.1641 25.7914 57.4121 23.2816 55.918 21.6996C55.3711 21.1234 55.0488 20.8891 54.3945 20.557C53.5938 20.1664 53.5254 20.1469 52.5293 20.1176C51.6797 20.0981 51.3867 20.1273 50.9082 20.3031ZM53.6914 21.807C54.668 22.1293 55.9668 23.4965 56.4648 24.7465C57.002 26.0844 57.1582 27.891 56.8555 29.3559C56.4551 31.2895 55.4785 32.6762 54.0625 33.3305C52.5488 34.0238 51.2402 33.7406 50.0098 32.4809C49.4141 31.8656 49.3126 30.9672 49.0001 29.9613C48.5856 28.6144 48.5935 26.7866 49.0391 25.4496C49.6739 23.5453 50.4199 22.2074 51.8262 21.7387C52.4219 21.5434 52.959 21.5629 53.6914 21.807Z" fill="#141414"/>
<path d="M23.8281 29.2869C23.1738 29.4139 22.3047 29.9315 21.7285 30.5369C20.7324 31.5721 20.3613 32.6658 20.3516 34.5018C20.332 37.3143 21.5234 39.8241 23.4961 41.1326C24.3652 41.7088 24.9609 41.9041 25.8691 41.9041C26.4941 41.9139 26.6992 41.8651 27.2656 41.6014C29.4629 40.576 30.6152 37.3729 29.8828 34.3358C29.2383 31.6795 27.4219 29.6678 25.332 29.2869C24.6777 29.1698 24.4238 29.1698 23.8281 29.2869ZM25.293 31.035C27.0019 31.6795 28.3887 33.9647 28.6426 36.5526C28.7695 37.8514 28.3496 39.3162 27.6269 40.1463C27.1387 40.6932 26.3379 41.0448 25.5664 41.0448C23.4863 41.035 21.5723 38.5545 21.3965 35.6444C21.2012 32.3729 23.0469 30.1854 25.293 31.035Z" fill="#141414"/>
<path d="M64.5312 29.3067C62.4805 29.7656 60.752 31.7383 60.1172 34.336C59.2676 37.8321 60.918 41.3867 63.6035 41.8848C64.8047 42.1094 66.2402 41.5332 67.4121 40.3613C68.4082 39.3653 68.9746 38.3106 69.4336 36.6211C69.6777 35.7031 69.7266 33.7207 69.5215 32.8906C68.9062 30.3711 66.7285 28.8086 64.5312 29.3067ZM66.8066 31.1621C69.2383 32.5879 69.2188 37.4903 66.7676 39.9512C66.0156 40.6934 65.2832 41.0449 64.4336 41.0449C61.9238 41.0547 60.6445 37.9785 61.7578 34.6485C62.3633 32.8516 63.4277 31.543 64.6973 31.0254C65.3418 30.7617 66.2207 30.8203 66.8066 31.1621Z" fill="#141414"/>
<path d="M35.5469 38.3594C32.4805 38.7891 29.9512 40.9375 28.5742 44.2871C27.4512 47.002 27.2656 49.6875 27.959 53.0273C28.5352 55.8008 29.873 58.6133 31.7871 61.0547C32.5977 62.0801 34.7461 64.1797 35.8887 65.0488C38.3203 66.9043 41.1914 68.4082 44.0918 69.3555L44.8926 69.6191L46.1914 69.1895C52.3438 67.1289 57.5977 62.6855 60.1856 57.3535C62.4707 52.6562 62.6856 47.5977 60.7617 43.7012C59.3164 40.7617 57.002 39.0234 54.0332 38.6523C51.3086 38.3105 47.959 39.3652 45.5273 41.3477C45.0781 41.7188 45 41.748 44.8926 41.6113C44.6289 41.2988 43.1641 40.2246 42.4121 39.7949C40.4004 38.6523 37.6074 38.0664 35.5469 38.3594ZM55.0586 40.0293C56.0156 40.293 57.1094 40.8691 57.9102 41.5332C59.5606 42.9102 60.7324 45.2637 61.1231 48.0176C61.2793 49.1504 61.1816 51.4062 60.918 52.7637C60.6543 54.1113 60.1563 55.6055 59.5508 56.8652L59.082 57.8418L58.916 57.4512C58.3691 56.1719 57.5488 54.7266 57.0801 54.1992C56.8262 53.916 56.5234 53.916 56.5234 54.1895C56.5234 54.7266 57.7441 57.2656 58.5254 58.3301C58.6523 58.5156 58.6231 58.5938 58.1641 59.2871L57.666 60.0391L57.4512 59.5703C56.9434 58.4766 54.9414 55.5371 54.2481 54.873C53.9063 54.5508 53.5938 54.5117 53.5938 54.7949C53.5938 55.1758 55.5273 58.1934 56.7383 59.6973C57.2559 60.3418 57.3047 60.459 57.1973 60.6055C57.1191 60.6934 56.875 61.0059 56.6309 61.2891L56.2109 61.7969L55.7715 61.0938C55.1465 60.0781 53.3008 57.6562 52.1094 56.2793C51.3477 55.4004 51.0352 55.1074 50.8594 55.1074C50.7324 55.1074 50.6152 55.1562 50.5957 55.2148C50.5469 55.3516 51.8555 57.3242 52.8223 58.584C53.5938 59.5898 55.4395 61.7871 55.6934 61.9922C55.8301 62.1094 55.7813 62.1973 55.2441 62.7344L54.6387 63.3398L53.9551 62.4512C52.5195 60.5664 51.0938 58.8965 49.0137 56.6406C48.2617 55.8203 47.9395 55.5469 47.793 55.5664C47.6856 55.5859 47.5781 55.6641 47.5586 55.752C47.4902 56.1133 50.9668 60.4004 53.2227 62.7344C53.6914 63.2227 54.082 63.6621 54.082 63.7109C54.082 63.8086 52.7148 64.8926 52.5 64.9707C52.4219 64.9902 52.1484 64.6777 51.8164 64.209C51.5039 63.7695 50.8789 62.959 50.4199 62.4121C49.1797 60.9375 46.5723 58.2812 46.3574 58.2812C45.8594 58.2812 46.3574 59.1504 47.8809 60.9668C48.877 62.1387 50.957 64.375 51.6211 64.9609L52.0313 65.332L51.5723 65.6348C50.8301 66.1035 50.1563 66.4941 50.1367 66.4648C49.2676 65.127 45.332 61.0156 44.9219 61.0156C44.5996 61.0156 44.6484 61.3672 45.0488 61.9629C45.4883 62.627 47.334 64.6191 48.6035 65.8203L49.6094 66.7676L48.6914 67.2266L47.7637 67.6855L47.3731 67.2559C46.5625 66.3574 46.3965 66.1914 45.5957 65.459C44.3457 64.3066 43.5156 63.6523 43.3203 63.6523C43.0469 63.6523 43.1055 64.0527 43.4375 64.5117C43.7793 64.9902 45.4199 66.6113 46.3086 67.3633C46.6602 67.6562 46.9434 67.9297 46.9434 67.959C46.9531 67.9883 46.5332 68.1641 46.0156 68.3398C44.9316 68.7109 44.9902 68.7207 43.1055 67.9297C35.833 64.8954 30.7583 58.7316 30.5 50.5C30.3321 45.3213 32.3015 39.1007 38.3398 40.1562C39.4043 40.3418 40.7227 40.8301 41.6699 41.377C42.4707 41.8457 43.7793 42.8125 44.1211 43.1934C44.4531 43.5547 44.8731 43.7598 45.1563 43.6914C45.2832 43.6523 45.7227 43.3008 46.1426 42.8906C48.8086 40.3125 52.1875 39.2285 55.0586 40.0293Z" fill="#141414"/>
</g>
<defs>
<clipPath id="clip0_1_1199">
<rect width="50" height="50" fill="white" transform="translate(20 20)"/>
</clipPath>
</defs>
</svg>
