<svg width="71" height="70" viewBox="0 0 71 70" fill="none" xmlns="http://www.w3.org/2000/svg">
<rect x="0.666626" width="70" height="70" rx="8" fill="white" fill-opacity="0.2"/>
<g clip-path="url(#clip0_1_1310)">
<path d="M27.3477 10.2345C24.5059 11.1622 22.6895 14.6193 23.1094 18.3009C23.2461 19.5607 23.4414 20.2345 23.959 21.299C25.3359 24.1505 28.3438 25.3322 30.834 24.004C31.5957 23.6037 32.6699 22.4904 33.1484 21.6212C33.9688 20.1466 34.4375 17.9787 34.291 16.3576C34.0566 13.8087 32.543 11.4552 30.5312 10.4982C29.8574 10.1759 29.7207 10.1466 28.7734 10.1271C28.1191 10.1076 27.6016 10.1466 27.3477 10.2345ZM29.0176 11.7091C30.4629 12.09 31.293 13.4767 31.9375 15.4201C32.5282 17.1922 32.3327 19.4555 31.5176 21.1134C31.1367 21.9044 30.707 22.8712 30.1016 23.2326C29.457 23.6037 28.6758 23.7794 28.0312 23.672C26.6445 23.4474 25.4141 22.4904 24.75 21.1232C24.252 20.1173 24.0859 19.4044 24.0176 18.0958C23.9297 16.2794 24.3105 14.8244 25.1992 13.5744C25.9121 12.5783 26.7129 11.9533 27.6016 11.7189C28.2949 11.5333 28.334 11.5333 29.0176 11.7091Z" fill="white"/>
<path d="M41.9082 10.3031C40.4531 10.8109 39.0273 12.2563 38.3145 13.9652C37.8359 15.0981 37.7188 15.7231 37.7285 17.1293C37.7383 18.8188 37.9629 19.8246 38.6563 21.2309C39.3301 22.5883 40.2773 23.5844 41.4004 24.1215C42.8066 24.7856 44.3789 24.6781 45.8145 23.8188C47.543 22.7836 48.6074 20.8598 48.8906 18.2914C49.1641 15.7914 48.4121 13.2816 46.918 11.6996C46.3711 11.1234 46.0488 10.8891 45.3945 10.557C44.5938 10.1664 44.5254 10.1469 43.5293 10.1176C42.6797 10.0981 42.3867 10.1273 41.9082 10.3031ZM44.6914 11.807C45.668 12.1293 46.9668 13.4965 47.4648 14.7465C48.002 16.0844 48.1582 17.891 47.8555 19.3559C47.4551 21.2895 46.4785 22.6762 45.0625 23.3305C43.5488 24.0238 42.2402 23.7406 41.0098 22.4809C40.4141 21.8656 40.3126 20.9672 40.0001 19.9613C39.5856 18.6144 39.5935 16.7866 40.0391 15.4496C40.6739 13.5453 41.4199 12.2074 42.8262 11.7387C43.4219 11.5434 43.959 11.5629 44.6914 11.807Z" fill="white"/>
<path d="M14.8281 19.2869C14.1738 19.4139 13.3047 19.9315 12.7285 20.5369C11.7324 21.5721 11.3613 22.6658 11.3516 24.5018C11.332 27.3143 12.5234 29.8241 14.4961 31.1326C15.3652 31.7088 15.9609 31.9041 16.8691 31.9041C17.4941 31.9139 17.6992 31.8651 18.2656 31.6014C20.4629 30.576 21.6152 27.3729 20.8828 24.3358C20.2383 21.6795 18.4219 19.6678 16.332 19.2869C15.6777 19.1698 15.4238 19.1698 14.8281 19.2869ZM16.293 21.035C18.0019 21.6795 19.3887 23.9647 19.6426 26.5526C19.7695 27.8514 19.3496 29.3162 18.6269 30.1463C18.1387 30.6932 17.3379 31.0448 16.5664 31.0448C14.4863 31.035 12.5723 28.5545 12.3965 25.6444C12.2012 22.3729 14.0469 20.1854 16.293 21.035Z" fill="white"/>
<path d="M55.5312 19.3067C53.4804 19.7656 51.7519 21.7383 51.1172 24.336C50.2675 27.8321 51.9179 31.3867 54.6035 31.8848C55.8047 32.1094 57.2402 31.5332 58.4121 30.3613C59.4082 29.3653 59.9746 28.3106 60.4336 26.6211C60.6777 25.7031 60.7265 23.7207 60.5215 22.8906C59.9062 20.3711 57.7285 18.8086 55.5312 19.3067ZM57.8066 21.1621C60.2383 22.5879 60.2187 27.4903 57.7675 29.9512C57.0156 30.6934 56.2832 31.0449 55.4336 31.0449C52.9238 31.0547 51.6445 27.9785 52.7578 24.6485C53.3633 22.8516 54.4277 21.543 55.6972 21.0254C56.3418 20.7617 57.2207 20.8203 57.8066 21.1621Z" fill="white"/>
<path d="M26.5468 28.3594C23.4804 28.7891 20.9511 30.9375 19.5742 34.2871C18.4511 37.002 18.2656 39.6875 18.959 43.0273C19.5351 45.8008 20.873 48.6133 22.7871 51.0547C23.5976 52.0801 25.7461 54.1797 26.8886 55.0488C29.3203 56.9043 32.1914 58.4082 35.0918 59.3555L35.8926 59.6191L37.1914 59.1895C43.3437 57.1289 48.5976 52.6855 51.1855 47.3535C53.4707 42.6562 53.6855 37.5977 51.7617 33.7012C50.3164 30.7617 48.0019 29.0234 45.0332 28.6523C42.3086 28.3105 38.959 29.3652 36.5273 31.3477C36.0781 31.7188 36 31.748 35.8926 31.6113C35.6289 31.2988 34.164 30.2246 33.4121 29.7949C31.4004 28.6523 28.6074 28.0664 26.5468 28.3594ZM46.0586 30.0293C47.0156 30.293 48.1094 30.8691 48.9101 31.5332C50.5605 32.9102 51.7324 35.2637 52.123 38.0176C52.2793 39.1504 52.1816 41.4062 51.9179 42.7637C51.6543 44.1113 51.1562 45.6055 50.5508 46.8652L50.082 47.8418L49.916 47.4512C49.3691 46.1719 48.5488 44.7266 48.0801 44.1992C47.8261 43.916 47.5234 43.916 47.5234 44.1895C47.5234 44.7266 48.7441 47.2656 49.5254 48.3301C49.6523 48.5156 49.623 48.5938 49.164 49.2871L48.666 50.0391L48.4511 49.5703C47.9433 48.4766 45.9414 45.5371 45.248 44.873C44.9062 44.5508 44.5937 44.5117 44.5937 44.7949C44.5937 45.1758 46.5273 48.1934 47.7383 49.6973C48.2558 50.3418 48.3047 50.459 48.1972 50.6055C48.1191 50.6934 47.875 51.0059 47.6308 51.2891L47.2109 51.7969L46.7715 51.0938C46.1465 50.0781 44.3008 47.6562 43.1094 46.2793C42.3476 45.4004 42.0351 45.1074 41.8594 45.1074C41.7324 45.1074 41.6152 45.1562 41.5957 45.2148C41.5469 45.3516 42.8554 47.3242 43.8222 48.584C44.5937 49.5898 46.4394 51.7871 46.6933 51.9922C46.8301 52.1094 46.7812 52.1973 46.2441 52.7344L45.6386 53.3398L44.9551 52.4512C43.5195 50.5664 42.0937 48.8965 40.0136 46.6406C39.2617 45.8203 38.9394 45.5469 38.7929 45.5664C38.6855 45.5859 38.5781 45.6641 38.5586 45.752C38.4902 46.1133 41.9668 50.4004 44.2226 52.7344C44.6914 53.2227 45.082 53.6621 45.082 53.7109C45.082 53.8086 43.7148 54.8926 43.5 54.9707C43.4219 54.9902 43.1484 54.6777 42.8164 54.209C42.5039 53.7695 41.8789 52.959 41.4199 52.4121C40.1797 50.9375 37.5722 48.2812 37.3574 48.2812C36.8594 48.2812 37.3574 49.1504 38.8808 50.9668C39.8769 52.1387 41.957 54.375 42.6211 54.9609L43.0312 55.332L42.5722 55.6348C41.8301 56.1035 41.1562 56.4941 41.1367 56.4648C40.2676 55.127 36.332 51.0156 35.9219 51.0156C35.5996 51.0156 35.6484 51.3672 36.0488 51.9629C36.4883 52.627 38.334 54.6191 39.6035 55.8203L40.6094 56.7676L39.6914 57.2266L38.7636 57.6855L38.373 57.2559C37.5625 56.3574 37.3965 56.1914 36.5957 55.459C35.3457 54.3066 34.5156 53.6523 34.3203 53.6523C34.0468 53.6523 34.1054 54.0527 34.4375 54.5117C34.7793 54.9902 36.4199 56.6113 37.3086 57.3633C37.6601 57.6562 37.9433 57.9297 37.9433 57.959C37.9531 57.9883 37.5332 58.1641 37.0156 58.3398C35.9316 58.7109 35.9902 58.7207 34.1054 57.9297C26.833 54.8954 21.7582 48.7316 21.5 40.5C21.332 35.3213 23.3015 29.1007 29.3398 30.1562C30.4043 30.3418 31.7226 30.8301 32.6699 31.377C33.4707 31.8457 34.7793 32.8125 35.1211 33.1934C35.4531 33.5547 35.873 33.7598 36.1562 33.6914C36.2832 33.6523 36.7226 33.3008 37.1426 32.8906C39.8086 30.3125 43.1875 29.2285 46.0586 30.0293Z" fill="white"/>
</g>
<defs>
<clipPath id="clip0_1_1310">
<rect width="50" height="50" fill="white" transform="translate(11 10)"/>
</clipPath>
</defs>
</svg>
