<svg width="100" height="28" viewBox="0 0 100 28" fill="none" xmlns="http://www.w3.org/2000/svg">
<g opacity="0.7" clip-path="url(#clip0_1_988)">
<path d="M94.1664 13.3554L99.4826 27.4298C97.916 27.206 96.3501 26.9258 94.7553 26.6732L91.7605 18.8966L88.6838 26.0313C87.1729 25.7788 85.6896 25.6947 84.1787 25.4986L89.5788 13.1881L84.681 0.570312H89.2142L91.9559 7.62005L94.8943 0.570312H99.4819L94.1664 13.3554ZM81.102 0.570312H76.9885V24.9676C78.3321 25.0518 79.7302 25.1073 81.102 25.2748V0.570312ZM73.435 24.6875C69.6867 24.4359 65.937 24.2129 62.1042 24.1279V0.570421H66.3006V20.1553C68.707 20.2109 71.113 20.4061 73.435 20.518V24.6875ZM57.6267 10.1117V14.308H51.8913V23.8485H47.7514V0.570312H59.5024V4.76665H51.8922V10.1118H57.6275L57.6267 10.1117ZM40.6999 4.76665V24.0723C39.3005 24.0723 37.8743 24.0723 36.5027 24.1279V4.76665H32.1658V0.570312H45.0635V4.76665H40.6999ZM27.6337 14.531C25.7876 14.531 23.6048 14.531 22.0379 14.6161V20.8546C24.5001 20.6862 26.9622 20.491 29.4519 20.407V24.4359L17.8416 25.3598V0.570312H29.4512V4.76665H22.0378V10.4187C23.661 10.4187 26.151 10.3347 27.6335 10.3347V14.5319L27.6337 14.531ZM4.38227 12.1808V26.8416C2.87277 27.0098 1.52887 27.2059 0.1026 27.4298V0.570312H4.10383L9.55908 15.8194V0.570312H13.7563V25.6947C12.2736 25.9472 10.7624 26.0313 9.1678 26.2543L4.38227 12.1808Z" fill="#141414"/>
</g>
<defs>
<clipPath id="clip0_1_988">
<rect width="99.38" height="26.8595" fill="white" transform="translate(0.1026 0.570312)"/>
</clipPath>
</defs>
</svg>
