<svg width="107" height="34" viewBox="0 0 107 34" fill="none" xmlns="http://www.w3.org/2000/svg">
<g opacity="0.7">
<path d="M35.3407 7.74316H40.9469L45.2034 19.2669H45.3072L49.3561 7.74316H54.6508L48.0065 24.7692H42.5041" fill="#141414"/>
<path d="M14.889 11.9994H9.6981V17.7093C9.6981 18.6437 9.80185 19.8894 10.7362 20.5123C11.6706 20.9276 12.7088 21.0315 13.7469 20.8238C14.1622 20.8238 14.5775 20.6162 14.889 20.4085V24.7689C14.266 24.9765 13.5393 25.0803 12.9164 25.1841C9.17896 25.5995 4.09192 24.8726 4.09192 20.2009V12.1031H0.354492V7.74281H3.98811V2.75957H9.6981V7.74281H14.889V11.9994ZM29.5272 7.74281H34.7181V24.7689H29.5272V7.74281ZM29.3195 3.27866C29.2158 1.82521 30.4616 0.475586 32.0188 0.475586C33.5761 0.475586 34.8219 1.61758 34.8219 3.17484V3.27866C34.8219 4.83592 33.4723 6.08173 32.0188 5.97791C30.5654 5.97791 29.3195 4.83592 29.3195 3.27866Z" fill="#141414"/>
<path d="M93.8946 16.2556C93.8946 18.5396 95.244 20.5121 97.6318 20.5121C100.019 20.5121 101.369 18.5396 101.369 16.2556C101.369 13.9716 100.019 11.9991 97.6318 11.9991C95.244 11.9991 93.8946 13.9716 93.8946 16.2556ZM89.2223 16.2556C89.0151 11.5838 92.6483 7.53493 97.3198 7.3273C100.123 7.22349 102.718 8.4693 104.484 10.6495C106.56 13.6602 106.872 17.5014 105.21 20.8236C102.926 24.9763 97.7358 26.4298 93.5826 24.1458C90.7797 22.5885 89.0151 19.5778 89.2223 16.2556ZM83.6165 7.74258V10.0265H83.5125C83.4085 9.81895 83.2014 9.61129 82.9934 9.40363C79.5673 6.49676 73.8574 7.11967 71.6773 11.1686C70.6391 13.3487 70.3276 15.8404 70.7429 18.2281C71.0544 20.4083 71.8849 22.6923 73.7536 23.9381C75.9337 25.2877 78.5292 25.5992 80.917 24.6648C81.7476 24.3533 82.4743 23.7305 83.0974 23.0037H83.2014V24.6648C83.3045 25.8068 82.8894 26.845 82.1628 27.6755C80.7094 29.2328 77.8025 29.129 75.8299 28.6099C74.7918 28.2984 73.7536 27.8832 72.8193 27.2602L70.2238 30.9976C71.4696 31.932 72.8192 32.5549 74.2726 32.9702C78.0102 33.9046 83.0974 33.9046 86.0042 30.9976C87.6648 29.3366 88.288 26.845 88.288 23.6266V7.74258H83.6165ZM82.3705 19.474C80.917 21.0312 78.5292 21.1351 76.972 19.6816L76.7643 19.474C75.4147 17.6052 75.4147 15.1136 76.7643 13.2449C78.2177 11.6876 80.6055 11.5838 82.1628 13.0372L82.3705 13.2449C83.7197 15.0098 83.7197 17.6052 82.3705 19.474C82.9934 18.6434 81.6438 20.2007 82.3705 19.474Z" fill="#141414"/>
<path d="M16.2384 7.74325H21.5331V10.5463H21.6369C22.0522 9.61195 22.7789 8.7814 23.6094 8.15851C25.0629 7.43179 26.724 7.12034 28.2812 7.53561V12.3112C27.243 11.9998 24.9591 11.5845 23.4019 12.5188C22.3636 13.1417 21.6369 13.8684 21.6369 17.6059V24.6655H16.3422L16.2384 7.74325Z" fill="#141414"/>
<path d="M59.53 18.0211C58.4918 18.644 57.7651 19.8899 58.6995 20.928C59.6338 21.8624 61.2949 21.7585 62.4369 21.3433C63.7865 21.0318 64.7209 19.786 64.7209 18.4364V17.3982C64.8247 17.3982 60.8796 17.1906 59.53 18.0211ZM64.8247 22.6929C64.2017 23.5235 63.3712 24.2502 62.4369 24.6654C58.6995 26.2227 53.4048 24.6654 53.3009 19.9937C53.3009 15.1142 58.5956 14.1799 62.4369 14.0761H64.8247C64.8247 13.2456 64.5132 12.415 63.7865 11.8959C63.1235 11.393 62.3276 11.0954 61.4973 11.0402C60.6669 10.9848 59.8386 11.174 59.1147 11.5845C58.388 11.9997 57.7651 12.415 57.246 13.0379L54.3392 10.131C55.2735 9.19665 56.5193 8.57375 57.7651 8.05467C60.1529 7.22413 62.6445 7.12031 65.0323 7.74321C67.2125 8.36612 68.7697 10.131 69.185 12.3112C69.3927 13.557 69.4964 14.8028 69.4964 16.0486V24.6654H64.7209L64.8247 22.6929Z" fill="#141414"/>
</g>
</svg>
