<svg width="129" height="28" viewBox="0 0 129 28" fill="none" xmlns="http://www.w3.org/2000/svg">
<g opacity="0.7">
<path d="M125.175 9.5417C125.175 8.71416 125.846 8.0293 126.688 8.0293C127.53 8.0293 128.2 8.71416 128.2 9.5417C128.2 10.3835 127.53 11.0541 126.688 11.0541C125.846 11.0541 125.175 10.3693 125.175 9.5417ZM125.461 9.5417C125.461 10.2266 126.003 10.783 126.688 10.783C127.358 10.783 127.915 10.2266 127.915 9.5417C127.915 8.85684 127.358 8.30038 126.688 8.30038C126.003 8.30038 125.461 8.85684 125.461 9.5417ZM126.46 10.3978H126.103V8.67136H126.788C127.13 8.67136 127.401 8.84256 127.401 9.21353C127.401 9.47039 127.258 9.6273 127.073 9.7129L127.43 10.3978H127.044L126.73 9.76999H126.46V10.3978ZM126.759 9.01382H126.46V9.44182H126.759C126.888 9.44182 127.03 9.38479 127.03 9.22782C127.03 9.05662 126.888 9.01382 126.759 9.01382Z" fill="#141414"/>
<path fill-rule="evenodd" clip-rule="evenodd" d="M54.3734 21.4554L48.2093 12.1955V21.4554H45.4554V8.0293H48.6374L54.459 16.7898V8.0293H57.2129V21.4554H54.3734ZM63.5054 12.0957C60.723 12.0957 58.4828 14.1645 58.4828 16.904C58.4828 19.6719 60.6945 21.6694 63.4769 21.6694C66.2448 21.6694 68.4855 19.6148 68.4855 16.8469C68.471 14.1074 66.2592 12.0957 63.5054 12.0957ZM63.4769 19.2011C62.2213 19.2011 61.2082 18.2451 61.2082 16.8469C61.2082 15.4772 62.207 14.5212 63.4484 14.5212C64.704 14.5212 65.7173 15.4772 65.7173 16.8469C65.7312 18.2451 64.7323 19.2011 63.4769 19.2011ZM75.4058 12.2954V14.9207C75.0489 14.8494 74.6637 14.8494 74.5492 14.8494C73.2652 14.8494 72.3664 15.7482 72.3664 17.4461V21.4554H69.7411V12.2954H72.2808V13.6366H72.3091C72.8089 12.595 73.736 12.1955 74.6782 12.1955C74.8922 12.1955 75.2201 12.2383 75.4058 12.2954ZM83.0682 8.0293V13.3513H83.0393C82.0977 12.2383 80.8275 12.1385 80.3001 12.1385C77.6742 12.1385 75.9049 14.5497 75.9049 16.8754C75.9049 19.3437 77.6031 21.6409 80.2573 21.6409C80.8703 21.6409 82.2406 21.5553 83.111 20.2997H83.1393V21.4697H85.7363V8.0293H83.0682ZM80.8703 19.2011C79.6147 19.2011 78.6019 18.2451 78.6019 16.8469C78.6019 15.4772 79.6147 14.5355 80.8703 14.5355C82.126 14.5355 83.1393 15.4772 83.1393 16.8469C83.1249 18.2451 82.126 19.2011 80.8703 19.2011ZM91.4154 21.4554L86.5495 8.0293H89.56L93.0418 18.2309L96.5376 8.0293H99.4914L94.6116 21.4554H91.4154ZM105.627 8.0293H100.633V21.4554H103.415V16.7185H105.513C108.324 16.7185 110.421 15.2917 110.421 12.3239C110.421 9.48462 108.309 8.0293 105.627 8.0293ZM105.398 14.1359H103.415V10.6546H105.385C106.54 10.6546 107.625 11.0969 107.625 12.4095C107.625 13.6509 106.497 14.1359 105.398 14.1359ZM120.738 21.4554L114.559 12.1955V21.4554H111.82V8.0293H115.001L120.823 16.7898V8.0293H123.577V21.4554H120.738Z" fill="#141414"/>
<path fill-rule="evenodd" clip-rule="evenodd" d="M3.94745 27.833C1.8642 24.9652 0.637085 21.4268 0.637085 17.5887C0.637085 7.95786 8.42784 0.15332 18.045 0.15332C27.6622 0.15332 35.453 7.95786 35.453 17.603C35.453 21.4268 34.2259 24.9652 32.1426 27.8473L23.7811 14.2357L22.9678 15.6054L23.7811 19.4007L18.0307 9.55587L14.4921 15.5626L15.3197 19.4007L12.309 14.25L3.94745 27.833Z" fill="#141414"/>
</g>
</svg>
