<svg width="114" height="34" viewBox="0 0 114 34" fill="none" xmlns="http://www.w3.org/2000/svg">
<g opacity="0.7" clip-path="url(#clip0_1_1000)">
<path d="M0.590977 6.67773H4.52822V15.4252H12.8321V6.67773H16.7744V28.1499H12.8321V19.2188H4.52822V28.1499H0.590977V6.67773ZM29.2476 21.1561C29.2476 22.9536 27.7831 24.4163 25.9861 24.4163C24.1884 24.4163 22.7249 22.9536 22.7249 21.1561V11.9116H18.9909V21.1561C18.9909 25.0129 22.1292 28.1499 25.9861 28.1499C29.8422 28.1499 32.9801 25.0129 32.9801 21.1561V11.9116H29.2476V21.1561ZM43.4037 12.0199C41.5516 12.0199 40.2587 12.5574 39.0102 13.7829V6.67773H35.2642V19.8456C35.2642 24.7745 38.8278 28.1499 42.8314 28.1499C47.2823 28.1499 51.1821 24.7143 51.1821 20.0851C51.1821 15.5147 47.586 12.0199 43.4037 12.0199ZM43.4968 24.6844C40.9585 24.6844 39.0175 22.5645 39.0175 20.0851C39.0175 17.6053 40.9585 15.4847 43.4968 15.4847C45.6476 15.4847 47.5898 17.6053 47.5898 20.0851C47.5898 22.5645 45.6476 24.6844 43.4968 24.6844ZM57.4736 12.9636C57.4736 11.0806 58.7284 10.4835 60.1022 10.4835C61.2076 10.4835 62.6713 11.3199 63.6262 12.3357L66.0751 9.46836C64.8512 7.82568 62.3725 6.6903 60.341 6.6903C56.2783 6.6903 53.3509 9.05019 53.3509 12.9636C53.3509 20.2219 62.2827 17.9211 62.2827 21.9845C62.2827 23.2377 61.0582 24.344 59.6551 24.344C57.4438 24.344 56.7266 23.2686 55.7116 22.1331L52.9928 24.9405C54.7263 27.0615 56.876 28.1374 59.4456 28.1374C63.2982 28.1374 66.4048 25.7478 66.4048 22.0134C66.4048 13.9488 57.4736 16.4582 57.4736 12.9636ZM76.2667 11.8095C72.2636 11.8095 68.6994 15.183 68.6994 20.1129V33.3148H72.445V26.1758C73.6937 27.4005 74.986 27.9389 76.8389 27.9389C81.0212 27.9389 84.6174 24.4445 84.6174 19.8741C84.6174 15.2443 80.7169 11.8095 76.2667 11.8095ZM76.9321 24.4745C74.3944 24.4745 72.4527 22.3517 72.4527 19.8741C72.4527 17.3942 74.3944 15.2736 76.9321 15.2736C79.0828 15.2736 81.0251 17.3942 81.0251 19.8741C81.0251 22.3517 79.0828 24.4745 76.9321 24.4745ZM112.191 24.6844C109.982 24.6844 109.354 23.7291 109.354 22.2649V15.7834H112.788V12.498H109.354V8.16644L105.562 9.86867V23.0714C105.562 26.4471 107.891 28.1499 111.085 28.1499C111.563 28.1499 112.221 28.1191 112.58 28.0306L113.506 24.6258C113.088 24.6547 112.61 24.6844 112.191 24.6844Z" fill="#141414"/>
<path d="M102.312 15.975C101.594 14.7394 100.584 13.7489 99.3209 13.0033C98.3776 12.4539 97.399 12.1052 96.2958 11.9555V8.02967C97.399 7.56144 98.0832 6.52509 98.0832 5.31602C98.0832 3.66808 96.7617 2.33266 95.1149 2.33266C93.467 2.33266 92.1224 3.66808 92.1224 5.31602C92.1224 6.52509 92.7674 7.56144 93.8701 8.02967V11.9572C92.988 12.0847 92.0728 12.3597 91.2376 12.7823C89.5312 11.4863 83.936 7.23479 80.6628 4.75164C80.74 4.47176 80.8001 4.18328 80.8001 3.87892C80.8001 2.05366 79.3221 0.574219 77.4961 0.574219C75.6702 0.574219 74.1926 2.05366 74.1926 3.87892C74.1926 5.70396 75.6718 7.18385 77.4978 7.18385C78.1202 7.18385 78.6963 7.0017 79.1936 6.70217L79.8844 7.22619L89.3758 14.065C88.8741 14.5257 88.4066 15.0497 88.0328 15.6377C87.2753 16.8364 86.8122 18.1553 86.8122 19.5939V19.8941C86.8122 20.904 87.0046 21.8574 87.331 22.7531C87.6187 23.5351 88.0399 24.2462 88.5609 24.8891L85.4107 28.0469C84.9543 27.877 84.4586 27.8422 83.9828 27.9465C83.5071 28.0508 83.071 28.29 82.7275 28.6353C82.4899 28.872 82.3013 29.1536 82.1729 29.4636C82.045 29.7737 81.9794 30.1061 81.9805 30.4416C81.9805 31.1238 82.2462 31.765 82.7292 32.2473C82.9657 32.4853 83.2468 32.674 83.5567 32.8025C83.8671 32.931 84.1995 32.9967 84.5347 32.9958C84.8705 32.9967 85.2029 32.931 85.5133 32.8025C85.8231 32.674 86.1048 32.4853 86.3413 32.2473C86.579 32.0106 86.7675 31.7292 86.896 31.4193C87.0239 31.1093 87.09 30.7771 87.0889 30.4416C87.0889 30.1776 87.0481 29.92 86.9715 29.6752L90.2275 26.4188C90.6736 26.7271 91.156 26.9867 91.6742 27.2106C92.6963 27.6526 93.8249 27.9219 95.0598 27.9219H95.2858C96.6509 27.9219 97.9387 27.6012 99.1494 26.9453C100.425 26.2521 101.424 25.3042 102.178 24.094C102.936 22.8806 103.354 21.5398 103.354 20.0648V19.9911C103.354 18.5401 103.018 17.2014 102.312 15.975ZM98.334 22.806C97.4503 23.7881 96.4342 24.3931 95.2858 24.3931H95.0967C94.4407 24.3931 93.7989 24.2118 93.171 23.8821C92.4631 23.519 91.925 23.0012 91.4845 22.3455C91.0292 21.7019 90.7822 20.9993 90.7822 20.2542V20.028C90.7822 19.2956 90.9227 18.601 91.2772 17.9451C91.6554 17.2281 92.1671 16.6705 92.8474 16.2272C93.515 15.787 94.2284 15.5711 95.0229 15.5711H95.0967C95.8167 15.5711 96.4987 15.7131 97.1426 16.0424C97.7982 16.3936 98.334 16.8733 98.7492 17.5042C99.1527 18.1354 99.3925 18.8163 99.4697 19.558C99.4819 19.7121 99.4879 19.8701 99.4879 20.0209C99.4879 21.0275 99.1037 21.9598 98.334 22.806Z" fill="#141414"/>
</g>
<defs>
<clipPath id="clip0_1_1000">
<rect width="113.57" height="33.63" fill="white" transform="translate(0.429932 0.18457)"/>
</clipPath>
</defs>
</svg>
