<svg width="99" height="30" viewBox="0 0 99 30" fill="none" xmlns="http://www.w3.org/2000/svg">
<g opacity="0.7">
<path d="M79.5757 24.9546H19.79L24.5586 29.7231L79.5757 24.9546ZM89.1728 21.9146V12.3774C89.1728 10.5893 90.4243 9.09907 92.2124 9.09907C94.0012 9.09907 95.2527 10.5893 95.2527 12.3774V21.9146H98.9481V12.3774C98.9481 8.44339 96.2656 5.28422 92.3316 5.28422C90.5435 5.28422 89.1728 6.29754 89.1728 6.29754V5.64186H85.4774V21.855H89.1728V21.9146ZM76.9535 5.22461C72.6615 5.22461 69.6216 8.97989 69.6216 13.7484C69.6216 18.7554 73.4365 22.2722 77.3113 22.2722C79.2782 22.2722 81.7215 21.6165 83.8078 18.6362L80.5297 16.7288C78.0261 20.4244 73.7939 18.5766 73.3172 14.8214H83.927C84.8811 9.09907 81.126 5.22461 76.9535 5.22461ZM80.1719 11.6622H73.5554C74.3306 7.90696 79.4564 7.66852 80.1719 11.6622Z" fill="#141414"/>
<path d="M68.4295 18.0404C68.0719 18.2788 67.6546 18.4577 67.1777 18.4577C66.5817 18.4577 65.4491 17.9808 65.4491 16.4907V9.51662H68.6083V5.64215H65.4491V1.58887H61.7535V5.64215H59.7864V9.51662H61.7535V16.4907C61.7535 20.1267 64.4954 22.2725 67.2374 22.2725C68.2507 22.2725 69.6812 21.9149 70.8138 21.2592L68.4295 18.0404ZM54.8391 5.64215V15.1793C54.8391 16.9675 53.5873 18.4577 51.7991 18.4577C50.0108 18.4577 48.7591 16.9675 48.7591 15.1793V5.64215H45.0635V15.1793C45.0635 19.1133 47.7458 22.2725 51.6799 22.2725C53.4681 22.2725 54.8391 21.2592 54.8391 21.2592V21.8553H58.5347V5.64215H54.8391Z" fill="#141414"/>
<path d="M38.1483 13.2717L44.4667 5.64199H39.3404L34.8699 11.3047V0.277344H31.1146V21.9147H34.8699V15.2387L40.3538 21.9147H45.48L38.1483 13.2717ZM25.3328 5.64199V6.35727C24.2002 5.64199 23.2466 5.22474 21.8755 5.22474C17.7031 5.22474 14.4843 9.03957 14.4843 13.7486C14.4843 18.4576 17.6434 22.2723 21.8755 22.2723C23.2466 22.2723 24.2599 21.8551 25.3328 21.1399V21.8551H29.0284V5.64199H25.3328ZM21.8159 18.3979C19.7297 18.3979 18.2396 16.3712 18.2396 13.8082C18.2396 11.2451 19.7297 9.21838 21.8159 9.21838C23.9022 9.21838 25.3328 11.2451 25.3328 13.8082C25.3923 16.3712 23.9022 18.3979 21.8159 18.3979Z" fill="#141414"/>
<path d="M3.87446 21.9149V15.5965H6.55679L11.2658 21.8553H16.0939L10.3716 14.2852C12.1599 13.0334 13.2924 10.9472 13.2924 8.56294C13.2924 4.68844 10.1332 1.58887 6.31836 1.58887H0V21.8553H3.87446V21.9149ZM3.87446 5.46333H6.37796C8.10657 5.46333 9.53713 6.8939 9.53713 8.62249C9.53713 10.3511 8.10657 11.7817 6.37796 11.7817H3.87446V5.46333Z" fill="#141414"/>
</g>
</svg>
