<?xml version="1.0" encoding="utf-8"?>
<svg xmlns="http://www.w3.org/2000/svg" viewBox="0 0 524.09 358.9617" width="524.09px" height="358.962px" preserveAspectRatio="none"><g id="object-5" transform="matrix(1, 0, 0, 1, 0, -5.684341886080802e-14)"><path d="m32.41,126.63h459.26c17.9,0,32.41,14.51,32.41,32.41h0c0,17.9-14.51,32.41-32.41,32.41H32.41c-17.9,0-32.41-14.51-32.41-32.41h0c0-17.9,14.51-32.41,32.41-32.41Z" stroke-width="0" style="fill: rgb(185, 255, 102);" id="object-0"/><path d="m424.62,93.95h95.35c2.28,0,4.12,1.84,4.12,4.11h0c0,2.27-1.84,4.11-4.12,4.11h-95.35c-2.28,0-4.12-1.84-4.12-4.11h0c0-2.27,1.84-4.11,4.12-4.11Z" stroke-width="0" style="" id="object-1"/><path d="m4.12,0h95.35c2.28,0,4.12,1.84,4.12,4.11h0c0,2.27-1.84,4.11-4.12,4.11H4.12C1.84,8.23,0,6.39,0,4.11h0C0,1.84,1.84,0,4.12,0Z" stroke-width="0" style="" id="object-2"/><path d="m4.12,35.91h279.87c2.28,0,4.12,1.84,4.12,4.12h0c0,2.27-1.84,4.11-4.12,4.11H4.12c-2.28,0-4.12-1.84-4.12-4.11h0c0-2.27,1.84-4.12,4.12-4.12Z" stroke-width="0" style="" id="object-3"/><path d="m233.77,260.88c0,21.56,17.48,39.04,39.04,39.04,6.53,0,12.68-1.6,18.08-4.43l37.83,60c2.32,3.67,7.27,4.59,10.75,1.99h0c3.25-2.43,3.95-7.01,1.58-10.31l-41.61-57.75c7.63-7.13,12.41-17.28,12.41-28.54,0-21.56-17.48-39.04-39.04-39.04s-39.04,17.48-39.04,39.04Zm5.36,0c0-18.6,15.08-33.69,33.69-33.69s33.69,15.08,33.69,33.69c0,18.6-15.08,33.69-33.69,33.69-18.6,0-33.69-15.08-33.69-33.69Z" stroke-width="0" style="" id="object-4"/></g></svg>