<svg width="71" height="194" viewBox="0 0 71 194" fill="none" xmlns="http://www.w3.org/2000/svg">
<g clip-path="url(#clip0_4768_5550)">
<path d="M27.8711 174.401C36.1554 174.401 42.8711 167.686 42.8711 159.401C42.8711 151.117 36.1554 144.401 27.8711 144.401C19.5868 144.401 12.8711 151.117 12.8711 159.401C12.8711 167.686 19.5868 174.401 27.8711 174.401Z" fill="white"/>
<path d="M27.8711 144.401C24.9044 144.401 22.0043 145.281 19.5376 146.929C17.0708 148.578 15.1482 150.92 14.0129 153.661C12.8776 156.402 12.5805 159.418 13.1593 162.328C13.7381 165.237 15.1667 167.91 17.2645 170.008C19.3623 172.106 22.035 173.534 24.9447 174.113C27.8545 174.692 30.8705 174.395 33.6114 173.26C36.3523 172.124 38.6949 170.202 40.3431 167.735C41.9913 165.268 42.8711 162.368 42.8711 159.401C42.8711 155.423 41.2908 151.608 38.4777 148.795C35.6647 145.982 31.8494 144.401 27.8711 144.401ZM24.2796 165.951C24.2796 166.063 24.235 166.17 24.1558 166.249C24.0765 166.329 23.9691 166.373 23.857 166.373H20.4767C20.3647 166.373 20.2572 166.329 20.178 166.249C20.0987 166.17 20.0542 166.063 20.0542 165.951V157.922C20.0542 157.81 20.0987 157.703 20.178 157.624C20.2572 157.544 20.3647 157.5 20.4767 157.5H23.857C23.9691 157.5 24.0766 157.544 24.1558 157.624C24.235 157.703 24.2796 157.81 24.2796 157.922V165.951ZM35.688 159.613C35.688 159.949 35.5544 160.271 35.3167 160.509C35.079 160.747 34.7566 160.88 34.4204 160.88V160.902C34.659 160.95 34.8734 161.08 35.0274 161.268C35.1814 161.457 35.2655 161.693 35.2655 161.937C35.2655 162.18 35.1814 162.416 35.0274 162.605C34.8734 162.793 34.659 162.923 34.4204 162.972V163.415C34.6445 163.415 34.8594 163.505 35.0179 163.663C35.1764 163.821 35.2655 164.036 35.2655 164.261C35.2655 164.485 35.1764 164.7 35.0179 164.858C34.8594 165.017 34.6445 165.106 34.4204 165.106H25.9697C25.8576 165.106 25.7502 165.061 25.6709 164.982C25.5917 164.903 25.5472 164.795 25.5472 164.683V157.922C25.5472 155.81 28.9274 152.852 28.9274 152.852V151.822C28.9271 151.509 29.0417 151.206 29.2496 150.972C29.4574 150.738 29.744 150.588 30.0551 150.551C30.3661 150.514 30.6799 150.592 30.9369 150.771C31.1939 150.95 31.3763 151.217 31.4494 151.522L31.4627 151.584C31.6269 153.073 31.2636 154.573 30.4362 155.821H33.0375C33.076 155.818 33.1133 155.81 33.1528 155.81H34.4204C34.0842 156.482 34.0289 157.261 34.2666 157.974C34.5043 158.687 35.0156 159.276 35.688 159.613Z" fill="black"/>
<path d="M49.8711 93.4014C61.4691 93.4014 70.8711 83.9993 70.8711 72.4014C70.8711 60.8034 61.4691 51.4014 49.8711 51.4014C38.2731 51.4014 28.8711 60.8034 28.8711 72.4014C28.8711 83.9993 38.2731 93.4014 49.8711 93.4014Z" fill="white"/>
<path d="M49.8711 51.4014C45.7177 51.4014 41.6576 52.633 38.2042 54.9405C34.7507 57.248 32.0591 60.5278 30.4696 64.365C28.8802 68.2023 28.4643 72.4247 29.2746 76.4983C30.0849 80.5719 32.0849 84.3137 35.0218 87.2506C37.9587 90.1875 41.7006 92.1876 45.7742 92.9979C49.8478 93.8082 54.0702 93.3923 57.9075 91.8028C61.7447 90.2134 65.0244 87.5218 67.332 84.0683C69.6395 80.6149 70.8711 76.5548 70.8711 72.4014C70.8711 66.8318 68.6586 61.4904 64.7203 57.5521C60.7821 53.6139 55.4406 51.4014 49.8711 51.4014ZM44.8429 81.5704C44.8429 81.7273 44.7806 81.8777 44.6697 81.9886C44.5587 82.0996 44.4083 82.1619 44.2514 82.1619H39.519C39.3621 82.1619 39.2117 82.0996 39.1008 81.9886C38.9898 81.8777 38.9275 81.7273 38.9275 81.5704V70.3309C38.9275 70.174 38.9898 70.0236 39.1008 69.9127C39.2117 69.8017 39.3621 69.7394 39.519 69.7394H44.2514C44.4083 69.7394 44.5588 69.8017 44.6697 69.9127C44.7807 70.0236 44.8429 70.174 44.8429 70.3309V81.5704ZM60.8147 72.6971C60.8147 73.1678 60.6278 73.6192 60.295 73.952C59.9622 74.2848 59.5108 74.4718 59.0401 74.4718V74.5016C59.3741 74.5698 59.6743 74.7512 59.8899 75.0153C60.1055 75.2793 60.2232 75.6098 60.2232 75.9507C60.2232 76.2915 60.1055 76.6219 59.8899 76.886C59.6743 77.15 59.3741 77.3315 59.0401 77.3997V78.0211C59.3539 78.0211 59.6548 78.1457 59.8767 78.3676C60.0986 78.5895 60.2232 78.8904 60.2232 79.2042C60.2232 79.5179 60.0986 79.8189 59.8767 80.0407C59.6548 80.2626 59.3539 80.3873 59.0401 80.3873H47.2091C47.0522 80.3873 46.9018 80.3249 46.7908 80.214C46.6799 80.1031 46.6176 79.9526 46.6175 79.7957V70.3309C46.6175 67.3732 51.35 63.2323 51.35 63.2323V61.7902C51.3494 61.3517 51.5099 60.9282 51.8009 60.6002C52.0919 60.2721 52.4932 60.0623 52.9286 60.0105C53.3641 59.9587 53.8034 60.0685 54.1632 60.3192C54.523 60.5698 54.7784 60.9438 54.8808 61.3702C54.8871 61.399 54.8933 61.4281 54.8993 61.4577C55.4908 64.4154 53.4623 67.3895 53.4623 67.3895H57.1041C57.1581 67.3845 57.2102 67.3732 57.2655 67.3732H59.0401C59.5108 67.3732 59.9622 67.5602 60.295 67.893C60.6278 68.2258 60.8148 68.6772 60.8148 69.1478C60.8148 69.6185 60.6278 70.0699 60.295 70.4027C59.9622 70.7355 59.5108 70.9225 59.0401 70.9225C59.5108 70.9225 59.9622 71.1095 60.295 71.4423C60.6278 71.7751 60.8147 72.2265 60.8147 72.6971Z" fill="black"/>
<path d="M56.8862 193.426C56.6832 193.615 56.416 193.721 56.1385 193.721C55.8611 193.721 55.5939 193.615 55.3909 193.426L54.8169 192.907C50.119 188.597 47.4062 185.796 47.4062 182.305C47.4062 179.457 49.2086 177.256 52.0347 177.256C52.8178 177.26 53.5905 177.435 54.2994 177.768C55.0084 178.1 55.6365 178.583 56.1404 179.183C56.6435 178.583 57.271 178.1 57.9793 177.768C58.6876 177.435 59.4598 177.26 60.2424 177.256C63.0721 177.256 64.8708 179.449 64.8708 182.305C64.8708 185.789 62.1581 188.589 57.4601 192.907L56.8862 193.426Z" fill="#B9FF66"/>
<path d="M22.5712 133.699C22.1822 134.061 21.6702 134.263 21.1385 134.263C20.6069 134.263 20.095 134.061 19.706 133.699L18.6061 132.704C9.60422 124.444 4.40625 119.078 4.40625 112.388C4.40625 106.931 7.85987 102.714 13.275 102.714C14.7755 102.722 16.2562 103.057 17.6146 103.694C18.973 104.332 20.1766 105.257 21.142 106.406C22.1061 105.257 23.3084 104.332 24.6657 103.695C26.0229 103.057 27.5026 102.722 29.002 102.714C34.4242 102.714 37.8708 106.917 37.8708 112.388C37.8708 119.064 32.6728 124.43 23.6709 132.704L22.5712 133.699Z" fill="#B9FF66"/>
<path d="M23.9993 40.2437C23.494 40.7144 22.8291 40.9761 22.1386 40.9761C21.448 40.9761 20.7831 40.7144 20.2779 40.2437L18.8494 38.9517C7.15749 28.2242 0.40625 21.2547 0.40625 12.5654C0.40625 5.47744 4.8919 0 11.9252 0C13.8741 0.011113 15.7973 0.445694 17.5616 1.27364C19.3259 2.10158 20.8891 3.30311 22.1431 4.79501C23.3953 3.30333 24.9569 2.10185 26.7197 1.27386C28.4825 0.445883 30.4043 0.011206 32.3519 0C39.3943 0 43.8708 5.45925 43.8708 12.5654C43.8708 21.2364 37.1196 28.2061 25.4277 38.9517L23.9993 40.2437Z" fill="#B9FF66"/>
</g>
<defs>
<clipPath id="clip0_4768_5550">
<rect width="71" height="194" fill="white"/>
</clipPath>
</defs>
</svg>
