<svg width="606" height="475" viewBox="0 0 606 475" fill="none" xmlns="http://www.w3.org/2000/svg">
<path d="M3.41829 128.322C6.12194 138.097 10.3433 147.387 15.9283 155.852C28.4083 174.722 46.2683 189.152 65.8983 200.702C67.2583 201.512 68.6383 202.302 70.0183 203.082H83.7883L84.2683 201.982V201.972L84.8283 200.702L84.8983 200.552L84.9283 200.702L85.4784 203.082H92.2382C92.7982 202.292 93.3483 201.502 93.8883 200.702C94.6783 199.532 95.4383 198.352 96.1583 197.152C97.4292 195.054 98.5648 192.876 99.5582 190.632C99.6783 190.382 99.7783 190.132 99.8783 189.882L99.4282 189.392L101.298 181.212L97.5382 180.592L101.658 167.882C101.508 167.412 101.338 166.942 101.158 166.472C98.8482 160.622 94.5082 156.252 89.3582 152.582C84.0582 148.792 77.8882 145.752 72.2183 142.592C69.5581 141.102 66.9383 139.532 64.3882 137.872V137.862C61.1282 135.752 57.9648 133.496 54.8982 131.092C54.8458 131.059 54.7957 131.022 54.7482 130.982C54.7058 130.952 54.6657 130.918 54.6282 130.882C40.88 120.142 29.2461 106.941 20.3181 91.9523L20.3143 91.9516L20.311 91.9494L20.3088 91.9461L20.3081 91.9423C20.0082 91.4623 19.7283 90.9823 19.4483 90.4923V90.4823C15.7921 84.1939 12.6454 77.6229 10.0383 70.8323V70.8223C9.83819 70.3223 9.65825 69.8223 9.46825 69.3223C9.20825 69.7623 8.95825 70.2023 8.71825 70.6423L8.71441 70.643L8.71114 70.6451L8.70897 70.6484L8.70827 70.6523C-0.991728 88.0023 -1.91179 108.902 3.41829 128.322Z" fill="#F3F3F3"/>
<path d="M8.7098 70.652C8.61267 79.9114 9.57556 89.1515 11.5797 98.192C12.4803 102.329 13.602 106.415 14.9398 110.432C17.5368 118.291 20.9311 125.864 25.0697 133.032C25.2997 133.422 25.5197 133.802 25.7597 134.182V134.192C27.5285 137.174 29.4476 140.065 31.5097 142.852C34.6304 147.292 38.4857 151.168 42.9097 154.312C46.5233 156.7 50.6097 158.279 54.8897 158.942C55.6897 159.092 56.5097 159.202 57.3397 159.302C60.6498 159.692 64.0697 159.842 67.3497 160.542C69.0111 160.87 70.6286 161.39 72.1698 162.092C77.4498 164.542 80.4198 169.672 81.7198 175.152C81.9498 176.112 82.1297 177.082 82.2697 178.052C83.3597 185.502 82.1597 193.242 82.7797 200.702C82.8497 201.492 82.9397 202.292 83.0496 203.082H83.7898L84.2697 201.982V201.972C84.2198 201.552 84.1797 201.132 84.1397 200.702C83.8997 197.037 83.8697 193.361 84.0496 189.692C84.0896 188.042 84.1197 186.382 84.0997 184.722C84.0797 183.392 84.0298 182.062 83.9298 180.742V180.732C83.8597 179.912 83.7798 179.102 83.6698 178.292C83.3522 175.812 82.7412 173.378 81.8497 171.042C80.9797 168.635 79.6105 166.439 77.832 164.598C76.0534 162.758 73.9056 161.314 71.5297 160.362C70.0783 159.818 68.5828 159.4 67.0596 159.112C63.7098 158.472 60.2497 158.312 56.8797 157.892C56.5197 157.852 56.1597 157.802 55.8096 157.742C55.3596 157.672 54.9197 157.592 54.4798 157.512C50.0704 156.729 45.9057 154.924 42.3196 152.242C38.0581 148.868 34.3529 144.846 31.3396 140.322C29.6997 137.972 28.1396 135.572 26.6897 133.102C26.6897 133.101 26.6895 133.099 26.689 133.098C26.6885 133.097 26.6878 133.096 26.6869 133.095C26.6859 133.094 26.6848 133.093 26.6836 133.093C26.6824 133.092 26.681 133.092 26.6797 133.092C26.6097 132.972 26.5397 132.862 26.4697 132.742L26.4597 132.722C20.2402 122.093 15.6999 110.567 12.9996 98.552C12.9096 98.112 12.8096 97.672 12.7097 97.232C10.8537 88.5567 9.95831 79.7033 10.0397 70.832V70.822C10.0397 70.402 10.0496 69.992 10.0596 69.572C10.0796 68.712 8.74966 68.522 8.72976 69.382C8.71976 69.802 8.70978 70.222 8.71978 70.642C8.71847 70.642 8.71715 70.6422 8.71594 70.6427C8.71472 70.6432 8.7136 70.644 8.71267 70.6449C8.71174 70.6458 8.71103 70.6469 8.71053 70.6481C8.71004 70.6494 8.70978 70.6507 8.7098 70.652Z" fill="white"/>
<path d="M26.3287 133.911C22.5182 135.846 18.1438 136.364 13.9866 135.372C9.82947 134.38 6.16031 131.943 3.63442 128.495C3.12573 127.796 4.18859 126.972 4.69796 127.673C7.04414 130.887 10.4622 133.158 14.3352 134.074C18.2082 134.989 22.2811 134.491 25.8187 132.667C26.5879 132.272 27.0936 133.518 26.3287 133.911Z" fill="white"/>
<path d="M54.3511 157.911C57.1356 149.629 56.6966 140.603 53.1216 132.631C52.7667 131.842 54.0107 131.333 54.3651 132.121C58.0699 140.424 58.5076 149.818 55.5911 158.429C55.3125 159.25 54.0741 158.727 54.3511 157.911Z" fill="white"/>
<path d="M12.3222 97.3544C13.9526 96.9127 15.4478 96.073 16.6735 94.9107C17.8992 93.7484 18.8171 92.2998 19.3446 90.6951C19.6126 89.8714 20.8508 90.3954 20.5846 91.2138C19.9935 92.984 18.9779 94.5825 17.6265 95.8697C16.2752 97.1569 14.6292 98.0936 12.8323 98.5979C12.6669 98.6596 12.4842 98.6561 12.3214 98.5879C12.1585 98.5198 12.0277 98.3922 11.9555 98.2311C11.8888 98.0662 11.8899 97.8815 11.9586 97.7173C12.0272 97.5532 12.1579 97.4227 12.3222 97.3544Z" fill="white"/>
<path d="M64.3888 137.862V137.872C64.6989 145.013 65.5919 152.117 67.0587 159.112V159.122C67.1388 159.602 67.2488 160.072 67.3487 160.542C69.7623 171.361 73.146 181.941 77.4588 192.152C78.6488 195.032 79.8954 197.882 81.1988 200.702C81.5587 201.502 81.9288 202.292 82.3087 203.082H83.7888L84.2688 201.982V201.972L84.8287 200.702L84.8988 200.552L84.9288 200.702L85.4789 203.082H99.7788L102.559 200.702L106.609 197.232L100.949 191.052L100.019 190.032L99.8787 189.882L99.4287 189.392L101.299 181.212L97.5387 180.592L101.659 167.882L103.609 161.872L104.099 160.362L106.949 151.572L115.549 153.182L116.949 148.282C114.371 142.307 112.226 136.155 110.529 129.872C110.519 129.822 110.499 129.782 110.489 129.732C105.945 112.81 104.582 95.1919 106.469 77.7723V77.7623C106.529 77.2023 106.599 76.6323 106.679 76.0823V76.0623C107.536 68.8433 108.981 61.7063 110.999 54.7223C111.139 54.1923 111.299 53.6723 111.449 53.1523C110.989 53.3523 110.539 53.5423 110.079 53.7423L110.069 53.7523H110.049C109.319 54.0723 108.589 54.4123 107.879 54.7723C90.8188 63.0623 78.2689 78.6223 71.1389 96.5623C71.1189 96.6123 71.0989 96.6523 71.0788 96.7023C67.3585 106.107 65.1414 116.038 64.5088 126.132C64.2691 130.038 64.229 133.953 64.3888 137.862Z" fill="#F3F3F3"/>
<path d="M90.3398 203.082H91.9199C92.4199 202.272 92.9599 201.482 93.4999 200.702C94.3599 199.492 95.2466 198.309 96.1599 197.152C96.9499 196.152 97.7399 195.162 98.5299 194.172C99.3499 193.142 100.16 192.112 100.95 191.052L100.02 190.032C99.8699 190.232 99.72 190.432 99.5598 190.632C96.9999 194.002 94.23 197.242 91.8598 200.702C91.3298 201.482 90.8198 202.272 90.3398 203.082Z" fill="white"/>
<path d="M111.78 53.7106C111.52 54.0406 111.25 54.3806 111 54.7206C109.05 57.2506 107.206 59.8606 105.47 62.5506C102.377 67.2969 99.6296 72.2597 97.2496 77.4006C97.0596 77.8006 96.8696 78.2106 96.6896 78.6206C91.5968 89.8541 88.2773 101.81 86.8496 114.061C86.8296 114.181 86.8196 114.291 86.8096 114.411C86.4796 117.271 86.2663 120.141 86.1696 123.021C85.8507 128.444 86.3873 133.884 87.7596 139.141C87.9596 139.831 88.1796 140.511 88.4196 141.171C89.0212 142.788 89.7745 144.345 90.6696 145.821C91.3127 146.897 92.0277 147.93 92.8096 148.911C93.2796 149.511 93.7696 150.101 94.2896 150.671C94.5896 151.001 94.8996 151.331 95.2096 151.661C95.4696 151.911 95.7196 152.171 95.9796 152.421C98.6795 155.041 101.66 157.471 104.1 160.361L103.61 161.871C101.26 158.891 98.2297 156.421 95.4996 153.821C93.7858 152.209 92.2257 150.441 90.8396 148.541C90.6596 148.281 90.4696 148.021 90.2996 147.751C89.3731 146.397 88.5731 144.961 87.9096 143.461C87.5696 142.711 87.2596 141.941 86.9796 141.141C85.3458 135.97 84.6019 130.56 84.7796 125.141C84.8118 121.669 85.0187 118.201 85.3996 114.751C85.4396 114.301 85.4897 113.861 85.5497 113.411C86.5637 105.197 88.4133 97.1085 91.0697 89.2706C94.4317 79.3272 99.0562 69.8565 104.83 61.0906C106.48 58.5806 108.23 56.1306 110.08 53.7406C110.32 53.4106 110.57 53.0906 110.83 52.7606C111.36 52.0806 112.31 53.0306 111.78 53.7106Z" fill="white"/>
<path d="M86.0252 114.877C81.8174 114.128 78.0128 111.908 75.2909 108.613C72.5689 105.318 71.1069 101.163 71.1658 96.8896C71.1698 96.7153 71.2413 96.5494 71.3652 96.4269C71.4891 96.3043 71.6558 96.2346 71.8301 96.2325C72.0043 96.2304 72.1726 96.296 72.2995 96.4155C72.4263 96.535 72.5018 96.6991 72.5101 96.8732C72.4479 100.853 73.8102 104.723 76.3511 107.786C78.8921 110.849 82.4443 112.903 86.3666 113.577C87.2188 113.725 86.8725 115.024 86.0252 114.877Z" fill="white"/>
<path d="M93.9516 150.91C101.161 145.974 106.245 138.503 108.19 129.985C108.382 129.141 109.682 129.484 109.49 130.327C107.449 139.186 102.143 146.951 94.6295 152.07C93.913 152.558 93.2391 151.394 93.9516 150.91Z" fill="white"/>
<path d="M96.8499 77.2556C98.4176 77.8846 100.117 78.1144 101.795 77.9243C103.474 77.7342 105.079 77.1302 106.466 76.1665C107.176 75.6702 107.849 76.8341 107.144 77.3272C105.606 78.3847 103.833 79.0496 101.979 79.2638C100.125 79.4779 98.2468 79.2348 96.5085 78.5556C96.3393 78.5053 96.1956 78.3925 96.1065 78.24C96.0175 78.0876 95.9898 77.907 96.0292 77.7349C96.0753 77.563 96.1873 77.4162 96.341 77.3265C96.4947 77.2367 96.6776 77.2113 96.8499 77.2556Z" fill="white"/>
<path d="M90.7364 212.032C111.258 212.032 127.895 195.396 127.895 174.874C127.895 154.352 111.258 137.716 90.7364 137.716C70.2145 137.716 53.5781 154.352 53.5781 174.874C53.5781 195.396 70.2145 212.032 90.7364 212.032Z" fill="black"/>
<path d="M85.8733 190.2C83.2129 190.199 80.565 189.836 78.0026 189.12C77.7569 189.055 77.5427 188.904 77.3989 188.695C77.255 188.485 77.191 188.231 77.2185 187.978C77.2366 187.719 77.3468 187.476 77.5292 187.292C77.7116 187.107 77.954 186.994 78.2125 186.974C82.0529 186.587 83.5458 185.286 84.094 184.546C84.122 184.509 84.1402 184.466 84.1468 184.42C84.1534 184.374 84.1482 184.327 84.1317 184.284C84.1169 184.243 84.0919 184.207 84.0592 184.179C84.0264 184.151 83.9869 184.132 83.9446 184.124C82.7353 183.886 81.5855 183.41 80.562 182.723C80.2951 182.538 80.077 182.292 79.9263 182.004C79.7756 181.717 79.6968 181.397 79.6967 181.072C79.6966 180.748 79.7751 180.428 79.9256 180.141C80.0761 179.853 80.294 179.606 80.5607 179.421C80.6123 179.386 80.6234 179.356 80.6181 179.318C80.6155 179.295 80.6066 179.273 80.5924 179.255C80.5782 179.238 80.5593 179.224 80.5379 179.216C79.7119 178.958 78.9492 178.529 78.2991 177.958C77.6489 177.387 77.1257 176.686 76.7632 175.9C76.6056 175.557 76.5482 175.176 76.5977 174.802C76.6471 174.427 76.8013 174.074 77.0426 173.784C77.2854 173.483 77.6084 173.257 77.9742 173.132C78.3401 173.007 78.7338 172.988 79.1099 173.077C77.7105 171.398 76.6644 169.454 76.0341 167.362C75.9303 166.936 75.9676 166.489 76.1404 166.087C76.3132 165.684 76.6121 165.349 76.992 165.132C77.3719 164.914 77.8123 164.826 78.2467 164.88C78.6811 164.935 79.086 165.129 79.4004 165.434C81.6276 167.618 84.396 169.171 87.4213 169.932C88.3175 170.14 89.2598 169.988 90.0442 169.507C90.8286 169.026 91.392 168.255 91.6122 167.362C92.015 165.712 92.957 164.245 94.2889 163.192C95.6208 162.139 97.2661 161.56 98.9639 161.549C102.993 161.549 104.505 163.402 104.962 164.181L107.806 162.473C107.884 162.426 107.974 162.402 108.066 162.405C108.157 162.408 108.246 162.437 108.321 162.49C108.396 162.542 108.454 162.615 108.488 162.7C108.522 162.785 108.531 162.878 108.514 162.967C108.339 164.097 107.93 165.177 107.312 166.139L108.838 165.834C108.952 165.812 109.07 165.825 109.175 165.873C109.28 165.921 109.368 166.002 109.425 166.102C109.482 166.203 109.506 166.32 109.493 166.435C109.48 166.55 109.431 166.658 109.353 166.743C108.873 167.27 108.172 168.025 107.562 168.638C106.841 169.367 106.378 170.312 106.245 171.329C103.96 187.748 92.5009 190.2 85.8733 190.2Z" fill="white"/>
<path d="M601.67 156.891H171.809C170.88 156.891 169.99 156.522 169.334 155.865C168.677 155.209 168.309 154.319 168.309 153.391C168.309 152.462 168.677 151.572 169.334 150.916C169.99 150.259 170.88 149.891 171.809 149.891H601.67C602.599 149.891 603.489 150.259 604.145 150.916C604.802 151.572 605.17 152.462 605.17 153.391C605.17 154.319 604.802 155.209 604.145 155.865C603.489 156.522 602.599 156.891 601.67 156.891Z" fill="#B9FF66"/>
<path d="M601.67 178.374H171.809C170.88 178.374 169.99 178.005 169.334 177.349C168.677 176.693 168.309 175.802 168.309 174.874C168.309 173.946 168.677 173.056 169.334 172.399C169.99 171.743 170.88 171.374 171.809 171.374H601.67C602.599 171.374 603.489 171.743 604.145 172.399C604.802 173.056 605.17 173.946 605.17 174.874C605.17 175.802 604.802 176.693 604.145 177.349C603.489 178.005 602.599 178.374 601.67 178.374Z" fill="#F3F3F3"/>
<path d="M459.555 199.857H171.809C170.88 199.857 169.99 199.489 169.334 198.832C168.677 198.176 168.309 197.286 168.309 196.357C168.309 195.429 168.677 194.539 169.334 193.883C169.99 193.226 170.88 192.857 171.809 192.857H459.555C460.483 192.857 461.373 193.226 462.03 193.883C462.686 194.539 463.055 195.429 463.055 196.357C463.055 197.286 462.686 198.176 462.03 198.832C461.373 199.489 460.483 199.857 459.555 199.857Z" fill="#F3F3F3"/>
<path d="M90.7364 343.515C111.258 343.515 127.895 326.878 127.895 306.357C127.895 285.835 111.258 269.198 90.7364 269.198C70.2145 269.198 53.5781 285.835 53.5781 306.357C53.5781 326.878 70.2145 343.515 90.7364 343.515Z" fill="#B9FF66"/>
<path d="M601.67 288.373H171.809C170.88 288.373 169.99 288.004 169.334 287.348C168.677 286.692 168.309 285.801 168.309 284.873C168.309 283.945 168.677 283.055 169.334 282.398C169.99 281.742 170.88 281.373 171.809 281.373H601.67C602.599 281.373 603.489 281.742 604.145 282.398C604.802 283.055 605.17 283.945 605.17 284.873C605.17 285.801 604.802 286.692 604.145 287.348C603.489 288.004 602.599 288.373 601.67 288.373Z" fill="#F3F3F3"/>
<path d="M601.67 309.856H171.809C170.88 309.856 169.99 309.488 169.334 308.831C168.677 308.175 168.309 307.285 168.309 306.356C168.309 305.428 168.677 304.538 169.334 303.882C169.99 303.225 170.88 302.856 171.809 302.856H601.67C602.599 302.856 603.489 303.225 604.145 303.882C604.802 304.538 605.17 305.428 605.17 306.356C605.17 307.285 604.802 308.175 604.145 308.831C603.489 309.488 602.599 309.856 601.67 309.856Z" fill="#F3F3F3"/>
<path d="M459.555 331.34H171.809C170.88 331.34 169.99 330.971 169.334 330.315C168.677 329.658 168.309 328.768 168.309 327.84C168.309 326.912 168.677 326.021 169.334 325.365C169.99 324.709 170.88 324.34 171.809 324.34H459.555C460.483 324.34 461.373 324.709 462.03 325.365C462.686 326.021 463.055 326.912 463.055 327.84C463.055 328.768 462.686 329.658 462.03 330.315C461.373 330.971 460.483 331.34 459.555 331.34Z" fill="#F3F3F3"/>
<path d="M90.7364 474.997C111.258 474.997 127.895 458.361 127.895 437.839C127.895 417.317 111.258 400.681 90.7364 400.681C70.2145 400.681 53.5781 417.317 53.5781 437.839C53.5781 458.361 70.2145 474.997 90.7364 474.997Z" fill="black"/>
<path d="M85.8733 453.164C83.2129 453.163 80.565 452.8 78.0026 452.084C77.7569 452.019 77.5427 451.868 77.3989 451.658C77.255 451.449 77.191 451.195 77.2185 450.942C77.2366 450.683 77.3468 450.44 77.5292 450.255C77.7116 450.071 77.954 449.958 78.2125 449.937C82.0529 449.551 83.5458 448.25 84.094 447.51C84.122 447.473 84.1402 447.43 84.1468 447.384C84.1534 447.338 84.1482 447.291 84.1317 447.248C84.1169 447.207 84.0919 447.171 84.0592 447.143C84.0264 447.115 83.9869 447.096 83.9446 447.088C82.7353 446.85 81.5855 446.373 80.562 445.687C80.2951 445.502 80.077 445.255 79.9263 444.968C79.7756 444.68 79.6968 444.361 79.6967 444.036C79.6966 443.712 79.7751 443.392 79.9256 443.104C80.0761 442.817 80.294 442.57 80.5607 442.385C80.6123 442.35 80.6234 442.32 80.6181 442.281C80.6155 442.259 80.6066 442.237 80.5924 442.219C80.5782 442.201 80.5593 442.188 80.5379 442.18C79.7119 441.922 78.9492 441.493 78.2991 440.922C77.6489 440.351 77.1257 439.65 76.7632 438.864C76.6056 438.521 76.5482 438.14 76.5977 437.765C76.6471 437.391 76.8013 437.038 77.0426 436.747C77.2854 436.447 77.6084 436.221 77.9742 436.096C78.3401 435.971 78.7338 435.952 79.1099 436.041C77.7105 434.362 76.6644 432.418 76.0341 430.326C75.9303 429.9 75.9676 429.453 76.1404 429.05C76.3132 428.648 76.6121 428.313 76.992 428.095C77.3719 427.878 77.8123 427.79 78.2467 427.844C78.6811 427.899 79.086 428.093 79.4004 428.398C81.6276 430.582 84.3959 432.134 87.4213 432.896C88.3175 433.104 89.2598 432.952 90.0442 432.471C90.8286 431.99 91.392 431.219 91.6122 430.326C92.015 428.676 92.957 427.209 94.2889 426.155C95.6208 425.102 97.2661 424.524 98.9639 424.513C102.993 424.513 104.505 426.366 104.962 427.145L107.806 425.437C107.884 425.39 107.974 425.366 108.066 425.369C108.157 425.372 108.246 425.401 108.321 425.454C108.396 425.506 108.454 425.579 108.488 425.664C108.522 425.748 108.531 425.841 108.514 425.931C108.339 427.061 107.93 428.141 107.312 429.103L108.838 428.798C108.952 428.775 109.07 428.789 109.175 428.837C109.28 428.885 109.368 428.966 109.425 429.066C109.482 429.167 109.506 429.283 109.493 429.398C109.48 429.514 109.431 429.622 109.353 429.707C108.873 430.234 108.172 430.989 107.562 431.602C106.841 432.331 106.378 433.276 106.245 434.293C103.96 450.712 92.5009 453.164 85.8733 453.164Z" fill="white"/>
<path d="M601.67 419.855H171.809C170.88 419.855 169.99 419.487 169.334 418.83C168.677 418.174 168.309 417.284 168.309 416.355C168.309 415.427 168.677 414.537 169.334 413.881C169.99 413.224 170.88 412.855 171.809 412.855H601.67C602.599 412.855 603.489 413.224 604.145 413.881C604.802 414.537 605.17 415.427 605.17 416.355C605.17 417.284 604.802 418.174 604.145 418.83C603.489 419.487 602.599 419.855 601.67 419.855Z" fill="#F3F3F3"/>
<path d="M601.67 441.339H171.809C170.88 441.339 169.99 440.97 169.334 440.314C168.677 439.657 168.309 438.767 168.309 437.839C168.309 436.911 168.677 436.02 169.334 435.364C169.99 434.708 170.88 434.339 171.809 434.339H601.67C602.599 434.339 603.489 434.708 604.145 435.364C604.802 436.02 605.17 436.911 605.17 437.839C605.17 438.767 604.802 439.657 604.145 440.314C603.489 440.97 602.599 441.339 601.67 441.339Z" fill="#F3F3F3"/>
<path d="M459.555 462.821H171.809C170.88 462.821 169.99 462.453 169.334 461.796C168.677 461.14 168.309 460.25 168.309 459.321C168.309 458.393 168.677 457.503 169.334 456.846C169.99 456.19 170.88 455.821 171.809 455.821H459.555C460.483 455.821 461.373 456.19 462.03 456.846C462.686 457.503 463.055 458.393 463.055 459.321C463.055 460.25 462.686 461.14 462.03 461.796C461.373 462.453 460.483 462.821 459.555 462.821Z" fill="#F3F3F3"/>
</svg>
