<svg width="232" height="40" viewBox="0 0 232 40" fill="none" xmlns="http://www.w3.org/2000/svg">
<rect width="40" height="40" fill="#219653"/>
<path d="M20 27.3522L26.0833 25.7233L28.625 34L20 27.3522ZM34 16.6541H23.2917L20 6L16.7083 16.6541H6L14.6667 23.2579L11.375 33.9119L20.0417 27.3082L25.375 23.2579L34 16.6541Z" fill="white"/>
<rect width="40" height="40" transform="translate(48)" fill="#219653"/>
<path d="M68 27.3522L74.0833 25.7233L76.625 34L68 27.3522ZM82 16.6541H71.2917L68 6L64.7083 16.6541H54L62.6667 23.2579L59.375 33.9119L68.0417 27.3082L73.375 23.2579L82 16.6541Z" fill="white"/>
<rect width="40" height="40" transform="translate(96)" fill="#219653"/>
<path d="M116 27.3522L122.083 25.7233L124.625 34L116 27.3522ZM130 16.6541H119.292L116 6L112.708 16.6541H102L110.667 23.2579L107.375 33.9119L116.042 27.3082L121.375 23.2579L130 16.6541Z" fill="white"/>
<rect width="40" height="40" transform="translate(144)" fill="#219653"/>
<path d="M164 27.3522L170.083 25.7233L172.625 34L164 27.3522ZM178 16.6541H167.292L164 6L160.708 16.6541H150L158.667 23.2579L155.375 33.9119L164.042 27.3082L169.375 23.2579L178 16.6541Z" fill="white"/>
<rect width="40" height="40" transform="translate(192)" fill="#CECECE"/>
<path d="M212 27.3522L218.083 25.7233L220.625 34L212 27.3522ZM226 16.6541H215.292L212 6L208.708 16.6541H198L206.667 23.2579L203.375 33.9119L212.042 27.3082L217.375 23.2579L226 16.6541Z" fill="white"/>
</svg>
