<svg width="109" height="80" viewBox="0 0 109 80" fill="none" xmlns="http://www.w3.org/2000/svg">
<path fill-rule="evenodd" clip-rule="evenodd" d="M102.135 67.8047C102.075 67.8143 102.016 67.8239 101.957 67.8334C100.942 67.9971 100.004 68.1485 99.3187 68.4066C93.4185 70.5444 86.3696 73.1817 81.3953 77.0911C80.8595 77.4943 80.7534 78.3149 81.1958 78.8682C81.6374 79.421 82.4163 79.5643 83.0112 79.0734C87.5841 75.5074 94.0487 73.0977 99.6381 71.0143C99.8329 70.9416 100.027 70.8694 100.219 70.7975C100.933 70.5588 102.035 70.3915 103.15 70.222C103.614 70.1516 104.08 70.0807 104.522 70.0043C105.828 69.7382 106.977 69.3662 107.733 68.7291C108.186 68.3975 108.543 67.491 107.911 66.3001C107.145 64.9388 104.634 62.4881 103.614 61.4923C103.403 61.2856 103.255 61.1416 103.201 61.083C99.9846 57.6392 97.2257 54.504 97.0672 49.5541C97.0167 48.8827 96.4073 48.3445 95.7544 48.2864C95.0424 48.316 94.4645 48.946 94.5159 49.618C94.7153 55.2328 97.64 58.9896 101.33 62.8802C101.544 63.0247 102.841 64.2053 104 65.4796C84.5412 63.3094 58.3952 56.7504 46.6818 40.292C45.2869 38.3316 43.9116 35.7469 42.8177 32.9698C43.3314 33.1889 43.9034 33.3198 44.4744 33.45C44.6045 33.4877 44.7354 33.5256 44.8672 33.5638C47.7513 34.3999 51.0317 35.3509 54.0617 35.2009C58.2398 34.9603 60.9019 33.315 62.4735 30.934C64.6828 27.5811 64.5316 22.509 62.585 18.1373C60.6691 13.7862 57.0854 10.094 52.8363 9.13965C49.9408 8.4611 46.6744 9.06177 43.357 11.6672C39.5795 14.5996 38.1688 18.8735 38.222 23.4975C38.213 25.2757 38.4887 26.9908 38.8641 28.7735C37.2599 28.0738 35.6415 27.365 34.0031 26.6422C28.7468 24.1164 23.6005 20.9003 18.9556 17.3849C12.7541 12.8196 7.5387 7.3893 3.29782 0.96022C2.87115 0.417523 2.0701 0.259804 1.49134 0.634125C0.913464 1.00904 0.759412 1.79677 1.12701 2.42707C5.54092 9.10032 10.9371 14.7802 17.3891 19.5145C22.2333 23.0369 27.4663 26.4381 32.9209 28.9703C35.1965 29.9954 37.4343 30.9953 39.7085 31.892C40.9459 35.658 42.7668 39.1805 44.5696 41.7985C56.3689 58.3351 82.2194 65.3802 102.135 67.8047ZM45.1456 30.9717C43.9807 30.6958 42.8727 30.33 41.8172 29.873C41.1864 27.7906 40.799 25.6176 40.804 23.4543C40.7208 19.7022 41.8254 16.1147 44.9712 13.6484C47.5159 11.6688 49.9948 11.1737 52.2545 11.6783C55.7985 12.4119 58.636 15.6006 60.2057 19.2084C61.8048 22.7085 62.1435 26.7599 60.2817 29.5825C59.1176 31.3462 57.0445 32.498 53.8971 32.6691C51.5677 32.751 49.0857 32.0597 46.7523 31.4099C46.2073 31.2581 45.6705 31.1086 45.1456 30.9717Z" fill="#FFA903"/>
</svg>
