<svg width="99" height="65" viewBox="0 0 99 65" fill="none" xmlns="http://www.w3.org/2000/svg">
<path fill-rule="evenodd" clip-rule="evenodd" d="M92.7231 11.7188C92.672 11.7068 92.6211 11.6949 92.5704 11.683C91.7011 11.4797 90.897 11.2915 90.3184 11.0263C85.3335 8.81551 79.3831 6.10217 75.3081 2.41185C74.8681 2.0298 74.8259 1.31207 75.2429 0.859235C75.6592 0.406864 76.3431 0.329871 76.829 0.791435C80.5768 4.15977 86.0345 6.64043 90.7533 8.78522C90.9178 8.85999 91.0814 8.93434 91.244 9.00831C91.8482 9.25851 92.7931 9.47038 93.7497 9.68487C94.1475 9.77405 94.5473 9.86369 94.9254 9.95672C96.0415 10.2665 97.0153 10.6587 97.632 11.2567C98.0046 11.5717 98.2588 12.3791 97.6389 13.3731C96.8921 14.5066 94.5675 16.4788 93.6229 17.2803C93.4269 17.4466 93.2903 17.5625 93.2395 17.61C90.243 20.4002 87.6614 22.9507 87.224 27.2319C87.1395 27.8108 86.5786 28.2404 86.0091 28.2511C85.3937 28.1824 84.9309 27.6012 85.0163 27.0218C85.5294 22.1668 88.2924 19.0876 91.7265 15.9387C91.921 15.8264 93.1171 14.8817 94.1989 13.8473C77.1997 14.549 54.1379 18.6497 42.9866 32.2064C41.6587 33.8213 40.3099 35.9784 39.1933 38.3193C39.6519 38.1606 40.1556 38.0818 40.6585 38.0035C40.7735 37.9788 40.8894 37.9538 41.0059 37.9287C43.5566 37.3787 46.4578 36.7532 49.0752 37.067C52.6824 37.5288 54.8903 39.1163 56.1083 41.2756C57.8202 44.3159 57.3816 48.7034 55.4293 52.375C53.5048 56.0305 50.1744 59.0138 46.4333 59.5835C43.8823 59.9962 41.0872 59.2775 38.3695 56.8179C35.2728 54.0471 34.309 50.2568 34.6354 46.2517C34.7354 44.7098 35.0783 43.2398 35.5118 41.7173C34.0788 42.2266 32.6329 42.7429 31.1689 43.2701C26.4595 45.1409 21.8035 47.6168 17.5641 50.3825C11.9116 53.964 7.0616 58.355 2.99577 63.671C2.59301 64.1155 1.88907 64.2037 1.41008 63.8441C0.93188 63.4841 0.846087 62.7919 1.20294 62.2678C5.43357 56.7508 10.4554 52.1543 16.3353 48.4415C20.7479 45.6819 25.4902 43.0507 30.372 41.1864C32.4067 40.4357 34.4071 39.7047 36.4328 39.0652C37.7337 35.8757 39.5257 32.9326 41.2471 30.7726C52.4775 17.1532 75.3126 12.6132 92.7231 11.7188ZM41.0901 40.1925C40.0636 40.3611 39.0809 40.611 38.1383 40.9432C37.4653 42.71 36.9978 44.5702 36.871 46.4457C36.5714 49.6931 37.3114 52.8699 39.8888 55.1984C41.9747 57.0686 44.0935 57.6481 46.0828 57.3477C49.1994 56.9265 51.8524 54.3345 53.4317 51.3023C55.03 48.3652 55.5692 44.8738 54.1264 42.3142C53.2242 40.7148 51.497 39.5907 48.7791 39.2516C46.7649 39.0394 44.5714 39.4882 42.5093 39.9101C42.0278 40.0086 41.5534 40.1057 41.0901 40.1925Z" fill="#2937B1"/>
</svg>
